<svg width="209" height="86" viewBox="0 0 209 86" fill="none" xmlns="http://www.w3.org/2000/svg" aria-hidden="true">
    <path d="M109.362 64.9267C94.2461 64.9267 82.2188 55.0793 82.2188 37.2885C82.2188 19.5633 94.2461 9.84729 109.362 9.84729C124.413 9.84729 136.506 19.629 136.506 37.4198C136.506 55.0793 124.413 64.9267 109.362 64.9267ZM109.362 12.8671C96.2178 12.8671 85.7678 21.5328 85.7678 37.2885C85.7678 53.2412 96.2178 61.8412 109.362 61.8412C122.441 61.8412 132.957 53.3068 132.957 37.4198C132.957 21.5328 122.441 12.8671 109.362 12.8671Z" fill="#4D5858"/>
    <path d="M142.553 37.2885C142.553 19.7603 154.317 9.84729 169.959 9.84729C177.386 9.84729 184.156 12.8015 187.705 15.2961L187.442 18.6442C184.09 16.4122 177.846 12.8671 169.959 12.8671C156.486 12.8671 146.102 21.5984 146.102 37.2229C146.102 52.9129 156.289 61.9068 169.959 61.9068C177.32 61.9068 183.564 59.0839 187.836 56.0641L189.413 59.0183C183.301 63.1542 176.992 64.9923 169.959 64.9923C154.317 64.9267 142.553 54.8168 142.553 37.2885Z" fill="#4D5858"/>
    <path d="M197.234 10.6351H200.718V64.2046H197.234V10.6351Z" fill="#4D5858"/>
    <path d="M91.551 75.9557L92.9312 72.2794H94.5743L91.7482 79.1068H91.4853L89.9737 75.1679L88.462 79.1068H88.1991L85.373 72.2794H87.0161L88.3963 75.9557C88.8564 74.7084 89.4479 73.3298 89.8422 72.1481H90.1708L91.551 75.9557Z" fill="#231F20"/>
    <path d="M98.0572 76.8748C98.0572 76.0214 97.9914 75.4962 97.3342 75.4962C96.677 75.4962 96.4798 76.1527 96.4798 77.0718V78.9756H95.0996V72.4763L96.4798 72.2137V75.2336C96.6112 75.0366 97.0056 74.3802 97.86 74.3802C99.1745 74.3802 99.5031 75.2336 99.5031 77.0718V79.0412H98.1229V76.8748H98.0572Z" fill="#231F20"/>
    <path d="M102.921 77.9251C103.446 77.9251 103.775 77.7938 104.104 77.5312L104.695 78.516C104.038 78.9755 103.446 79.0412 102.855 79.0412C101.278 79.0412 100.357 78.1221 100.357 76.6778C100.357 75.2992 101.343 74.3145 102.658 74.3145C103.841 74.3145 104.827 75.1022 104.827 76.4809C104.827 76.7435 104.827 77.0061 104.827 77.0061H101.803C101.738 77.6625 102.263 77.9251 102.921 77.9251ZM101.738 76.0213H103.578C103.512 75.5618 103.184 75.2335 102.658 75.2335C102.198 75.2335 101.869 75.5618 101.738 76.0213Z" fill="#231F20"/>
    <path d="M107.062 77.4656V78.9098H105.682V74.3801H107.062V75.1022C107.259 74.5114 107.982 74.1831 108.573 74.2488C108.573 74.3801 108.442 75.3648 108.376 75.4961C107.39 75.5617 107.062 76.2839 107.062 77.4656Z" fill="#231F20"/>
    <path d="M111.333 77.9251C111.859 77.9251 112.187 77.7938 112.516 77.5312L113.107 78.516C112.45 78.9755 111.859 79.0412 111.267 79.0412C109.69 79.0412 108.77 78.1221 108.77 76.6778C108.77 75.2992 109.755 74.3145 111.07 74.3145C112.253 74.3145 113.239 75.1022 113.239 76.4809C113.239 76.7435 113.239 77.0061 113.239 77.0061H110.215C110.15 77.6625 110.676 77.9251 111.333 77.9251ZM110.15 76.0213H111.99C111.924 75.5618 111.596 75.2335 111.07 75.2335C110.61 75.2335 110.281 75.5618 110.15 76.0213Z" fill="#231F20"/>
    <path d="M118.169 75.2336V78.9756H116.592V72.1481H116.855L120.995 75.9557V72.2137H122.573V79.0412H122.31L118.169 75.2336Z" fill="#231F20"/>
    <path d="M126.253 77.9251C126.778 77.9251 127.107 77.7938 127.436 77.5312L128.027 78.516C127.37 78.9755 126.778 79.0412 126.187 79.0412C124.61 79.0412 123.689 78.1221 123.689 76.6778C123.689 75.2992 124.675 74.3145 125.99 74.3145C127.173 74.3145 128.159 75.1022 128.159 76.4809C128.159 76.7435 128.159 77.0061 128.159 77.0061H125.135C125.135 77.6625 125.661 77.9251 126.253 77.9251ZM125.07 76.0213H126.91C126.844 75.5618 126.516 75.2335 125.99 75.2335C125.53 75.2335 125.201 75.5618 125.07 76.0213Z" fill="#231F20"/>
    <path d="M133.745 78.9756H132.102L131.05 77.4656L129.999 78.9756H128.355L130.261 76.4809L128.684 74.3801H130.327L131.05 75.4962L131.773 74.3801H133.482L131.773 76.4809C132.299 77.203 133.219 78.2534 133.745 78.9756Z" fill="#231F20"/>
    <path d="M136.308 78.9756C135.059 78.9756 134.665 78.4504 134.665 77.2031V75.4962H133.811L134.073 74.4458H134.665V73.4611L136.045 73.1985V74.4458H137.097V75.4962H136.045V77.2687C136.045 77.7283 136.111 77.9252 136.439 77.9909C136.702 77.9909 136.965 77.9909 137.228 77.9909L136.965 79.0413C136.9 78.9756 136.702 78.9756 136.308 78.9756Z" fill="#231F20"/>
    <path d="M144.722 75.8901H142.093V78.9756H140.516V72.2137H142.093V74.6428H144.722V72.2137H146.299V78.9099H144.722V75.8901Z" fill="#231F20"/>
    <path d="M149.781 74.3145C151.096 74.3145 151.885 74.9709 152.016 75.1022V78.9099H150.636V78.1221C150.504 78.319 150.176 78.9755 149.321 78.9755C148.138 78.9755 147.35 78.0564 147.35 76.7435C147.415 75.3648 148.27 74.3145 149.781 74.3145ZM149.716 77.8595C150.307 77.8595 150.702 77.2686 150.702 76.2183V75.6274C150.57 75.5618 150.307 75.4305 149.913 75.4305C149.19 75.4305 148.861 76.0213 148.861 76.7435C148.796 77.3999 149.058 77.8595 149.716 77.8595Z" fill="#231F20"/>
    <path d="M157.8 76.6122C157.8 77.9252 157.011 79.0412 155.697 79.0412C155.105 79.0412 154.579 78.8443 154.579 78.8443V80.4198L153.199 80.6824C153.199 80.6824 153.199 79.0412 153.199 74.4458H154.579V75.2336C154.711 74.971 155.039 74.3801 155.894 74.3801C157.077 74.3145 157.8 75.2336 157.8 76.6122ZM155.5 75.4962C154.908 75.4962 154.514 76.087 154.514 77.1374V77.7282C154.645 77.7939 154.908 77.9908 155.368 77.9908C156.025 77.9908 156.42 77.4 156.42 76.6778C156.42 75.9557 156.157 75.4962 155.5 75.4962Z" fill="#231F20"/>
    <path d="M163.386 76.6122C163.386 77.9252 162.597 79.0412 161.283 79.0412C160.691 79.0412 160.165 78.8443 160.165 78.8443V80.4198L158.785 80.6824C158.785 80.6824 158.785 79.0412 158.785 74.4458H160.165V75.2336C160.297 74.971 160.625 74.3801 161.48 74.3801C162.663 74.3145 163.386 75.2336 163.386 76.6122ZM161.085 75.4962C160.494 75.4962 160.1 76.087 160.1 77.1374V77.7282C160.231 77.7939 160.494 77.9908 160.954 77.9908C161.611 77.9908 162.006 77.4 162.006 76.6778C161.94 75.9557 161.677 75.4962 161.085 75.4962Z" fill="#231F20"/>
    <path d="M166.673 77.9251C167.198 77.9251 167.527 77.7938 167.856 77.5312L168.447 78.516C167.79 78.9755 167.198 79.0412 166.607 79.0412C165.03 79.0412 164.109 78.1221 164.109 76.6778C164.109 75.2992 165.095 74.3145 166.41 74.3145C167.593 74.3145 168.579 75.1022 168.579 76.4809C168.579 76.7435 168.579 77.0061 168.579 77.0061H165.555C165.49 77.6625 166.015 77.9251 166.673 77.9251ZM165.49 76.0213H167.33C167.264 75.5618 166.935 75.2335 166.41 75.2335C165.95 75.2335 165.621 75.5618 165.49 76.0213Z" fill="#231F20"/>
    <path d="M172.391 76.481C172.391 75.8245 172.194 75.4306 171.668 75.4306C171.142 75.4306 170.814 75.9558 170.814 76.8092V78.91H169.434V74.3802H170.814V75.1023C170.945 74.9054 171.34 74.2489 172.194 74.2489C173.311 74.2489 173.837 74.9054 173.837 76.284V78.8443H172.457V76.481H172.391Z" fill="#231F20"/>
    <path d="M176.53 75.3649C176.267 75.3649 176.07 75.4305 176.07 75.6931C176.07 76.3496 178.371 76.087 178.371 77.5969C178.371 78.516 177.582 79.0412 176.53 79.0412C175.61 79.0412 174.821 78.5816 174.559 78.4504L175.216 77.5313C175.347 77.5969 176.005 77.9908 176.53 77.9908C176.859 77.9908 176.99 77.8595 176.99 77.5969C176.99 76.9404 174.756 77.203 174.756 75.6931C174.756 74.8397 175.413 74.3801 176.53 74.3801C177.319 74.3801 177.976 74.7084 178.108 74.774L177.91 75.7588C177.713 75.6275 177.056 75.3649 176.53 75.3649Z" fill="#231F20"/>
    <path d="M17.9425 81.5359C13.9333 81.5359 10.9101 80.5511 8.67548 78.4504C5.78365 75.7588 4.46919 71.4916 4.73208 65.3206C5.25787 53.1756 15.7079 32.0366 29.8384 21.2046C43.9689 10.3725 54.5503 9.05952 59.7425 11.4229C66.9063 14.7053 69.4695 22.6488 67.6293 35.6473L64.0802 35.1221C65.6576 23.8962 63.7516 17.2 58.2308 14.6397C51.2642 11.4885 38.5138 19.0381 32.0072 24.0275C18.6654 34.2687 8.87265 54.0946 8.34686 65.5175C8.14969 70.4412 9.06982 73.9206 11.1072 75.8244C13.0789 77.6626 16.2994 78.3191 20.9 77.7282C25.172 77.203 30.9557 74.4458 36.6079 70.8351C32.533 66.174 29.3126 59.8061 28.984 54.9481C28.4582 46.4137 32.4673 39.1923 40.0255 35.1221C48.4381 30.5923 53.5645 33.5465 56.7192 36.1725C60.7283 39.5206 62.1742 47.661 57.245 56.6549C54.9447 60.8565 49.0296 66.4366 42.2601 71.2946C42.8516 71.8198 43.5088 72.2137 44.1003 72.542C50.6069 76.2183 59.0195 79.632 66.8406 73.1328C74.6616 66.5023 73.2157 56.7206 73.15 56.3267L76.6991 55.7359C76.7648 56.261 78.605 67.9465 69.1409 75.8901C58.4937 84.8839 46.7293 78.1878 42.3258 75.6931C41.2742 75.1023 40.2226 74.3145 39.1711 73.3954C32.8616 77.4656 26.2236 80.6824 21.3601 81.2733C20.1771 81.4702 18.994 81.5359 17.9425 81.5359ZM48.1752 36.4351C46.4006 36.4351 44.2975 36.9603 41.8 38.3389C35.4906 41.8183 32.2044 47.5954 32.6645 54.8168C32.9274 58.9527 36.0164 64.7954 39.6969 68.8656C46.2035 64.2702 52.0528 58.887 54.156 55.0137C57.9679 48.0549 57.3107 41.4244 54.4846 39.061C52.8415 37.6824 50.8698 36.4351 48.1752 36.4351Z" fill="#E64B38"/>
    <path d="M74.4635 52.7817C75.988 52.7817 77.2239 51.5472 77.2239 50.0245C77.2239 48.5017 75.988 47.2672 74.4635 47.2672C72.939 47.2672 71.7031 48.5017 71.7031 50.0245C71.7031 51.5472 72.939 52.7817 74.4635 52.7817Z" fill="#E64B38"/>
</svg>