<svg width="281" height="44" viewBox="0 0 281 44" fill="none" xmlns="http://www.w3.org/2000/svg">
<path d="M46.5651 2.62687C46.4785 2.84577 46.3703 3.06468 46.2404 3.28358C46.1538 3.45871 46.0456 3.65572 45.9157 3.87463C45.2229 5.23184 43.7509 6.15125 41.4994 6.63284C39.248 7.11443 36.6286 7.35523 33.6412 7.35523C32.8618 8.71244 32.3206 10.0915 32.0176 11.4925C31.7578 12.8498 31.6279 14.2289 31.6279 15.6299C31.6279 16.7244 31.6928 17.8408 31.8227 18.9791C31.9526 20.0736 32.1042 21.19 32.2773 22.3284L39.681 23.0507L36.1091 27.1224L32.732 26.794C32.732 27.5821 32.6887 28.4139 32.6021 29.2896C32.5155 30.1652 32.3639 31.0408 32.1475 31.9164C31.5413 34.806 30.3723 37.4547 28.6405 39.8627C26.9086 42.2706 24.549 43.4527 21.5615 43.409C21.3883 43.409 21.2152 43.409 21.042 43.409C20.8688 43.409 20.674 43.3871 20.4575 43.3433C17.4267 42.993 15.2836 41.7015 14.028 39.4687C12.7724 37.192 11.9281 34.7403 11.4952 32.1134C11.4519 31.7632 11.4086 31.4348 11.3653 31.1284C11.322 30.7781 11.2787 30.4498 11.2354 30.1433L16.2361 25.9403C16.1928 27.5602 16.2794 29.1144 16.4959 30.603C16.7556 32.0478 17.2752 33.4706 18.0545 34.8716C18.1844 35.1781 18.336 35.4627 18.5091 35.7254C18.6823 35.9881 18.8772 36.2726 19.0936 36.5791C19.2235 36.7542 19.3534 36.9294 19.4833 37.1045C19.6132 37.2796 19.7647 37.4547 19.9379 37.6298C20.5008 38.2866 21.1502 38.8776 21.8862 39.403C22.6656 39.9284 23.4666 40.191 24.2892 40.191C24.4191 40.191 24.549 40.191 24.6789 40.191C24.852 40.1473 25.0036 40.1035 25.1335 40.0597C25.2634 40.0159 25.3932 39.9502 25.5231 39.8627C25.6963 39.7751 25.8479 39.6876 25.9777 39.6C26.2808 39.3811 26.4756 39.0308 26.5622 38.5493C26.6921 38.0677 26.7571 37.4985 26.7571 36.8418C26.7571 36.5353 26.7354 36.2289 26.6921 35.9224C26.6921 35.5721 26.6705 35.2219 26.6272 34.8716C26.5839 34.4776 26.5406 34.1055 26.4973 33.7552C26.454 33.405 26.3891 33.0547 26.3025 32.7045C26.2592 32.4856 26.2159 32.2667 26.1726 32.0478C26.1726 31.8289 26.1509 31.6318 26.1076 31.4567C25.9344 30.5811 25.8046 29.7055 25.718 28.8299C25.6314 27.9104 25.5448 26.991 25.4582 26.0716L11.3003 24.7582L15.7165 20.6866C17.3185 20.8617 18.8988 21.0368 20.4575 21.2119C22.0594 21.3433 23.6397 21.4746 25.1984 21.606C25.2417 18.6289 25.6963 16.1771 26.5622 14.2507C27.4715 12.2806 28.5539 10.4199 29.8095 8.66866C29.9393 8.40597 30.0909 8.16518 30.2641 7.94627C30.4373 7.72737 30.6104 7.50846 30.7836 7.28956C27.8828 7.15821 25.0036 6.91741 22.146 6.56716C19.2885 6.21692 16.4526 5.82288 13.6383 5.38507C13.4651 5.38507 13.2919 5.38507 13.1188 5.38507C12.9889 5.34129 12.859 5.29751 12.7291 5.25373C11.9065 5.16617 11.0838 5.07861 10.2612 4.99105C9.48188 4.8597 8.70254 4.72836 7.92321 4.59702C7.36036 5.38508 6.90575 6.28259 6.55938 7.28956C6.21301 8.29652 5.97488 9.30349 5.84499 10.3105C5.7584 10.7045 5.69346 11.0985 5.65016 11.4925C5.65016 11.8866 5.65016 12.2806 5.65016 12.6746C5.65016 12.9811 5.65016 13.3095 5.65016 13.6597C5.69346 13.9662 5.73675 14.2945 5.78005 14.6448C5.82334 14.8199 5.86664 15.0388 5.90994 15.3015C5.95323 15.5204 5.99653 15.7393 6.03982 15.9582C6.21301 16.5711 6.45114 17.1403 6.75421 17.6657C7.10058 18.1473 7.55519 18.3881 8.11804 18.3881C8.29123 18.3881 8.46441 18.3662 8.6376 18.3224C8.85408 18.2348 9.07056 18.1035 9.28704 17.9284C9.8066 17.0965 10.2396 16.2209 10.5859 15.3015C10.9756 14.3383 11.2787 13.3532 11.4952 12.3463C11.625 11.8209 11.7333 11.2955 11.8199 10.7702C11.9065 10.2448 11.9931 9.7194 12.0797 9.19403L13.8981 9.39104C13.8115 10.0478 13.66 10.8577 13.4435 11.8209C13.2703 12.7403 13.0322 13.6816 12.7291 14.6448C12.2528 16.1333 11.625 17.5343 10.8457 18.8478C10.1097 20.1612 9.15715 20.993 7.98816 21.3433C7.68508 21.4308 7.38201 21.4965 7.07893 21.5403C6.77586 21.5841 6.47279 21.606 6.16971 21.606C4.30798 21.606 2.81426 20.8179 1.68855 19.2418C0.562851 17.6219 0 15.8488 0 13.9224C0 10.2886 1.34218 7.31144 4.02655 4.99105C6.71092 2.62687 9.65506 1.09453 12.859 0.394033C12.9456 0.394033 13.0105 0.394033 13.0538 0.394033C13.1404 0.350252 13.2054 0.328361 13.2486 0.328361C13.8981 0.197017 14.5475 0.109455 15.197 0.0656741C15.8897 0.021891 16.5825 0 17.2752 0C17.7515 0 18.2061 0.021891 18.639 0.0656741C19.072 0.0656741 19.505 0.0875641 19.9379 0.131345C23.0985 0.35025 26.2592 0.612937 29.4198 0.919406C32.6237 1.22587 35.806 1.55423 38.9666 1.90448C40.2222 1.99204 41.4778 2.10149 42.7334 2.23284C44.0323 2.36418 45.3095 2.49552 46.5651 2.62687Z" fill="black"/>
<path d="M62.373 32.5075C61.1174 33.9085 59.8401 35.3313 58.5412 36.7761C57.2857 38.1771 56.0301 39.6 54.7745 41.0448C54.2116 41.7015 53.6055 42.2488 52.956 42.6866C52.3066 43.0806 51.5489 43.2776 50.683 43.2776C49.514 43.2776 48.4965 42.9055 47.6306 42.1612C46.808 41.4169 46.1585 40.5413 45.6823 39.5343C45.639 39.6219 45.5957 39.7313 45.5524 39.8627C45.5091 39.9502 45.4441 40.0378 45.3575 40.1254C44.9246 40.9134 44.3401 41.6577 43.604 42.3582C42.868 43.0149 42.0454 43.3214 41.1362 43.2776C41.1362 43.2776 41.1145 43.2776 41.0712 43.2776C41.0712 43.2776 41.0496 43.2776 41.0063 43.2776C40.963 43.2776 40.9197 43.2776 40.8764 43.2776C39.6641 43.1463 38.6683 42.3582 37.8889 40.9134C37.1529 39.4249 36.7849 37.608 36.7849 35.4627C36.7849 35.1124 36.7849 34.7841 36.7849 34.4776C36.8282 34.1274 36.8715 33.799 36.9148 33.4925C36.9581 32.9672 37.0447 32.3542 37.1746 31.6537C37.3477 30.9095 37.5642 30.1652 37.824 29.4209C38.3436 28.0637 39.0146 26.8159 39.8373 25.6776C40.7032 24.4955 41.7856 23.9045 43.0845 23.9045C43.1711 23.9045 43.236 23.9045 43.2793 23.9045C43.3659 23.9045 43.4309 23.9045 43.4742 23.9045C43.6906 23.9045 43.8638 23.9483 43.9937 24.0358C44.1669 24.0796 44.3401 24.1453 44.5133 24.2328C44.5999 24.2766 44.6865 24.3423 44.773 24.4299C44.8596 24.4736 44.9462 24.5174 45.0328 24.5612V23.8388H53.3457V39.9284C53.389 39.8846 53.4106 39.8627 53.4106 39.8627C53.4106 39.8189 53.4106 39.797 53.4106 39.797C54.0601 39.0965 54.6879 38.396 55.294 37.6955C55.9435 36.9512 56.5929 36.2289 57.2424 35.5284C57.8485 34.8279 58.4547 34.1274 59.0608 33.4269C59.7102 32.6826 60.3597 31.9602 61.0091 31.2597C61.0957 31.1284 61.204 31.0408 61.3339 30.997C61.4637 30.9095 61.5936 30.8876 61.7235 30.9313C61.9833 30.9313 62.1998 31.0189 62.373 31.194C62.5462 31.3692 62.6327 31.5881 62.6327 31.8507C62.6327 31.8945 62.6327 31.9602 62.6327 32.0478C62.6327 32.0915 62.6111 32.1353 62.5678 32.1791C62.5678 32.2229 62.5462 32.2886 62.5029 32.3761C62.4596 32.4199 62.4163 32.4637 62.373 32.5075ZM45.0978 35.8567V27.5821C45.0545 27.4945 45.0112 27.407 44.9679 27.3194C44.9246 27.2318 44.8813 27.1224 44.838 26.991C44.7081 26.7721 44.5349 26.5532 44.3184 26.3343C44.1452 26.1154 43.9288 26.006 43.669 26.006C42.9762 26.006 42.4783 26.4438 42.1753 27.3194C41.8722 28.1512 41.7207 29.1363 41.7207 30.2746C41.7207 30.406 41.7207 30.5373 41.7207 30.6687C41.7207 30.8 41.7423 30.9313 41.7856 31.0627C41.8722 32.3761 42.132 33.602 42.5649 34.7403C42.9979 35.8348 43.5824 36.3602 44.3184 36.3164C44.3617 36.3164 44.405 36.3164 44.4483 36.3164C44.4916 36.3164 44.5349 36.2945 44.5782 36.2507C44.6648 36.207 44.7514 36.1632 44.838 36.1194C44.9679 36.0318 45.0545 35.9443 45.0978 35.8567Z" fill="black"/>
<path d="M88.5547 30.5373C87.9485 31.3254 87.3424 32.1353 86.7362 32.9672C86.1734 33.7552 85.5889 34.5433 84.9827 35.3313C84.3766 36.1632 83.7704 36.995 83.1643 37.8269C82.6014 38.6149 82.0169 39.403 81.4108 40.191C80.8479 40.9791 80.1768 41.6577 79.3975 42.2269C78.6182 42.7522 77.8172 43.1463 76.9946 43.409C76.6915 43.4965 76.3884 43.5622 76.0854 43.606C75.8256 43.6498 75.5442 43.6716 75.2411 43.6716C74.202 43.6716 73.2927 43.2995 72.5134 42.5552C71.7341 41.8109 71.3011 40.607 71.2145 38.9433C71.1712 38.4179 71.1279 37.8925 71.0846 37.3672C71.0846 36.8418 71.063 36.3164 71.0197 35.791C70.9764 35.3095 70.9331 34.806 70.8898 34.2806C70.8898 33.7552 70.8682 33.2299 70.8249 32.7045L66.6035 41.7015L60.6286 43.2119C60.6719 41.7234 60.6935 40.2567 60.6935 38.8119C60.7368 37.3234 60.7801 35.8348 60.8234 34.3463C60.8234 32.8577 60.8234 31.391 60.8234 29.9463C60.8667 28.4577 60.91 26.9692 60.9533 25.4806L67.7725 22.8537L68.1621 33.9522C68.4652 33.3393 68.7466 32.7264 69.0064 32.1134C69.3095 31.5005 69.6126 30.8876 69.9156 30.2746C70.2187 29.6617 70.5001 29.0488 70.7599 28.4358C71.063 27.8229 71.3444 27.2099 71.6042 26.597C71.9506 25.9403 72.3186 25.4149 72.7082 25.0209C73.1412 24.6269 73.5742 24.3423 74.0071 24.1672C74.2236 24.0796 74.4401 24.0139 74.6566 23.9701C74.9164 23.9264 75.1545 23.9045 75.371 23.9045C76.2802 23.9483 77.1028 24.2766 77.8389 24.8896C78.5749 25.4587 78.9646 26.2468 79.0079 27.2537C79.1377 29.2677 79.2676 31.2816 79.3975 33.2955C79.5274 35.2657 79.6573 37.2577 79.7872 39.2716C80.6531 38.2209 81.4757 37.1483 82.2551 36.0537C83.0777 34.9592 83.8787 33.8428 84.658 32.7045C84.7446 32.5731 84.8312 32.4418 84.9178 32.3104C85.0477 32.1791 85.1559 32.0478 85.2425 31.9164C85.5456 31.4786 85.8487 31.0627 86.1517 30.6687C86.4548 30.2308 86.7579 29.8149 87.061 29.4209C87.1908 29.2458 87.3207 29.1363 87.4506 29.0925C87.5805 29.005 87.7104 28.9831 87.8403 29.0269C88.1001 29.0269 88.3165 29.1144 88.4897 29.2896C88.7062 29.4647 88.7928 29.6836 88.7495 29.9463C88.7495 30.0338 88.7279 30.1433 88.6846 30.2746C88.6846 30.3622 88.6413 30.4497 88.5547 30.5373Z" fill="black"/>
<path d="M101.928 31.2597C100.716 33.2736 99.4819 35.2876 98.2263 37.3015C96.9707 39.2716 95.7151 41.2637 94.4595 43.2776H89.4588C89.4155 41.7015 89.3722 40.1473 89.3289 38.6149C89.2856 37.0388 89.264 35.4627 89.264 33.8866C89.2207 32.3542 89.1774 30.8219 89.1341 29.2896C89.0908 27.7134 89.0475 26.1373 89.0042 24.5612C90.2598 23.9483 91.4937 23.3353 92.706 22.7224C93.9616 22.1095 95.1956 21.5184 96.4079 20.9493C96.4079 22.2627 96.4079 23.5761 96.4079 24.8896C96.4079 26.1592 96.4079 27.4507 96.4079 28.7642C96.4079 30.0776 96.4079 31.391 96.4079 32.7045C96.4512 33.9741 96.4728 35.2657 96.4728 36.5791C97.1223 35.5284 97.7717 34.4776 98.4211 33.4269C99.0706 32.3761 99.72 31.3254 100.369 30.2746C100.456 30.0995 100.564 29.99 100.694 29.9463C100.867 29.8587 101.041 29.8149 101.214 29.8149C101.474 29.8149 101.69 29.9025 101.863 30.0776C102.036 30.2527 102.123 30.4716 102.123 30.7343C102.123 30.7781 102.101 30.8657 102.058 30.997C102.058 31.0846 102.015 31.1721 101.928 31.2597ZM98.1614 13.3313C98.1614 14.7761 97.6635 16.0239 96.6676 17.0746C95.6718 18.0816 94.4595 18.5851 93.0308 18.5851C91.602 18.5851 90.368 18.0816 89.3289 17.0746C88.3331 16.0239 87.8352 14.7761 87.8352 13.3313C87.8352 11.8866 88.3331 10.6607 89.3289 9.65373C90.368 8.60299 91.602 8.07761 93.0308 8.07761C94.4595 8.07761 95.6718 8.60299 96.6676 9.65373C97.6635 10.6607 98.1614 11.8866 98.1614 13.3313Z" fill="black"/>
<path d="M139.132 30.4716C138.613 31.2597 138.093 32.0697 137.573 32.9015C137.097 33.6896 136.621 34.4776 136.145 35.2657C135.668 36.0975 135.171 36.9294 134.651 37.7612C134.175 38.5493 133.677 39.3373 133.157 40.1254C132.638 40.9572 132.032 41.6577 131.339 42.2269C130.646 42.796 129.932 43.19 129.196 43.409C128.979 43.4965 128.741 43.5622 128.481 43.606C128.221 43.6498 127.983 43.6716 127.767 43.6716C126.814 43.6716 125.97 43.2995 125.234 42.5552C124.498 41.7672 124.043 40.5632 123.87 38.9433C123.784 37.805 123.675 36.6667 123.545 35.5284C123.459 34.3463 123.351 33.1861 123.221 32.0478L120.103 38.4836L120.168 43.2776H112.83C112.83 40.9572 112.83 38.6368 112.83 36.3164C112.83 33.996 112.83 31.6756 112.83 29.3552C112.83 27.0348 112.808 24.7144 112.765 22.394C112.765 20.0736 112.765 17.7532 112.765 15.4328C112.765 13.3751 112.96 11.5582 113.349 9.98209C113.782 8.36219 114.323 6.98309 114.973 5.84478C115.016 5.75721 115.059 5.66965 115.103 5.58209C115.146 5.49453 115.211 5.40697 115.298 5.3194C115.86 4.4 116.618 3.54627 117.571 2.75821C118.523 1.92637 119.497 1.40099 120.493 1.18209C120.623 1.18209 120.753 1.18209 120.883 1.18209C121.056 1.13831 121.229 1.11642 121.402 1.11642C122.052 1.11642 122.658 1.29154 123.221 1.64179C123.827 1.99204 124.346 2.60498 124.779 3.4806C125.082 4.04975 125.299 4.6408 125.429 5.25373C125.559 5.86667 125.645 6.50149 125.689 7.15821C125.732 7.28955 125.754 7.44279 125.754 7.61791C125.754 7.74925 125.754 7.90249 125.754 8.07761C125.754 8.60299 125.732 9.10647 125.689 9.58806C125.645 10.0697 125.58 10.5512 125.494 11.0328C125.191 13.2219 124.563 15.3672 123.61 17.4687C122.658 19.5701 121.467 21.4527 120.038 23.1164L120.103 34.3463C120.406 33.6896 120.71 33.0547 121.013 32.4418C121.359 31.7851 121.684 31.1284 121.987 30.4716C122.29 29.8149 122.593 29.1801 122.896 28.5672C123.242 27.9104 123.567 27.2537 123.87 26.597C124.217 25.8527 124.693 25.2179 125.299 24.6925C125.905 24.1672 126.619 23.9045 127.442 23.9045C127.529 23.9045 127.615 23.9045 127.702 23.9045C127.832 23.9045 127.94 23.9264 128.027 23.9701C128.633 24.0577 129.174 24.3204 129.65 24.7582C130.17 25.196 130.451 25.7214 130.495 26.3343C130.581 27.3851 130.668 28.4577 130.754 29.5522C130.884 30.603 130.992 31.6537 131.079 32.7045C131.166 33.7552 131.252 34.8279 131.339 35.9224C131.469 36.9731 131.577 38.0239 131.664 39.0746C132.14 38.2866 132.616 37.4985 133.092 36.7104C133.612 35.8786 134.131 35.0687 134.651 34.2806C135.127 33.4925 135.603 32.7045 136.08 31.9164C136.599 31.0846 137.097 30.2746 137.573 29.4866C137.703 29.2677 137.833 29.1144 137.963 29.0269C138.136 28.9393 138.309 28.9174 138.483 28.9612C138.699 28.9612 138.894 29.0706 139.067 29.2896C139.24 29.4647 139.327 29.6836 139.327 29.9463C139.327 29.99 139.305 30.0776 139.262 30.209C139.262 30.2965 139.219 30.3841 139.132 30.4716ZM123.87 8.20896C123.87 8.07761 123.849 7.79304 123.805 7.35523C123.762 6.87363 123.697 6.37015 123.61 5.84478C123.481 5.27562 123.307 4.75025 123.091 4.26866C122.918 3.74329 122.658 3.4806 122.312 3.4806C121.705 3.4806 121.229 3.87463 120.883 4.66269C120.58 5.40697 120.342 6.23881 120.168 7.15821C120.082 7.85871 120.017 8.53732 119.974 9.19403C119.93 9.85075 119.909 10.3104 119.909 10.5731C119.909 11.3612 119.909 12.1711 119.909 13.003C119.952 13.791 119.974 14.5791 119.974 15.3672C119.974 16.1552 119.974 16.9652 119.974 17.797C119.974 18.5851 119.974 19.3731 119.974 20.1612C121.013 18.6726 121.857 17.0308 122.506 15.2358C123.199 13.4408 123.632 11.6239 123.805 9.78508C123.805 9.52239 123.805 9.2597 123.805 8.99701C123.849 8.73433 123.87 8.47164 123.87 8.20896Z" fill="black"/>
<path d="M161.227 29.6836C161.14 29.8149 161.054 29.9463 160.967 30.0776C160.924 30.1652 160.859 30.2527 160.772 30.3403C159.82 31.6537 158.586 32.8577 157.07 33.9522C155.598 35.0468 154.04 35.594 152.394 35.594C152.351 35.594 152.286 35.594 152.2 35.594C152.156 35.594 152.113 35.5721 152.07 35.5284C151.983 35.5284 151.918 35.5284 151.875 35.5284C151.832 35.5284 151.767 35.5284 151.68 35.5284C151.377 36.3602 151.009 37.1483 150.576 37.8925C150.186 38.6368 149.71 39.3592 149.147 40.0597C148.411 40.9353 147.567 41.6577 146.614 42.2269C145.705 42.796 144.774 43.1244 143.822 43.2119C143.692 43.2557 143.562 43.2776 143.432 43.2776C143.346 43.2776 143.237 43.2776 143.107 43.2776C142.198 43.2776 141.311 43.0368 140.445 42.5552C139.579 42.0736 138.821 41.3075 138.172 40.2567C137.609 39.3811 137.197 38.4617 136.938 37.4985C136.721 36.5353 136.613 35.5284 136.613 34.4776C136.613 34.2587 136.613 34.0398 136.613 33.8209C136.656 33.5582 136.678 33.3174 136.678 33.0985C136.851 31.5224 137.241 30.0119 137.847 28.5672C138.453 27.0786 139.232 25.809 140.185 24.7582C141.051 23.7512 142.003 22.9851 143.042 22.4597C144.082 21.8905 145.164 21.606 146.29 21.606C148.325 21.606 149.84 22.3721 150.836 23.9045C151.832 25.4368 152.416 27.1005 152.589 28.8955C152.589 29.0269 152.589 29.1582 152.589 29.2896C152.589 29.3771 152.589 29.4866 152.589 29.6179C152.589 29.9244 152.589 30.2527 152.589 30.603C152.589 30.9532 152.568 31.3035 152.524 31.6537C152.524 32.004 152.481 32.3542 152.394 32.7045C152.351 33.0109 152.286 33.3393 152.2 33.6896C152.243 33.6896 152.286 33.6896 152.33 33.6896C152.416 33.6896 152.481 33.6896 152.524 33.6896C153.693 33.6896 154.819 33.3174 155.901 32.5731C157.027 31.7851 157.958 30.9313 158.694 30.0119C158.911 29.793 159.084 29.5741 159.214 29.3552C159.387 29.1363 159.538 28.9174 159.668 28.6985C159.755 28.5234 159.863 28.4139 159.993 28.3701C160.166 28.2826 160.339 28.2388 160.512 28.2388C160.772 28.2388 160.989 28.3264 161.162 28.5015C161.335 28.6766 161.422 28.8955 161.422 29.1582C161.422 29.202 161.4 29.2896 161.357 29.4209C161.357 29.5085 161.313 29.596 161.227 29.6836ZM149.472 35.397C149.688 35.2219 149.84 35.003 149.927 34.7403C150.013 34.4776 150.056 34.193 150.056 33.8866C150.056 33.6239 150.035 33.3612 149.992 33.0985C149.948 32.8358 149.883 32.5512 149.797 32.2448C149.667 31.9383 149.537 31.6318 149.407 31.3254C149.277 31.0189 149.147 30.7124 149.017 30.406C148.844 30.1433 148.693 29.9025 148.563 29.6836C148.433 29.4647 148.325 29.2896 148.238 29.1582C148.108 28.9831 147.935 28.7642 147.718 28.5015C147.502 28.2388 147.242 27.9761 146.939 27.7134C146.679 27.4507 146.398 27.2099 146.095 26.991C145.792 26.7284 145.489 26.5095 145.186 26.3343C144.926 26.203 144.666 26.0935 144.406 26.006C144.147 25.9184 143.908 25.8746 143.692 25.8746C143.519 25.9184 143.346 25.9622 143.172 26.006C143.042 26.0498 142.913 26.1154 142.783 26.203C142.566 26.3781 142.393 26.597 142.263 26.8597C142.177 27.1224 142.155 27.4289 142.198 27.7791C142.198 27.998 142.22 28.2388 142.263 28.5015C142.306 28.7204 142.35 28.9612 142.393 29.2239C142.523 29.5741 142.653 29.9463 142.783 30.3403C142.913 30.6905 143.064 31.0189 143.237 31.3254C143.367 31.5881 143.497 31.8289 143.627 32.0478C143.757 32.2229 143.865 32.3761 143.952 32.5075C144.082 32.6826 144.255 32.9015 144.471 33.1642C144.731 33.4269 144.991 33.6896 145.251 33.9522C145.554 34.2149 145.857 34.4776 146.16 34.7403C146.506 34.9592 146.853 35.1562 147.199 35.3313C147.415 35.4627 147.632 35.5721 147.848 35.6597C148.108 35.7035 148.346 35.7254 148.563 35.7254C148.736 35.6816 148.887 35.6378 149.017 35.594C149.191 35.5502 149.342 35.4846 149.472 35.397Z" fill="black"/>
<path d="M199.217 30.6687C199.087 31.2378 198.654 32.1134 197.918 33.2955C197.182 34.4338 196.316 35.6378 195.32 36.9075C194.714 37.6517 194.065 38.396 193.372 39.1403C192.722 39.8408 192.051 40.4975 191.359 41.1104C191.272 41.198 191.164 41.2856 191.034 41.3731C190.947 41.4607 190.861 41.5483 190.774 41.6358C190.687 41.7234 190.579 41.8109 190.449 41.8985C190.319 41.9861 190.211 42.0736 190.125 42.1612C189.648 42.5114 189.129 42.8398 188.566 43.1463C188.003 43.4527 187.419 43.6935 186.812 43.8687C186.639 43.9124 186.444 43.9562 186.228 44C186.055 44 185.882 44 185.708 44C185.362 44 185.016 43.9562 184.669 43.8687C184.366 43.7373 184.041 43.5403 183.695 43.2776C183.262 42.8836 182.894 42.3363 182.591 41.6358C182.331 40.9353 182.158 40.0378 182.071 38.9433C181.942 37.805 181.812 36.6667 181.682 35.5284C181.595 34.3463 181.509 33.1861 181.422 32.0478L178.11 38.8776L178.305 43.2776H170.836L170.252 31.9821L164.342 43.2776H158.627C158.54 40.0816 158.453 36.8856 158.367 33.6896C158.324 30.4935 158.259 27.2975 158.172 24.1015L165.835 24.5612L166.03 36.1194C166.463 35.3313 166.875 34.5433 167.264 33.7552C167.697 32.9234 168.13 32.1134 168.563 31.3254C168.953 30.5373 169.342 29.7493 169.732 28.9612C170.165 28.1294 170.598 27.3194 171.031 26.5313C171.421 25.7871 171.919 25.1741 172.525 24.6925C173.174 24.1672 173.91 23.9045 174.733 23.9045C174.819 23.9045 174.906 23.9045 174.993 23.9045C175.122 23.9045 175.231 23.9264 175.317 23.9701C175.923 24.1015 176.443 24.3861 176.876 24.8239C177.352 25.2617 177.612 25.7871 177.655 26.4C177.655 27.1005 177.655 27.8229 177.655 28.5672C177.699 29.2677 177.742 29.9682 177.785 30.6687C177.828 31.4129 177.85 32.1353 177.85 32.8358C177.893 33.5363 177.937 34.2587 177.98 35.003C178.673 33.602 179.344 32.201 179.993 30.8C180.686 29.3552 181.379 27.9542 182.071 26.597C182.418 25.809 182.937 25.1741 183.63 24.6925C184.323 24.1672 185.037 23.9045 185.773 23.9045C186.12 23.9045 186.466 23.9701 186.812 24.1015C187.159 24.2328 187.484 24.4299 187.787 24.6925C188.003 24.8677 188.176 25.0647 188.306 25.2836C188.436 25.5025 188.544 25.7433 188.631 26.006C188.631 26.0498 188.631 26.1154 188.631 26.203C188.674 26.2468 188.696 26.2905 188.696 26.3343C188.912 28.6109 189.107 30.8876 189.28 33.1642C189.497 35.397 189.713 37.6517 189.93 39.9284C190.579 39.3592 191.229 38.7463 191.878 38.0896C192.528 37.4328 193.134 36.7542 193.697 36.0537C194.692 34.8279 195.537 33.6896 196.229 32.6388C196.922 31.5443 197.312 30.7562 197.398 30.2746C197.442 30.0557 197.528 29.9025 197.658 29.8149C197.788 29.6836 197.918 29.596 198.048 29.5522C198.091 29.5522 198.113 29.5522 198.113 29.5522C198.156 29.5522 198.199 29.5522 198.243 29.5522C198.502 29.5522 198.719 29.6398 198.892 29.8149C199.109 29.99 199.217 30.209 199.217 30.4716C199.217 30.5154 199.217 30.5592 199.217 30.603C199.217 30.603 199.217 30.6249 199.217 30.6687Z" fill="black"/>
<path d="M236.636 30.6687C236.506 31.2378 236.073 32.1134 235.337 33.2955C234.601 34.4338 233.735 35.6378 232.739 36.9075C232.133 37.6517 231.484 38.396 230.791 39.1403C230.141 39.8408 229.47 40.4975 228.778 41.1104C228.691 41.198 228.583 41.2856 228.453 41.3731C228.366 41.4607 228.28 41.5483 228.193 41.6358C228.107 41.7234 227.998 41.8109 227.868 41.8985C227.739 41.9861 227.63 42.0736 227.544 42.1612C227.067 42.5114 226.548 42.8398 225.985 43.1463C225.422 43.4527 224.838 43.6935 224.232 43.8687C224.058 43.9124 223.864 43.9562 223.647 44C223.474 44 223.301 44 223.127 44C222.781 44 222.435 43.9562 222.088 43.8687C221.785 43.7373 221.461 43.5403 221.114 43.2776C220.681 42.8836 220.313 42.3363 220.01 41.6358C219.75 40.9353 219.577 40.0378 219.491 38.9433C219.361 37.805 219.231 36.6667 219.101 35.5284C219.014 34.3463 218.928 33.1861 218.841 32.0478L215.529 38.8776L215.724 43.2776H208.255L207.671 31.9821L201.761 43.2776H196.046C195.959 40.0816 195.872 36.8856 195.786 33.6896C195.743 30.4935 195.678 27.2975 195.591 24.1015L203.255 24.5612L203.449 36.1194C203.882 35.3313 204.294 34.5433 204.683 33.7552C205.116 32.9234 205.549 32.1134 205.982 31.3254C206.372 30.5373 206.762 29.7493 207.151 28.9612C207.584 28.1294 208.017 27.3194 208.45 26.5313C208.84 25.7871 209.338 25.1741 209.944 24.6925C210.593 24.1672 211.329 23.9045 212.152 23.9045C212.238 23.9045 212.325 23.9045 212.412 23.9045C212.542 23.9045 212.65 23.9264 212.736 23.9701C213.343 24.1015 213.862 24.3861 214.295 24.8239C214.771 25.2617 215.031 25.7871 215.074 26.4C215.074 27.1005 215.074 27.8229 215.074 28.5672C215.118 29.2677 215.161 29.9682 215.204 30.6687C215.248 31.4129 215.269 32.1353 215.269 32.8358C215.312 33.5363 215.356 34.2587 215.399 35.003C216.092 33.602 216.763 32.201 217.412 30.8C218.105 29.3552 218.798 27.9542 219.491 26.597C219.837 25.809 220.357 25.1741 221.049 24.6925C221.742 24.1672 222.456 23.9045 223.192 23.9045C223.539 23.9045 223.885 23.9701 224.232 24.1015C224.578 24.2328 224.903 24.4299 225.206 24.6925C225.422 24.8677 225.595 25.0647 225.725 25.2836C225.855 25.5025 225.963 25.7433 226.05 26.006C226.05 26.0498 226.05 26.1154 226.05 26.203C226.093 26.2468 226.115 26.2905 226.115 26.3343C226.331 28.6109 226.526 30.8876 226.699 33.1642C226.916 35.397 227.132 37.6517 227.349 39.9284C227.998 39.3592 228.648 38.7463 229.297 38.0896C229.947 37.4328 230.553 36.7542 231.116 36.0537C232.111 34.8279 232.956 33.6896 233.648 32.6388C234.341 31.5443 234.731 30.7562 234.817 30.2746C234.861 30.0557 234.947 29.9025 235.077 29.8149C235.207 29.6836 235.337 29.596 235.467 29.5522C235.51 29.5522 235.532 29.5522 235.532 29.5522C235.575 29.5522 235.618 29.5522 235.662 29.5522C235.922 29.5522 236.138 29.6398 236.311 29.8149C236.528 29.99 236.636 30.209 236.636 30.4716C236.636 30.5154 236.636 30.5592 236.636 30.603C236.636 30.603 236.636 30.6249 236.636 30.6687Z" fill="black"/>
<path d="M247.038 31.2597C245.826 33.2736 244.592 35.2876 243.336 37.3015C242.081 39.2716 240.825 41.2637 239.57 43.2776H234.569C234.526 41.7015 234.482 40.1473 234.439 38.6149C234.396 37.0388 234.374 35.4627 234.374 33.8866C234.331 32.3542 234.287 30.8219 234.244 29.2896C234.201 27.7134 234.158 26.1373 234.114 24.5612C235.37 23.9483 236.604 23.3353 237.816 22.7224C239.072 22.1095 240.306 21.5184 241.518 20.9493C241.518 22.2627 241.518 23.5761 241.518 24.8896C241.518 26.1592 241.518 27.4507 241.518 28.7642C241.518 30.0776 241.518 31.391 241.518 32.7045C241.561 33.9741 241.583 35.2657 241.583 36.5791C242.232 35.5284 242.882 34.4776 243.531 33.4269C244.181 32.3761 244.83 31.3254 245.479 30.2746C245.566 30.0995 245.674 29.99 245.804 29.9463C245.977 29.8587 246.151 29.8149 246.324 29.8149C246.584 29.8149 246.8 29.9025 246.973 30.0776C247.146 30.2527 247.233 30.4716 247.233 30.7343C247.233 30.7781 247.211 30.8657 247.168 30.997C247.168 31.0846 247.125 31.1721 247.038 31.2597ZM243.271 13.3313C243.271 14.7761 242.773 16.0239 241.778 17.0746C240.782 18.0816 239.57 18.5851 238.141 18.5851C236.712 18.5851 235.478 18.0816 234.439 17.0746C233.443 16.0239 232.945 14.7761 232.945 13.3313C232.945 11.8866 233.443 10.6607 234.439 9.65373C235.478 8.60299 236.712 8.07761 238.141 8.07761C239.57 8.07761 240.782 8.60299 241.778 9.65373C242.773 10.6607 243.271 11.8866 243.271 13.3313Z" fill="black"/>
<path d="M266.305 29.4866C266.262 29.7493 266.218 30.0338 266.175 30.3403C266.132 30.603 266.088 30.8657 266.045 31.1284C265.266 34.1493 263.577 36.9294 260.979 39.4687C258.425 42.008 255.567 43.2776 252.407 43.2776C252.363 43.2776 252.298 43.2776 252.212 43.2776C252.125 43.2776 252.039 43.2557 251.952 43.2119C251.909 43.2119 251.844 43.2119 251.757 43.2119C251.671 43.2119 251.584 43.2119 251.498 43.2119C249.506 43.0368 247.882 42.0517 246.627 40.2567C245.371 38.4179 244.765 36.1632 244.808 33.4925C244.808 33.3612 244.808 33.2299 244.808 33.0985C244.808 32.9234 244.808 32.7701 244.808 32.6388C244.808 32.5075 244.808 32.3761 244.808 32.2448C244.852 32.0697 244.873 31.9164 244.873 31.7851C245.003 30.2965 245.349 28.9174 245.912 27.6478C246.475 26.3343 247.146 25.196 247.926 24.2328C248.012 24.1453 248.099 24.0577 248.185 23.9701C248.272 23.8388 248.359 23.7294 248.445 23.6418C249.181 22.8099 250.025 22.0657 250.978 21.409C251.93 20.7522 252.948 20.4239 254.03 20.4239C254.16 20.4239 254.29 20.4239 254.42 20.4239C254.55 20.4239 254.68 20.4458 254.81 20.4896C255.935 20.7522 256.78 21.3433 257.342 22.2627C257.905 23.1383 258.252 24.0796 258.382 25.0866C258.382 25.2617 258.382 25.4587 258.382 25.6776C258.425 25.8527 258.447 26.0279 258.447 26.203C258.447 26.597 258.425 27.0129 258.382 27.4507C258.338 27.8448 258.273 28.2607 258.187 28.6985C257.884 30.0995 257.321 31.4348 256.498 32.7045C255.719 33.9741 254.723 34.9592 253.511 35.6597C253.9 35.9224 254.29 36.1413 254.68 36.3164C255.113 36.4915 255.546 36.6229 255.979 36.7104C256.195 36.7542 256.39 36.798 256.563 36.8418C256.78 36.8418 256.996 36.8418 257.213 36.8418C258.079 36.798 258.923 36.601 259.745 36.2507C260.568 35.9005 261.326 35.3751 262.018 34.6746C262.711 34.0179 263.274 33.2299 263.707 32.3104C264.14 31.391 264.4 30.3841 264.486 29.2896C264.53 28.9831 264.638 28.7642 264.811 28.6328C265.028 28.4577 265.244 28.3701 265.461 28.3701C265.504 28.3701 265.547 28.392 265.59 28.4358C265.634 28.4358 265.655 28.4358 265.655 28.4358C265.829 28.4796 265.98 28.5672 266.11 28.6985C266.283 28.8299 266.348 29.0269 266.305 29.2896C266.305 29.3333 266.305 29.3771 266.305 29.4209C266.305 29.4209 266.305 29.4428 266.305 29.4866ZM254.42 26.991C254.42 26.8597 254.398 26.6846 254.355 26.4657C254.355 26.2468 254.333 26.0279 254.29 25.809C254.16 25.4149 253.987 25.0647 253.771 24.7582C253.554 24.408 253.251 24.2328 252.861 24.2328C252.039 24.2328 251.433 24.5393 251.043 25.1522C250.653 25.7214 250.393 26.3781 250.264 27.1224C250.22 27.3413 250.177 27.5602 250.134 27.7791C250.09 27.998 250.069 28.195 250.069 28.3701C250.069 28.4139 250.069 28.4796 250.069 28.5672C250.069 28.6109 250.069 28.6766 250.069 28.7642C250.025 28.808 250.004 28.8736 250.004 28.9612C250.004 29.005 250.004 29.0706 250.004 29.1582C250.047 29.99 250.199 30.8 250.458 31.5881C250.718 32.3761 251.065 33.0985 251.498 33.7552C252.234 33.0547 252.84 32.2229 253.316 31.2597C253.836 30.2965 254.16 29.3114 254.29 28.3045C254.333 28.0856 254.355 27.8667 254.355 27.6478C254.398 27.4289 254.42 27.2099 254.42 26.991Z" fill="black"/>
<path d="M280.675 32.7045C279.376 34.0617 278.078 35.4189 276.779 36.7761C275.48 38.1333 274.202 39.4905 272.947 40.8478C272.297 41.5483 271.561 42.1174 270.739 42.5552C269.959 42.9493 269.158 43.19 268.336 43.2776C268.206 43.3214 268.076 43.3433 267.946 43.3433C267.86 43.3433 267.751 43.3433 267.621 43.3433C266.669 43.3433 265.781 43.1025 264.959 42.6209C264.136 42.1393 263.443 41.3512 262.881 40.2567L264.829 34.9373C265.565 35.9881 266.323 36.995 267.102 37.9582C267.881 38.8776 268.834 39.6657 269.959 40.3224C270.046 40.0159 270.133 39.7095 270.219 39.403C270.306 39.0965 270.371 38.7901 270.414 38.4836C270.457 38.2209 270.479 37.9363 270.479 37.6298C270.522 37.3234 270.544 37.0169 270.544 36.7104C270.501 35.2219 270.154 33.8647 269.505 32.6388C268.855 31.3692 267.816 30.4279 266.388 29.8149C266.301 29.9463 266.214 30.0776 266.128 30.209C266.041 30.2965 265.933 30.406 265.803 30.5373C265.803 30.5373 265.781 30.5592 265.738 30.603C265.738 30.603 265.738 30.6249 265.738 30.6687C265.392 31.1502 265.045 31.61 264.699 32.0478C264.396 32.4856 264.136 32.8358 263.92 33.0985L262.361 32.1134C262.621 31.8507 262.881 31.5224 263.14 31.1284C263.443 30.6905 263.768 30.2527 264.114 29.8149C264.158 29.7711 264.179 29.7274 264.179 29.6836C264.266 29.6398 264.331 29.5741 264.374 29.4866C264.418 29.399 264.461 29.3333 264.504 29.2896C264.331 29.2458 264.158 29.2239 263.985 29.2239C263.855 29.1801 263.682 29.1363 263.465 29.0925L267.297 20.5552C267.816 20.7303 268.314 20.9055 268.79 21.0806C269.267 21.2557 269.721 21.4965 270.154 21.803C271.713 22.81 272.817 24.1672 273.466 25.8746C274.159 27.5383 274.506 29.2896 274.506 31.1284C274.506 31.2597 274.506 31.4129 274.506 31.5881C274.506 31.7194 274.506 31.8507 274.506 31.9821C274.419 33.0766 274.224 34.1711 273.921 35.2657C273.661 36.3164 273.315 37.3015 272.882 38.2209C273.402 37.6517 273.921 37.0826 274.441 36.5134C275.003 35.9443 275.566 35.3751 276.129 34.806C276.649 34.2806 277.168 33.7333 277.688 33.1642C278.251 32.595 278.792 32.0259 279.311 31.4567C279.441 31.3254 279.571 31.2378 279.701 31.194C279.831 31.1502 279.961 31.1284 280.091 31.1284C280.351 31.1284 280.567 31.2378 280.74 31.4567C280.913 31.6318 281 31.8289 281 32.0478C280.957 32.1791 280.913 32.3105 280.87 32.4418C280.827 32.5294 280.762 32.6169 280.675 32.7045Z" fill="black"/>
</svg>
