<svg xmlns="http://www.w3.org/2000/svg" width="21.3" height="21.3" viewBox="0 0 21.3 21.3">
  <g id="email" transform="translate(-5261 4132)">
    <path id="Subtraction_2" data-name="Subtraction 2" d="M2907.65-4375.7a10.662,10.662,0,0,1-10.65-10.65,10.662,10.662,0,0,1,10.65-10.65,10.58,10.58,0,0,1,7.531,3.122,10.58,10.58,0,0,1,3.119,7.53,10.578,10.578,0,0,1-3.118,7.53A10.583,10.583,0,0,1,2907.65-4375.7Zm-6.494-12.039a.144.144,0,0,0-.067.015.158.158,0,0,0-.088.141v5.307a1.249,1.249,0,0,0,1.247,1.247h10.8a1.246,1.246,0,0,0,1.246-1.247v-5.31a.154.154,0,0,0-.087-.139.149.149,0,0,0-.069-.017.156.156,0,0,0-.1.035c-.587.456-1.4,1.062-3.993,2.952a4.629,4.629,0,0,1-2.4,1.234,4.632,4.632,0,0,1-2.4-1.235c-2.7-1.961-3.44-2.514-4-2.95a.159.159,0,0,0-.086-.035Zm1.092-3.261a1.251,1.251,0,0,0-1.247,1.247v.492a.62.62,0,0,0,.239.492l.137.106c.706.554,1.13.887,4.363,3.234.071.051.154.116.243.184l.017.013a3.526,3.526,0,0,0,1.637.879h.022a3.56,3.56,0,0,0,1.639-.881l.018-.014c.087-.067.169-.13.238-.18,3.284-2.384,3.678-2.694,4.392-3.257l.108-.084a.623.623,0,0,0,.24-.491v-.492a1.25,1.25,0,0,0-1.246-1.248Z" transform="translate(2364 265)" fill="#d63f3f"/>
  </g>
</svg>
