<?xml version="1.0" encoding="utf-8"?>
<svg width="21.297" height="21.303" viewBox="0 0 21.297 21.303" xmlns="http://www.w3.org/2000/svg">
  <path id="github" d="M10.652.5A10.788,10.788,0,0,0,0,11.422,10.9,10.9,0,0,0,7.283,21.785c.533.1.728-.235.728-.525C8.011,21,8,20.313,8,19.4c-2.963.659-3.588-1.465-3.588-1.465a2.879,2.879,0,0,0-1.185-1.6c-.965-.677.075-.663.075-.663A2.239,2.239,0,0,1,4.931,16.8a2.239,2.239,0,0,0,3.1.909,2.35,2.35,0,0,1,.675-1.461c-2.366-.273-4.852-1.212-4.852-5.4a4.273,4.273,0,0,1,1.1-2.931,3.975,3.975,0,0,1,.093-2.891s.892-.293,2.929,1.12a9.8,9.8,0,0,1,5.326,0c2.024-1.412,2.916-1.12,2.916-1.12a4.085,4.085,0,0,1,.107,2.891,4.291,4.291,0,0,1,1.092,2.931c0,4.2-2.49,5.119-4.86,5.388a2.651,2.651,0,0,1,.719,2.021c0,1.462-.013,2.636-.013,2.991,0,.286.186.628.732.519a10.864,10.864,0,0,0,7.3-10.345A10.79,10.79,0,0,0,10.652.5Z" transform="translate(0.001 -0.5)" style="fill: rgba(0, 102, 255, 0.8);"/>
</svg>