<?xml version="1.0" encoding="utf-8"?>
<svg width="21.772" height="21.772" viewBox="0 0 21.772 21.772" xmlns="http://www.w3.org/2000/svg">
  <g id="instagram" transform="translate(-0.128 0)">
    <path id="Path_6" data-name="Path 6" d="M211.1,209.049A2.049,2.049,0,1,1,209.049,207a2.049,2.049,0,0,1,2.051,2.049Zm0,0" transform="translate(-198.099 -198.164)" style="fill: rgba(0, 102, 255, 0.8);"/>
    <path id="Path_7" data-name="Path 7" d="M145.318,136.9a2.036,2.036,0,0,0-1.167-1.167,3.4,3.4,0,0,0-1.141-.212c-.648-.03-.843-.036-2.484-.036s-1.836.006-2.484.036a3.4,3.4,0,0,0-1.141.212,2.037,2.037,0,0,0-1.167,1.167,3.4,3.4,0,0,0-.212,1.142c-.03.648-.036.843-.036,2.484s.006,1.836.036,2.484a3.4,3.4,0,0,0,.212,1.141,2.036,2.036,0,0,0,1.167,1.167,3.4,3.4,0,0,0,1.142.212c.648.03.842.036,2.484.036s1.836-.006,2.484-.036a3.4,3.4,0,0,0,1.142-.212,2.036,2.036,0,0,0,1.167-1.167,3.4,3.4,0,0,0,.212-1.141c.03-.648.036-.843.036-2.484s-.006-1.836-.036-2.484A3.4,3.4,0,0,0,145.318,136.9Zm-4.793,6.783a3.157,3.157,0,1,1,3.157-3.157,3.157,3.157,0,0,1-3.157,3.157Zm3.282-5.7a.735.735,0,1,1,.523-.215.735.735,0,0,1-.523.215Zm0,0" transform="translate(-129.575 -129.643)" style="fill: rgba(0, 102, 255, 0.8);"/>
    <path id="Path_8" data-name="Path 8" d="M10.95,0a10.886,10.886,0,1,0,7.739,3.166A10.886,10.886,0,0,0,10.95,0ZM17.2,13.463a4.562,4.562,0,0,1-.292,1.517,3.206,3.206,0,0,1-1.839,1.828,4.64,4.64,0,0,1-1.526.291c-.671.03-.885.038-2.592.038S9.029,17.13,8.359,17.1a4.64,4.64,0,0,1-1.526-.291,3.206,3.206,0,0,1-1.84-1.828A4.561,4.561,0,0,1,4.7,13.463c-.031-.667-.038-.88-.038-2.577s.007-1.91.038-2.577a4.563,4.563,0,0,1,.292-1.517A3.208,3.208,0,0,1,6.831,4.963a4.641,4.641,0,0,1,1.526-.291c.671-.03.885-.038,2.592-.038s1.922.007,2.592.038a4.642,4.642,0,0,1,1.526.29A3.207,3.207,0,0,1,16.906,6.79,4.562,4.562,0,0,1,17.2,8.308c.031.667.038.879.038,2.577S17.23,12.8,17.2,13.463Zm0,0" style="fill: rgba(0, 102, 255, 0.8);"/>
  </g>
</svg>