<svg xmlns="http://www.w3.org/2000/svg" width="21.3" height="21.3" viewBox="0 0 21.3 21.3">
  <g id="Group_1" data-name="Group 1" transform="translate(-2317 -264)">
    <g id="paint" transform="translate(-2710 4396)">
      <path id="Subtraction_1" data-name="Subtraction 1" d="M2719.65-4371.7a10.662,10.662,0,0,1-10.65-10.65,10.662,10.662,0,0,1,10.65-10.65,10.663,10.663,0,0,1,10.65,10.649A10.662,10.662,0,0,1,2719.65-4371.7Zm-1.677-17.3a6.952,6.952,0,0,0-5.273,2.458,6.923,6.923,0,0,0-1.622,5.56c.021.147.051.306.094.5a6.2,6.2,0,0,0,3.46,4.535,3.233,3.233,0,0,0,1.26.265,2.8,2.8,0,0,0,2.475-1.516,3.278,3.278,0,0,0,.394-1.128,2.8,2.8,0,0,0-.011-.667,2.457,2.457,0,0,1-.01-.647.865.865,0,0,1,.863-.784h.051a1.385,1.385,0,0,1,.428.068c-.172.314-.321.6-.454.875a8.863,8.863,0,0,0-.579,1.421c-.062.226-.229.827.177,1.108a.607.607,0,0,0,.339.1.63.63,0,0,0,.125-.014c.154-.027.621-.115,1.953-1.628.366-.417.751-.889,1.143-1.4a3.081,3.081,0,0,0,2.049-2.207,3.329,3.329,0,0,0,.065-.792c.4-.622.739-1.179,1.066-1.752l.019-.035a1.875,1.875,0,0,0,1.172-1.06,3.634,3.634,0,0,0-.077-2.846.229.229,0,0,0-.185-.146h-.027a.232.232,0,0,0-.188.1,2.015,2.015,0,0,1-1.1.693,4.117,4.117,0,0,0-1.114.54,1.423,1.423,0,0,0-.686,1.463l-.014.017a7.476,7.476,0,0,0-.754-.929,7.015,7.015,0,0,0-4.8-2.156Zm1.915,11.073h0a10.162,10.162,0,0,1,.639-1.468,36.71,36.71,0,0,1,2.233-3.7c.473-.7.992-1.419,1.5-2.084a2.632,2.632,0,0,0,.267.21,2,2,0,0,0,.5.257c-.42.718-.868,1.422-1.407,2.217a36.6,36.6,0,0,1-2.611,3.435,9.946,9.946,0,0,1-1.118,1.131Zm-5.952-1.547a.965.965,0,0,1-.947-.755.973.973,0,0,1,.126-.733.961.961,0,0,1,.823-.455.979.979,0,0,1,.347.064.973.973,0,0,1,.611,1.069.973.973,0,0,1-.932.809Zm.2-3.628a.975.975,0,0,1-.941-.729.972.972,0,0,1,.472-1.1.973.973,0,0,1,.469-.121.972.972,0,0,1,.708.3.97.97,0,0,1,.116,1.185.964.964,0,0,1-.83.461Zm6.543-1.3a.967.967,0,0,1-.347-.062.975.975,0,0,1-.612-1.071.976.976,0,0,1,.932-.808h.025a.965.965,0,0,1,.949.756.977.977,0,0,1-.124.733.97.97,0,0,1-.822.456Zm-3.626-.842a.967.967,0,0,1-.949-.757.969.969,0,0,1,.125-.732.962.962,0,0,1,.823-.456.943.943,0,0,1,.346.063.975.975,0,0,1,.612,1.072.977.977,0,0,1-.932.808Z" transform="translate(2318 261)" fill="#06f"/>
    </g>
  </g>
</svg>
