<svg xmlns="http://www.w3.org/2000/svg" width="21.9" height="21.901" viewBox="0 0 21.9 21.901">
  <g id="slide" transform="translate(-5221 4134.001)">
    <path id="Subtraction_3" data-name="Subtraction 3" d="M2835.95-4377.1a10.875,10.875,0,0,1-7.743-3.207,10.879,10.879,0,0,1-3.207-7.743,10.879,10.879,0,0,1,3.207-7.743,10.879,10.879,0,0,1,7.743-3.208,10.878,10.878,0,0,1,7.743,3.208,10.881,10.881,0,0,1,3.207,7.743,10.877,10.877,0,0,1-3.207,7.743A10.873,10.873,0,0,1,2835.95-4377.1Zm-.093-7.774h0c.153.036.27.065.383.1v2.622a1.468,1.468,0,0,0,.383,1.1,1.541,1.541,0,0,0,1.122.435,2.436,2.436,0,0,0,1.915-1.019,4.493,4.493,0,0,0,.353-3.991,7.57,7.57,0,0,0,2.979-2.021.468.468,0,0,0,.065-.471.253.253,0,0,0-.231-.137.5.5,0,0,0-.28.1c-.037.028-.075.054-.113.079l-.012.008-.042.028v-5.557a1.339,1.339,0,0,0-.356-.969,1.339,1.339,0,0,0-.94-.432h-10.072a1.34,1.34,0,0,0-.937.432,1.34,1.34,0,0,0-.358.968v5.56l-.042-.028-.131-.091a.506.506,0,0,0-.28-.1.254.254,0,0,0-.231.137.464.464,0,0,0,.064.466,7.607,7.607,0,0,0,2.979,2.021,4.5,4.5,0,0,0,.356,3.992,2.435,2.435,0,0,0,1.912,1.017,1.537,1.537,0,0,0,1.121-.434,1.47,1.47,0,0,0,.383-1.1c0-.165,0-1.644,0-2.71Zm.387-1.221h0a4.959,4.959,0,0,1-.49-.4l-.079-.071a.934.934,0,0,0-.613-.229.879.879,0,0,0-.148.013,7.727,7.727,0,0,1-.863.048,8.015,8.015,0,0,1-3.562-.841v-5.4c0-1,.257-1.283,1.145-1.283h8.915c.836,0,1.147.348,1.147,1.283v5.351a7.963,7.963,0,0,1-3.633.882,7.92,7.92,0,0,1-.874-.048h-.1c-.531,0-.806.227-.843.694Zm1.975-4.589h-.056a1.63,1.63,0,0,0-1.514,1.691,1.619,1.619,0,0,0,1.62,1.551h.038a1.631,1.631,0,0,0,1.586-1.624,1.67,1.67,0,0,0-1.674-1.624Zm-4.086,0a1.68,1.68,0,0,0-1.731,1.618,1.68,1.68,0,0,0,1.731,1.62,1.68,1.68,0,0,0,1.731-1.62,1.679,1.679,0,0,0-1.734-1.624Z" transform="translate(2396 265)" fill="#d63f3f"/>
  </g>
</svg>
