<svg xmlns="http://www.w3.org/2000/svg" width="21.301" height="21.3" viewBox="0 0 21.301 21.3">
  <g id="email" transform="translate(-5261 4132)">
    <path id="Subtraction_2" data-name="Subtraction 2" d="M2907.649-4375.7a10.662,10.662,0,0,1-10.65-10.65,10.662,10.662,0,0,1,10.65-10.65,10.582,10.582,0,0,1,7.531,3.12,10.579,10.579,0,0,1,3.119,7.53,10.579,10.579,0,0,1-3.119,7.53A10.582,10.582,0,0,1,2907.649-4375.7Zm-6.494-12.039a.148.148,0,0,0-.067.015.158.158,0,0,0-.088.141v5.307a1.249,1.249,0,0,0,1.247,1.246h10.8a1.247,1.247,0,0,0,1.246-1.246v-5.31a.154.154,0,0,0-.087-.139.153.153,0,0,0-.069-.016.155.155,0,0,0-.1.034c-.587.456-1.4,1.062-3.993,2.952a4.631,4.631,0,0,1-2.4,1.236,4.63,4.63,0,0,1-2.4-1.236c-2.7-1.962-3.44-2.514-4-2.95A.158.158,0,0,0,2901.155-4387.739Zm1.092-3.261a1.251,1.251,0,0,0-1.247,1.247v.492a.622.622,0,0,0,.239.491l.137.107c.706.554,1.13.887,4.363,3.234.071.051.154.116.243.184l.017.013a3.534,3.534,0,0,0,1.637.879h.022a3.556,3.556,0,0,0,1.639-.881l.018-.014c.087-.067.169-.13.238-.18,3.284-2.384,3.678-2.694,4.392-3.257l.108-.084a.62.62,0,0,0,.24-.491v-.492a1.25,1.25,0,0,0-1.246-1.248Z" transform="translate(2364 265)" fill="#efefef"/>
  </g>
</svg>
