<svg xmlns="http://www.w3.org/2000/svg" width="21.3" height="21.3" viewBox="0 0 21.3 21.3">
  <g id="email" transform="translate(-5261 4132)">
    <circle id="Ellipse_3" data-name="Ellipse 3" cx="10.65" cy="10.65" r="10.65" transform="translate(5261 -4132)" fill="#efefef"/>
    <path id="envelope" d="M13.041,67.292a.156.156,0,0,1,.252.122v5.31a1.247,1.247,0,0,1-1.246,1.246H1.246A1.247,1.247,0,0,1,0,72.724V67.417a.155.155,0,0,1,.252-.122c.582.452,1.353,1.026,4,2.949A4.645,4.645,0,0,0,6.647,71.48a4.647,4.647,0,0,0,2.4-1.236C11.691,68.32,12.46,67.744,13.041,67.292ZM6.647,70.647c.6.01,1.47-.758,1.906-1.075,3.445-2.5,3.708-2.718,4.5-3.341a.621.621,0,0,0,.239-.491v-.493A1.247,1.247,0,0,0,12.047,64H1.246A1.247,1.247,0,0,0,0,65.246v.493a.625.625,0,0,0,.239.491c.794.621,1.057.841,4.5,3.341C5.177,69.889,6.044,70.657,6.647,70.647Z" transform="translate(5265 -4190)" fill="#228896"/>
  </g>
</svg>
