<svg xmlns="http://www.w3.org/2000/svg" width="21" height="21" viewBox="0 0 21 21">
  <g id="Google_Scholar" transform="translate(-1603 -19)">
    <g id="Google_Scholar-2" data-name="Google_Scholar">
      <circle id="Ellipse_4" data-name="Ellipse 4" cx="10.5" cy="10.5" r="10.5" transform="translate(1603 19)" fill="#efefef"/>
    </g>
    <g id="google" transform="translate(1608 24)">
      <path id="Path_16" data-name="Path 16" d="M248.144,197.364a5.809,5.809,0,0,0-.1-1.088.341.341,0,0,0-.335-.277h-5.365a.341.341,0,0,0-.341.341v2.048a.341.341,0,0,0,.341.341h2.753a3.056,3.056,0,0,1-.685.9l1.929,1.929A5.781,5.781,0,0,0,248.144,197.364Z" transform="translate(-236.493 -191.539)" fill="#228896"/>
      <path id="Path_17" data-name="Path 17" d="M49.472,2.731a3.041,3.041,0,0,1,1.842.615.341.341,0,0,0,.446-.032l1.457-1.457a.341.341,0,0,0-.022-.5,5.8,5.8,0,0,0-8.532,1.2l2,2A3.073,3.073,0,0,1,49.472,2.731Z" transform="translate(-43.647)" fill="#228896"/>
      <path id="Path_18" data-name="Path 18" d="M49.472,316.062a5.764,5.764,0,0,0,3.472-1.165l-1.965-1.965a3.058,3.058,0,0,1-4.312-1.432l-2,2A5.8,5.8,0,0,0,49.472,316.062Z" transform="translate(-43.647 -304.412)" fill="#228896"/>
      <path id="Path_19" data-name="Path 19" d="M2.78,143.4a2.457,2.457,0,0,1,0-.983L.638,140.271a5.75,5.75,0,0,0,0,5.267Z" transform="translate(0 -137.079)" fill="#228896"/>
    </g>
  </g>
</svg>
