<?xml version="1.0" encoding="UTF-8"?>
<svg xmlns="http://www.w3.org/2000/svg" xmlns:xlink="http://www.w3.org/1999/xlink" width="21px" height="21px" viewBox="0 0 21 21" version="1.1">
<g id="surface1">
<path style=" stroke:none;fill-rule:nonzero;fill:rgb(93.333334%,93.333334%,93.333334%);fill-opacity:1;" d="M 8.988281 0.0429688 C 8.988281 0.0820312 8.96875 0.0820312 8.457031 0.0898438 C 8.003906 0.09375 7.925781 0.0976562 7.925781 0.125 C 7.921875 0.140625 7.921875 0.183594 7.921875 0.214844 L 7.917969 0.269531 L 7.394531 0.269531 L 7.394531 0.4375 L 7.15625 0.4375 C 6.996094 0.4375 6.910156 0.445312 6.890625 0.464844 C 6.867188 0.484375 6.867188 0.484375 6.878906 0.460938 C 6.890625 0.441406 6.886719 0.4375 6.871094 0.445312 C 6.855469 0.457031 6.847656 0.476562 6.847656 0.496094 C 6.863281 0.628906 6.871094 0.625 6.585938 0.625 L 6.324219 0.625 L 6.324219 0.792969 L 6.171875 0.792969 C 6.085938 0.796875 6.007812 0.796875 5.992188 0.792969 C 5.972656 0.792969 5.964844 0.820312 5.964844 0.882812 L 5.964844 0.980469 L 5.785156 0.980469 C 5.65625 0.980469 5.609375 0.984375 5.609375 1.003906 C 5.613281 1.019531 5.613281 1.058594 5.613281 1.089844 L 5.609375 1.144531 L 5.429688 1.144531 C 5.332031 1.144531 5.253906 1.152344 5.253906 1.160156 C 5.257812 1.171875 5.257812 1.210938 5.253906 1.253906 L 5.253906 1.332031 L 4.894531 1.332031 L 4.894531 1.5 L 4.726562 1.5 L 4.726562 1.667969 L 4.613281 1.667969 C 4.402344 1.667969 4.371094 1.679688 4.371094 1.773438 C 4.371094 1.855469 4.335938 1.871094 4.207031 1.855469 C 4.191406 1.855469 4.183594 1.882812 4.183594 1.933594 C 4.183594 2.015625 4.179688 2.019531 4.101562 2.023438 C 4.027344 2.03125 4.023438 2.035156 4.019531 2.121094 L 4.011719 2.207031 L 3.65625 2.207031 L 3.65625 2.292969 C 3.65625 2.367188 3.652344 2.375 3.597656 2.378906 C 3.46875 2.382812 3.476562 2.375 3.46875 2.503906 C 3.46875 2.558594 3.460938 2.5625 3.382812 2.5625 L 3.300781 2.5625 L 3.300781 2.742188 L 3.210938 2.738281 L 3.121094 2.738281 L 3.121094 2.917969 L 2.945312 2.917969 L 2.945312 3 C 2.945312 3.050781 2.933594 3.085938 2.917969 3.085938 C 2.902344 3.085938 2.863281 3.089844 2.828125 3.089844 C 2.769531 3.09375 2.765625 3.101562 2.761719 3.171875 C 2.757812 3.269531 2.761719 3.269531 2.664062 3.273438 C 2.589844 3.28125 2.585938 3.28125 2.585938 3.359375 C 2.585938 3.4375 2.558594 3.453125 2.445312 3.4375 C 2.417969 3.4375 2.414062 3.449219 2.410156 3.546875 C 2.40625 3.617188 2.402344 3.621094 2.3125 3.628906 C 2.269531 3.632812 2.234375 3.644531 2.234375 3.65625 C 2.234375 3.667969 2.234375 3.746094 2.234375 3.828125 L 2.230469 3.980469 L 2.148438 3.980469 C 2.066406 3.980469 2.066406 3.980469 2.050781 4.0625 C 2.039062 4.144531 2.035156 4.144531 1.953125 4.144531 C 1.898438 4.144531 1.871094 4.15625 1.875 4.171875 C 1.890625 4.300781 1.875 4.332031 1.789062 4.332031 L 1.707031 4.332031 L 1.707031 4.664062 L 1.609375 4.675781 C 1.515625 4.691406 1.515625 4.691406 1.515625 4.773438 C 1.515625 4.855469 1.515625 4.855469 1.433594 4.855469 L 1.347656 4.855469 L 1.347656 5.207031 L 1.257812 5.207031 C 1.183594 5.207031 1.164062 5.214844 1.164062 5.246094 C 1.164062 5.265625 1.164062 5.34375 1.164062 5.421875 L 1.160156 5.5625 L 0.992188 5.5625 L 0.992188 5.917969 L 0.914062 5.917969 C 0.871094 5.921875 0.828125 5.921875 0.816406 5.917969 C 0.808594 5.917969 0.800781 5.929688 0.804688 5.941406 C 0.804688 5.957031 0.804688 6.039062 0.804688 6.121094 L 0.800781 6.269531 L 0.636719 6.269531 L 0.636719 6.792969 L 0.578125 6.792969 C 0.546875 6.796875 0.507812 6.796875 0.496094 6.792969 C 0.464844 6.792969 0.445312 6.9375 0.445312 7.160156 L 0.445312 7.335938 L 0.28125 7.335938 L 0.277344 7.589844 C 0.273438 7.882812 0.289062 7.851562 0.175781 7.859375 L 0.0898438 7.867188 L 0.0898438 8.390625 C 0.0898438 8.902344 0.0898438 8.917969 0.046875 8.917969 C 0.00390625 8.917969 0.00390625 8.929688 0.00390625 10.5 C 0.00390625 12.070312 0.00390625 12.085938 0.046875 12.085938 C 0.0859375 12.085938 0.113281 12.570312 0.0898438 12.902344 C 0.0859375 12.960938 0.0898438 12.964844 0.199219 12.96875 C 0.277344 12.972656 0.277344 12.960938 0.277344 13.332031 L 0.28125 13.667969 L 0.445312 13.667969 L 0.445312 13.84375 C 0.445312 14.0625 0.464844 14.210938 0.496094 14.207031 C 0.507812 14.207031 0.546875 14.207031 0.578125 14.207031 L 0.636719 14.210938 L 0.636719 14.730469 L 0.800781 14.730469 L 0.804688 14.882812 C 0.804688 14.964844 0.804688 15.042969 0.804688 15.058594 C 0.800781 15.074219 0.808594 15.085938 0.816406 15.082031 C 0.828125 15.082031 0.871094 15.082031 0.914062 15.082031 L 0.992188 15.085938 L 0.992188 15.4375 L 1.160156 15.4375 L 1.164062 15.578125 C 1.164062 15.65625 1.164062 15.738281 1.164062 15.757812 C 1.164062 15.785156 1.183594 15.792969 1.257812 15.792969 C 1.34375 15.792969 1.347656 15.796875 1.347656 15.855469 C 1.347656 15.957031 1.367188 15.980469 1.445312 15.980469 L 1.515625 15.980469 L 1.515625 16.3125 L 1.609375 16.324219 L 1.707031 16.339844 L 1.707031 16.667969 L 1.789062 16.667969 C 1.875 16.667969 1.890625 16.699219 1.875 16.828125 C 1.871094 16.847656 1.898438 16.855469 1.953125 16.855469 C 2.035156 16.855469 2.039062 16.859375 2.050781 16.9375 C 2.066406 17.019531 2.066406 17.023438 2.148438 17.023438 L 2.230469 17.023438 L 2.234375 17.171875 C 2.234375 17.257812 2.238281 17.335938 2.234375 17.347656 C 2.234375 17.359375 2.269531 17.371094 2.3125 17.375 C 2.402344 17.378906 2.40625 17.382812 2.410156 17.457031 C 2.414062 17.554688 2.417969 17.566406 2.445312 17.5625 C 2.558594 17.546875 2.585938 17.5625 2.585938 17.644531 C 2.585938 17.71875 2.589844 17.722656 2.664062 17.726562 C 2.761719 17.734375 2.757812 17.730469 2.761719 17.828125 C 2.765625 17.902344 2.769531 17.90625 2.828125 17.910156 C 2.863281 17.914062 2.902344 17.914062 2.917969 17.917969 C 2.933594 17.917969 2.945312 17.949219 2.945312 18 L 2.945312 18.085938 L 3.121094 18.085938 L 3.121094 18.261719 L 3.300781 18.261719 L 3.300781 18.4375 L 3.382812 18.4375 C 3.460938 18.4375 3.46875 18.445312 3.46875 18.496094 C 3.476562 18.628906 3.46875 18.617188 3.597656 18.625 C 3.652344 18.625 3.65625 18.632812 3.65625 18.710938 L 3.65625 18.792969 L 4.011719 18.792969 L 4.019531 18.882812 C 4.023438 18.96875 4.027344 18.972656 4.101562 18.976562 C 4.179688 18.984375 4.183594 18.984375 4.183594 19.066406 C 4.183594 19.121094 4.191406 19.148438 4.207031 19.144531 C 4.339844 19.128906 4.371094 19.144531 4.371094 19.230469 C 4.371094 19.320312 4.402344 19.335938 4.613281 19.335938 L 4.726562 19.335938 L 4.726562 19.503906 L 4.894531 19.503906 L 4.894531 19.667969 L 5.253906 19.667969 L 5.253906 19.746094 C 5.257812 19.789062 5.257812 19.832031 5.253906 19.839844 C 5.253906 19.847656 5.332031 19.855469 5.429688 19.855469 L 5.609375 19.855469 L 5.613281 19.914062 C 5.613281 19.945312 5.613281 19.984375 5.609375 19.996094 C 5.609375 20.015625 5.65625 20.023438 5.785156 20.023438 L 5.964844 20.023438 L 5.964844 20.117188 C 5.964844 20.179688 5.972656 20.210938 5.992188 20.207031 C 6.007812 20.207031 6.085938 20.207031 6.171875 20.207031 L 6.324219 20.210938 L 6.324219 20.378906 L 6.585938 20.378906 C 6.871094 20.378906 6.863281 20.371094 6.847656 20.503906 C 6.847656 20.523438 6.855469 20.546875 6.871094 20.554688 C 6.886719 20.566406 6.890625 20.5625 6.878906 20.542969 C 6.867188 20.519531 6.867188 20.519531 6.890625 20.539062 C 6.90625 20.554688 6.976562 20.566406 7.058594 20.566406 C 7.207031 20.566406 7.25 20.601562 7.214844 20.695312 C 7.203125 20.722656 7.25 20.726562 7.554688 20.730469 C 7.746094 20.730469 7.90625 20.734375 7.910156 20.738281 C 7.914062 20.742188 7.917969 20.78125 7.921875 20.824219 L 7.929688 20.910156 L 8.375 20.914062 C 8.800781 20.917969 8.820312 20.921875 8.820312 20.960938 C 8.820312 21 8.839844 21.003906 10.414062 21.003906 C 11.992188 21.003906 12.011719 21 12.011719 20.960938 C 12.011719 20.921875 12.027344 20.917969 12.539062 20.914062 C 12.992188 20.910156 13.070312 20.902344 13.074219 20.878906 C 13.074219 20.859375 13.078125 20.820312 13.078125 20.789062 L 13.082031 20.730469 L 13.605469 20.730469 L 13.605469 20.566406 L 13.84375 20.566406 C 14.003906 20.566406 14.089844 20.554688 14.109375 20.539062 C 14.128906 20.519531 14.132812 20.519531 14.121094 20.542969 C 14.109375 20.5625 14.109375 20.566406 14.128906 20.554688 C 14.140625 20.546875 14.152344 20.523438 14.148438 20.503906 C 14.136719 20.371094 14.128906 20.378906 14.414062 20.378906 L 14.675781 20.378906 L 14.675781 20.210938 L 14.828125 20.207031 C 14.910156 20.207031 14.992188 20.207031 15.007812 20.207031 C 15.023438 20.210938 15.03125 20.179688 15.03125 20.117188 L 15.03125 20.023438 L 15.210938 20.023438 C 15.34375 20.023438 15.390625 20.015625 15.386719 19.996094 C 15.386719 19.984375 15.386719 19.945312 15.386719 19.914062 L 15.390625 19.855469 L 15.566406 19.855469 C 15.664062 19.855469 15.746094 19.847656 15.742188 19.839844 C 15.742188 19.832031 15.742188 19.789062 15.742188 19.746094 L 15.746094 19.667969 L 16.101562 19.667969 L 16.101562 19.503906 L 16.269531 19.503906 L 16.269531 19.335938 L 16.382812 19.335938 C 16.59375 19.335938 16.628906 19.320312 16.628906 19.226562 C 16.628906 19.144531 16.660156 19.128906 16.789062 19.144531 C 16.808594 19.148438 16.816406 19.121094 16.816406 19.066406 C 16.816406 18.984375 16.820312 18.984375 16.894531 18.976562 C 16.972656 18.972656 16.972656 18.96875 16.980469 18.882812 L 16.988281 18.792969 L 17.339844 18.792969 L 17.339844 18.710938 C 17.339844 18.632812 17.347656 18.625 17.398438 18.625 C 17.53125 18.617188 17.523438 18.628906 17.527344 18.496094 C 17.53125 18.445312 17.535156 18.4375 17.613281 18.4375 L 17.699219 18.4375 L 17.699219 18.261719 L 17.875 18.261719 L 17.875 18.085938 L 18.054688 18.085938 L 18.054688 18 C 18.054688 17.949219 18.066406 17.917969 18.082031 17.917969 C 18.09375 17.914062 18.136719 17.914062 18.167969 17.910156 C 18.226562 17.910156 18.234375 17.902344 18.234375 17.828125 C 18.238281 17.730469 18.238281 17.734375 18.332031 17.726562 C 18.410156 17.722656 18.410156 17.71875 18.410156 17.644531 C 18.410156 17.5625 18.4375 17.546875 18.554688 17.5625 C 18.578125 17.566406 18.585938 17.554688 18.589844 17.457031 C 18.589844 17.382812 18.597656 17.378906 18.6875 17.375 C 18.730469 17.371094 18.761719 17.359375 18.761719 17.347656 C 18.761719 17.335938 18.761719 17.257812 18.765625 17.171875 L 18.769531 17.023438 L 18.851562 17.023438 C 18.929688 17.023438 18.933594 17.019531 18.945312 16.9375 C 18.960938 16.859375 18.964844 16.855469 19.042969 16.855469 C 19.097656 16.855469 19.125 16.847656 19.125 16.828125 C 19.105469 16.699219 19.125 16.667969 19.210938 16.667969 L 19.292969 16.667969 L 19.292969 16.339844 L 19.386719 16.324219 C 19.480469 16.3125 19.480469 16.3125 19.480469 16.230469 C 19.480469 16.148438 19.480469 16.148438 19.566406 16.148438 L 19.648438 16.148438 L 19.648438 15.792969 L 19.742188 15.792969 C 19.816406 15.792969 19.832031 15.785156 19.832031 15.757812 C 19.832031 15.738281 19.835938 15.65625 19.835938 15.578125 L 19.839844 15.4375 L 20.007812 15.4375 L 20.007812 15.085938 L 20.085938 15.082031 C 20.128906 15.082031 20.171875 15.082031 20.179688 15.082031 C 20.191406 15.085938 20.195312 15.074219 20.195312 15.058594 C 20.191406 15.042969 20.191406 14.964844 20.191406 14.882812 L 20.195312 14.730469 L 20.363281 14.730469 L 20.363281 14.210938 L 20.421875 14.207031 C 20.453125 14.207031 20.488281 14.207031 20.503906 14.207031 C 20.53125 14.210938 20.550781 14.0625 20.550781 13.84375 L 20.550781 13.667969 L 20.714844 13.667969 L 20.71875 13.414062 C 20.722656 13.117188 20.710938 13.148438 20.820312 13.144531 L 20.910156 13.136719 L 20.910156 12.609375 C 20.910156 12.097656 20.910156 12.085938 20.949219 12.085938 C 20.992188 12.085938 20.992188 12.070312 20.992188 10.5 C 20.992188 8.929688 20.992188 8.917969 20.949219 8.917969 C 20.914062 8.917969 20.882812 8.332031 20.90625 8.132812 C 20.910156 8.109375 20.785156 8.089844 20.753906 8.109375 C 20.675781 8.160156 20.625 7.878906 20.6875 7.757812 C 20.710938 7.71875 20.71875 7.648438 20.71875 7.542969 L 20.714844 7.386719 L 20.628906 7.394531 C 20.503906 7.402344 20.476562 7.363281 20.511719 7.242188 C 20.523438 7.191406 20.546875 7.152344 20.558594 7.15625 C 20.574219 7.15625 20.578125 7.15625 20.566406 7.152344 C 20.558594 7.148438 20.550781 7.0625 20.550781 6.960938 C 20.546875 6.863281 20.542969 6.800781 20.539062 6.828125 C 20.53125 6.863281 20.515625 6.871094 20.445312 6.867188 C 20.320312 6.859375 20.289062 6.820312 20.332031 6.707031 C 20.347656 6.652344 20.363281 6.542969 20.363281 6.441406 L 20.363281 6.269531 L 20.195312 6.269531 L 20.191406 6.121094 C 20.191406 6.039062 20.191406 5.957031 20.195312 5.941406 C 20.195312 5.929688 20.191406 5.917969 20.179688 5.917969 C 20.171875 5.921875 20.128906 5.921875 20.085938 5.917969 L 20.007812 5.917969 L 20.007812 5.625 L 19.914062 5.625 C 19.785156 5.625 19.757812 5.589844 19.804688 5.460938 C 19.867188 5.289062 19.847656 5.207031 19.738281 5.207031 C 19.65625 5.207031 19.648438 5.207031 19.648438 5.148438 C 19.648438 5.046875 19.628906 5.019531 19.554688 5.019531 L 19.480469 5.019531 L 19.480469 4.886719 C 19.480469 4.742188 19.484375 4.742188 19.367188 4.75 C 19.261719 4.753906 19.222656 4.695312 19.261719 4.597656 C 19.277344 4.554688 19.292969 4.480469 19.292969 4.429688 L 19.292969 4.332031 L 19.210938 4.332031 C 19.125 4.332031 19.105469 4.300781 19.125 4.171875 C 19.125 4.15625 19.097656 4.144531 19.042969 4.144531 C 18.972656 4.144531 18.957031 4.140625 18.957031 4.105469 C 18.957031 4.054688 18.921875 4.03125 18.84375 4.039062 C 18.734375 4.046875 18.691406 4 18.722656 3.898438 C 18.738281 3.851562 18.757812 3.8125 18.765625 3.8125 C 18.777344 3.8125 18.777344 3.777344 18.765625 3.734375 C 18.757812 3.695312 18.753906 3.652344 18.757812 3.644531 C 18.761719 3.640625 18.730469 3.632812 18.6875 3.628906 C 18.597656 3.621094 18.589844 3.617188 18.589844 3.546875 C 18.585938 3.449219 18.578125 3.4375 18.554688 3.441406 C 18.4375 3.453125 18.410156 3.4375 18.410156 3.359375 C 18.410156 3.28125 18.410156 3.28125 18.332031 3.273438 C 18.238281 3.269531 18.238281 3.269531 18.234375 3.171875 C 18.234375 3.101562 18.226562 3.09375 18.167969 3.089844 C 18.136719 3.089844 18.09375 3.085938 18.082031 3.085938 C 18.066406 3.085938 18.054688 3.050781 18.054688 3 L 18.054688 2.917969 L 17.875 2.917969 L 17.875 2.738281 L 17.785156 2.738281 L 17.699219 2.742188 L 17.699219 2.5625 L 17.613281 2.5625 C 17.535156 2.5625 17.53125 2.558594 17.527344 2.503906 C 17.523438 2.375 17.53125 2.382812 17.398438 2.378906 C 17.347656 2.375 17.339844 2.367188 17.339844 2.292969 L 17.339844 2.207031 L 16.988281 2.207031 L 16.980469 2.121094 C 16.972656 2.035156 16.972656 2.03125 16.894531 2.023438 C 16.820312 2.019531 16.816406 2.015625 16.816406 1.933594 C 16.816406 1.882812 16.808594 1.855469 16.789062 1.855469 C 16.660156 1.871094 16.628906 1.855469 16.628906 1.773438 C 16.628906 1.679688 16.59375 1.667969 16.382812 1.667969 L 16.269531 1.667969 L 16.269531 1.5 L 16.101562 1.5 L 16.101562 1.332031 L 15.746094 1.332031 L 15.742188 1.253906 C 15.742188 1.210938 15.742188 1.171875 15.742188 1.160156 C 15.746094 1.152344 15.664062 1.144531 15.566406 1.144531 L 15.390625 1.144531 L 15.386719 1.089844 C 15.386719 1.058594 15.386719 1.019531 15.386719 1.003906 C 15.390625 0.984375 15.34375 0.980469 15.210938 0.980469 L 15.03125 0.980469 L 15.03125 0.882812 C 15.03125 0.820312 15.023438 0.789062 15.007812 0.792969 C 14.992188 0.796875 14.910156 0.796875 14.828125 0.792969 L 14.675781 0.792969 L 14.675781 0.625 L 14.414062 0.625 C 14.128906 0.625 14.136719 0.628906 14.148438 0.496094 C 14.152344 0.476562 14.140625 0.457031 14.128906 0.445312 C 14.109375 0.4375 14.109375 0.441406 14.121094 0.460938 C 14.132812 0.484375 14.128906 0.484375 14.109375 0.464844 C 14.089844 0.449219 14.023438 0.4375 13.9375 0.4375 C 13.792969 0.4375 13.75 0.398438 13.785156 0.304688 C 13.796875 0.277344 13.746094 0.273438 13.445312 0.273438 C 13.25 0.269531 13.089844 0.265625 13.085938 0.265625 C 13.085938 0.261719 13.078125 0.222656 13.074219 0.175781 L 13.070312 0.09375 L 12.625 0.0898438 C 12.195312 0.0820312 12.179688 0.0820312 12.179688 0.0429688 C 12.179688 0 12.160156 0 10.582031 0 C 9.007812 0 8.988281 0 8.988281 0.0429688 M 11.488281 3.878906 L 11.496094 3.96875 L 11.847656 3.976562 L 12.199219 3.980469 L 12.203125 4.046875 C 12.203125 4.085938 12.203125 4.121094 12.203125 4.128906 C 12.199219 4.140625 12.316406 4.144531 12.460938 4.144531 L 12.722656 4.144531 L 12.722656 4.226562 C 12.722656 4.316406 12.714844 4.3125 12.929688 4.328125 C 13.089844 4.335938 13.097656 4.347656 13.082031 4.472656 C 13.082031 4.488281 13.140625 4.496094 13.253906 4.5 C 13.453125 4.503906 13.433594 4.492188 13.441406 4.585938 C 13.445312 4.652344 13.449219 4.660156 13.519531 4.664062 C 13.609375 4.671875 13.609375 4.671875 13.613281 4.765625 L 13.617188 4.84375 L 13.792969 4.855469 L 13.972656 4.863281 L 13.957031 5.019531 L 14.152344 5.019531 L 14.152344 5.113281 C 14.152344 5.167969 14.15625 5.207031 14.167969 5.207031 C 14.28125 5.1875 14.320312 5.210938 14.320312 5.292969 L 14.320312 5.375 L 14.507812 5.375 L 14.507812 5.46875 C 14.507812 5.558594 14.507812 5.558594 14.582031 5.558594 C 14.671875 5.554688 14.683594 5.566406 14.683594 5.65625 C 14.679688 5.730469 14.679688 5.730469 14.773438 5.730469 L 14.863281 5.730469 L 14.863281 5.824219 C 14.863281 5.917969 14.867188 5.921875 14.914062 5.910156 C 15 5.886719 15.03125 5.914062 15.03125 6.003906 C 15.03125 6.046875 15.039062 6.082031 15.046875 6.082031 C 15.058594 6.082031 15.097656 6.082031 15.144531 6.082031 L 15.222656 6.082031 L 15.222656 6.273438 L 15.304688 6.265625 L 15.390625 6.257812 L 15.390625 6.410156 C 15.394531 6.496094 15.394531 6.574219 15.398438 6.589844 C 15.398438 6.605469 15.433594 6.613281 15.484375 6.613281 L 15.566406 6.613281 L 15.578125 6.792969 L 15.589844 6.96875 L 15.667969 6.976562 L 15.746094 6.980469 L 15.75 7.132812 C 15.75 7.214844 15.75 7.289062 15.75 7.296875 C 15.746094 7.304688 15.785156 7.316406 15.832031 7.324219 L 15.914062 7.335938 L 15.914062 7.449219 C 15.914062 7.617188 15.941406 7.667969 16.027344 7.667969 L 16.101562 7.667969 L 16.105469 7.910156 C 16.105469 8.046875 16.105469 8.167969 16.105469 8.179688 C 16.105469 8.191406 16.136719 8.203125 16.179688 8.207031 C 16.277344 8.207031 16.269531 8.175781 16.273438 8.546875 C 16.273438 8.890625 16.28125 8.929688 16.355469 8.910156 C 16.464844 8.882812 16.460938 8.851562 16.460938 9.886719 L 16.460938 10.855469 L 16.375 10.855469 C 16.289062 10.855469 16.257812 10.898438 16.273438 10.980469 C 16.277344 11.003906 16.257812 11.011719 16.191406 11.019531 C 16.101562 11.023438 16.082031 10.988281 16.101562 10.871094 C 16.101562 10.859375 15.90625 10.855469 15.664062 10.855469 L 15.222656 10.859375 L 15.222656 11.019531 L 15.046875 11.027344 L 14.875 11.03125 L 14.867188 11.121094 L 14.863281 11.210938 L 14.675781 11.210938 L 14.675781 11.386719 L 14.417969 11.378906 C 14.128906 11.375 14.140625 11.378906 14.148438 11.28125 L 14.152344 11.207031 L 13.617188 11.210938 C 13.230469 11.210938 13.085938 11.21875 13.085938 11.238281 C 13.089844 11.367188 13.082031 11.375 12.996094 11.375 C 12.945312 11.375 12.914062 11.382812 12.921875 11.398438 C 12.929688 11.410156 12.925781 11.417969 12.910156 11.417969 C 12.894531 11.417969 12.890625 11.441406 12.894531 11.480469 C 12.90625 11.554688 12.902344 11.558594 12.800781 11.566406 L 12.722656 11.570312 L 12.722656 11.917969 L 12.640625 11.917969 C 12.550781 11.917969 12.535156 11.949219 12.535156 12.160156 L 12.535156 12.269531 L 12.457031 12.277344 L 12.378906 12.28125 L 12.371094 12.453125 L 12.367188 12.625 L 12.199219 12.625 L 12.199219 12.976562 L 12.109375 12.984375 C 12.023438 12.992188 12.019531 12.992188 12.015625 13.070312 C 12.007812 13.148438 11.980469 13.164062 11.867188 13.148438 C 11.851562 13.144531 11.84375 13.175781 11.84375 13.238281 L 11.84375 13.335938 L 11.746094 13.335938 C 11.683594 13.335938 11.652344 13.34375 11.65625 13.359375 C 11.65625 13.375 11.65625 13.449219 11.65625 13.527344 L 11.652344 13.664062 L 11.570312 13.679688 C 11.488281 13.691406 11.484375 13.695312 11.484375 13.773438 C 11.484375 13.859375 11.453125 13.875 11.320312 13.855469 C 11.304688 13.855469 11.296875 13.871094 11.296875 13.890625 C 11.308594 14 11.296875 14.019531 11.21875 14.027344 L 11.140625 14.03125 L 11.132812 14.203125 C 11.125 14.390625 11.132812 14.378906 11.003906 14.382812 L 10.949219 14.386719 L 10.945312 15.089844 L 10.9375 15.792969 L 10.871094 15.796875 C 10.835938 15.796875 10.796875 15.796875 10.789062 15.796875 C 10.777344 15.792969 10.773438 15.835938 10.773438 15.886719 L 10.773438 15.980469 L 9.871094 15.980469 L 9.867188 15.871094 C 9.867188 15.8125 9.867188 15.453125 9.863281 15.074219 L 9.859375 14.386719 L 9.703125 14.386719 L 9.703125 14.214844 C 9.703125 14.09375 9.695312 14.042969 9.675781 14.039062 C 9.644531 14.039062 9.617188 14.035156 9.585938 14.035156 C 9.527344 14.03125 9.523438 14.027344 9.515625 13.945312 C 9.511719 13.867188 9.507812 13.863281 9.433594 13.859375 C 9.34375 13.855469 9.351562 13.863281 9.339844 13.773438 C 9.332031 13.707031 9.324219 13.699219 9.242188 13.679688 L 9.15625 13.660156 L 9.15625 13.335938 L 9.070312 13.335938 C 8.984375 13.335938 8.972656 13.316406 8.988281 13.183594 C 8.988281 13.152344 8.972656 13.148438 8.894531 13.148438 L 8.800781 13.148438 L 8.800781 12.980469 L 8.632812 12.980469 L 8.628906 12.820312 C 8.628906 12.730469 8.628906 12.652344 8.628906 12.640625 C 8.628906 12.632812 8.625 12.628906 8.617188 12.628906 C 8.605469 12.628906 8.570312 12.628906 8.53125 12.628906 L 8.464844 12.625 L 8.460938 12.496094 C 8.457031 12.3125 8.445312 12.285156 8.359375 12.273438 C 8.265625 12.265625 8.277344 12.289062 8.273438 12.089844 L 8.269531 11.917969 L 8.105469 11.917969 L 8.105469 11.753906 C 8.105469 11.574219 8.097656 11.5625 7.980469 11.5625 C 7.921875 11.5625 7.917969 11.558594 7.917969 11.496094 C 7.917969 11.402344 7.890625 11.371094 7.820312 11.375 C 7.597656 11.390625 7.5625 11.382812 7.5625 11.304688 C 7.5625 11.207031 7.5625 11.207031 6.984375 11.214844 L 6.5 11.21875 L 6.5 11.304688 C 6.496094 11.378906 6.492188 11.386719 6.449219 11.378906 C 6.367188 11.367188 6.300781 11.394531 6.316406 11.433594 C 6.324219 11.464844 6.324219 11.464844 6.304688 11.441406 C 6.292969 11.421875 6.289062 11.402344 6.292969 11.394531 C 6.296875 11.386719 6.28125 11.378906 6.253906 11.378906 C 6.140625 11.386719 6.132812 11.378906 6.132812 11.292969 L 6.132812 11.210938 L 5.777344 11.210938 L 5.777344 11.148438 C 5.777344 11.03125 5.765625 11.023438 5.585938 11.023438 L 5.421875 11.023438 L 5.421875 10.855469 L 4.980469 10.855469 C 4.652344 10.859375 4.539062 10.863281 4.539062 10.882812 C 4.554688 10.992188 4.539062 11.019531 4.453125 11.027344 L 4.371094 11.035156 L 4.367188 10.6875 L 4.359375 10.34375 L 4.269531 10.339844 L 4.183594 10.332031 L 4.183594 9.257812 L 4.238281 9.261719 C 4.269531 9.265625 4.308594 9.257812 4.328125 9.246094 C 4.351562 9.222656 4.355469 9.226562 4.339844 9.25 C 4.328125 9.269531 4.328125 9.273438 4.347656 9.261719 C 4.359375 9.253906 4.371094 9.238281 4.367188 9.222656 C 4.367188 9.210938 4.367188 9.015625 4.367188 8.789062 L 4.371094 8.375 L 4.539062 8.375 L 4.539062 7.667969 L 4.621094 7.667969 C 4.71875 7.667969 4.726562 7.648438 4.726562 7.46875 C 4.726562 7.335938 4.746094 7.316406 4.871094 7.3125 C 4.878906 7.3125 4.890625 7.238281 4.894531 7.144531 L 4.90625 6.972656 L 4.976562 6.96875 C 5.0625 6.96875 5.078125 6.9375 5.082031 6.738281 L 5.085938 6.613281 L 5.164062 6.613281 C 5.238281 6.617188 5.242188 6.613281 5.246094 6.53125 C 5.253906 6.433594 5.246094 6.441406 5.339844 6.433594 C 5.382812 6.433594 5.417969 6.425781 5.417969 6.417969 C 5.414062 6.414062 5.417969 6.335938 5.417969 6.246094 L 5.421875 6.085938 L 5.511719 6.085938 C 5.601562 6.085938 5.601562 6.082031 5.605469 6.007812 C 5.609375 5.917969 5.640625 5.890625 5.71875 5.910156 C 5.777344 5.921875 5.777344 5.917969 5.777344 5.824219 L 5.777344 5.730469 L 5.867188 5.730469 C 5.957031 5.730469 5.957031 5.730469 5.960938 5.652344 C 5.96875 5.558594 5.972656 5.554688 6.0625 5.558594 C 6.132812 5.558594 6.132812 5.558594 6.132812 5.46875 L 6.132812 5.375 L 6.226562 5.375 C 6.316406 5.375 6.320312 5.375 6.316406 5.304688 C 6.3125 5.214844 6.316406 5.210938 6.414062 5.207031 C 6.488281 5.199219 6.492188 5.199219 6.492188 5.113281 L 6.492188 5.023438 L 6.664062 5.015625 L 6.835938 5.011719 L 6.84375 4.933594 C 6.847656 4.859375 6.851562 4.855469 6.9375 4.851562 C 7.03125 4.84375 7.027344 4.847656 7.035156 4.714844 C 7.035156 4.667969 7.042969 4.667969 7.214844 4.667969 L 7.394531 4.667969 L 7.386719 4.582031 L 7.378906 4.5 L 7.527344 4.496094 C 7.75 4.496094 7.738281 4.5 7.738281 4.410156 L 7.734375 4.332031 L 7.863281 4.332031 C 8.0625 4.328125 8.097656 4.3125 8.097656 4.226562 L 8.097656 4.15625 L 8.363281 4.152344 L 8.632812 4.144531 L 8.632812 3.980469 L 8.910156 3.976562 C 9.0625 3.976562 9.214844 3.976562 9.246094 3.976562 C 9.277344 3.976562 9.300781 3.96875 9.300781 3.957031 C 9.300781 3.945312 9.3125 3.941406 9.324219 3.949219 C 9.335938 3.957031 9.347656 3.949219 9.34375 3.933594 C 9.339844 3.917969 9.339844 3.878906 9.34375 3.847656 L 9.34375 3.792969 L 11.484375 3.792969 Z M 8.042969 6.90625 C 8.042969 7.113281 7.769531 7.191406 7.605469 7.035156 C 7.507812 6.941406 7.394531 6.957031 7.394531 7.0625 C 7.394531 7.144531 7.390625 7.144531 7.304688 7.152344 C 7.191406 7.160156 7.152344 7.304688 7.253906 7.351562 C 7.335938 7.386719 7.378906 7.601562 7.328125 7.714844 C 7.296875 7.78125 7.226562 7.8125 7.117188 7.8125 C 7.050781 7.8125 7.035156 7.820312 7.035156 7.855469 C 7.035156 7.890625 7.050781 7.898438 7.113281 7.898438 C 7.289062 7.898438 7.351562 7.960938 7.351562 8.132812 C 7.351562 8.21875 7.359375 8.234375 7.410156 8.261719 C 7.445312 8.277344 7.492188 8.324219 7.515625 8.363281 C 7.539062 8.40625 7.574219 8.4375 7.589844 8.4375 C 7.640625 8.4375 7.683594 8.511719 7.691406 8.617188 L 7.695312 8.71875 L 7.808594 8.726562 L 7.917969 8.730469 L 7.917969 8.652344 C 7.917969 8.589844 7.902344 8.558594 7.867188 8.527344 C 7.765625 8.441406 7.769531 8.339844 7.875 8.273438 C 7.910156 8.253906 7.960938 8.203125 7.984375 8.164062 L 8.035156 8.09375 L 8.242188 8.089844 C 8.550781 8.078125 8.589844 8.101562 8.589844 8.292969 C 8.589844 8.363281 8.597656 8.375 8.632812 8.375 C 8.667969 8.375 8.671875 8.363281 8.671875 8.28125 C 8.671875 8.144531 8.734375 8.082031 8.878906 8.082031 C 9.003906 8.078125 9.011719 8.066406 8.925781 7.984375 C 8.882812 7.941406 8.863281 7.898438 8.863281 7.855469 C 8.863281 7.808594 8.882812 7.769531 8.925781 7.726562 C 8.976562 7.675781 8.988281 7.648438 8.988281 7.5625 L 8.988281 7.460938 L 8.882812 7.460938 C 8.792969 7.460938 8.769531 7.449219 8.726562 7.402344 C 8.660156 7.328125 8.589844 7.257812 8.542969 7.21875 C 8.515625 7.199219 8.503906 7.15625 8.503906 7.085938 C 8.503906 6.96875 8.484375 6.953125 8.414062 7.03125 C 8.292969 7.164062 8.140625 7.089844 8.152344 6.902344 C 8.160156 6.792969 8.15625 6.792969 8.101562 6.792969 C 8.046875 6.792969 8.042969 6.796875 8.042969 6.90625 M 12.320312 6.894531 C 12.335938 7.089844 12.1875 7.160156 12.050781 7.03125 C 11.976562 6.960938 11.96875 6.964844 11.96875 7.070312 C 11.96875 7.207031 11.910156 7.273438 11.777344 7.273438 C 11.648438 7.273438 11.636719 7.292969 11.714844 7.371094 C 11.875 7.527344 11.785156 7.8125 11.578125 7.8125 L 11.484375 7.8125 L 11.484375 8.078125 L 11.59375 8.082031 C 11.746094 8.089844 11.78125 8.125 11.78125 8.265625 L 11.78125 8.375 L 12.050781 8.375 L 12.050781 8.285156 C 12.050781 8.140625 12.109375 8.085938 12.261719 8.085938 C 12.414062 8.085938 12.445312 8.09375 12.484375 8.167969 C 12.5 8.203125 12.542969 8.242188 12.574219 8.261719 C 12.609375 8.277344 12.648438 8.316406 12.664062 8.347656 C 12.679688 8.378906 12.714844 8.417969 12.746094 8.433594 C 12.824219 8.472656 12.851562 8.519531 12.851562 8.628906 L 12.851562 8.730469 L 13.082031 8.730469 L 13.082031 8.5625 L 13.25 8.5625 L 13.25 8.472656 C 13.25 8.410156 13.238281 8.375 13.21875 8.367188 C 13.15625 8.34375 13.113281 8.214844 13.144531 8.15625 C 13.175781 8.097656 13.203125 8.085938 13.335938 8.082031 L 13.4375 8.078125 L 13.4375 7.972656 C 13.4375 7.886719 13.429688 7.863281 13.375 7.8125 C 13.328125 7.769531 13.3125 7.738281 13.3125 7.679688 C 13.3125 7.617188 13.328125 7.585938 13.375 7.542969 C 13.457031 7.464844 13.453125 7.460938 13.339844 7.460938 C 13.222656 7.460938 13.179688 7.4375 13.125 7.34375 C 13.101562 7.304688 13.070312 7.273438 13.054688 7.273438 C 12.996094 7.273438 12.957031 7.199219 12.953125 7.089844 C 12.949219 6.996094 12.890625 6.914062 12.890625 7 C 12.890625 7.050781 12.753906 7.105469 12.632812 7.105469 C 12.464844 7.105469 12.402344 7.046875 12.414062 6.894531 C 12.417969 6.796875 12.417969 6.792969 12.367188 6.792969 C 12.316406 6.792969 12.316406 6.796875 12.320312 6.894531 M 5.78125 8.117188 C 5.78125 8.171875 5.785156 8.195312 5.792969 8.160156 C 5.796875 8.128906 5.796875 8.082031 5.792969 8.058594 C 5.785156 8.03125 5.78125 8.058594 5.78125 8.117188 M 15.207031 8.386719 C 15.207031 8.488281 15.210938 8.535156 15.214844 8.484375 C 15.21875 8.4375 15.21875 8.351562 15.214844 8.296875 C 15.210938 8.242188 15.207031 8.28125 15.207031 8.386719 M 8.429688 9.855469 C 8.398438 9.929688 8.332031 9.945312 8.089844 9.933594 L 7.917969 9.929688 L 7.917969 10.535156 L 7.988281 10.527344 C 8.105469 10.511719 8.203125 10.554688 8.230469 10.628906 C 8.28125 10.773438 8.234375 10.992188 8.148438 11.015625 C 8.066406 11.035156 8.109375 11.0625 8.222656 11.0625 C 8.429688 11.0625 8.515625 11.320312 8.324219 11.367188 C 8.242188 11.390625 8.292969 11.417969 8.410156 11.417969 C 8.523438 11.417969 8.570312 11.445312 8.597656 11.53125 C 8.605469 11.554688 8.636719 11.585938 8.671875 11.597656 C 8.714844 11.613281 8.746094 11.648438 8.769531 11.699219 C 8.789062 11.746094 8.8125 11.773438 8.839844 11.773438 C 8.90625 11.773438 8.957031 11.851562 8.960938 11.960938 C 8.960938 12.019531 8.96875 12.0625 8.976562 12.0625 L 9.003906 12.0625 C 9.039062 12.0625 9.070312 11.957031 9.070312 11.851562 C 9.070312 11.699219 9.285156 11.480469 9.4375 11.480469 C 9.503906 11.480469 9.542969 11.46875 9.566406 11.441406 C 9.703125 11.285156 9.6875 11.292969 9.878906 11.292969 L 10.054688 11.292969 L 10.121094 11.375 C 10.15625 11.417969 10.207031 11.464844 10.234375 11.476562 C 10.257812 11.492188 10.300781 11.535156 10.328125 11.574219 C 10.40625 11.695312 10.5 11.644531 10.5 11.476562 C 10.5 11.316406 10.542969 11.292969 10.855469 11.292969 L 11.113281 11.292969 L 11.382812 11.5625 L 11.648438 11.835938 L 11.75 11.835938 C 11.871094 11.832031 11.886719 11.824219 11.933594 11.734375 C 11.953125 11.699219 11.980469 11.667969 11.988281 11.664062 C 12 11.664062 12.019531 11.660156 12.03125 11.65625 C 12.042969 11.65625 12.082031 11.652344 12.113281 11.648438 C 12.199219 11.644531 12.199219 11.585938 12.117188 11.527344 C 12.007812 11.445312 12.023438 11.300781 12.148438 11.246094 C 12.21875 11.210938 12.21875 11.207031 12.21875 11.097656 C 12.21875 10.941406 12.261719 10.898438 12.421875 10.875 C 12.511719 10.863281 12.535156 10.855469 12.5 10.84375 C 12.429688 10.824219 12.398438 10.738281 12.398438 10.582031 C 12.398438 10.402344 12.425781 10.371094 12.59375 10.355469 L 12.714844 10.34375 L 12.714844 9.949219 L 12.40625 9.9375 C 12.089844 9.929688 12.046875 9.914062 12.019531 9.832031 C 12 9.765625 11.976562 9.789062 11.984375 9.863281 C 12.011719 10.089844 11.753906 10.222656 11.667969 10.023438 C 11.648438 9.972656 11.644531 9.980469 11.632812 10.09375 C 11.605469 10.3125 11.390625 10.378906 11.3125 10.191406 L 11.289062 10.136719 L 11.28125 10.210938 C 11.265625 10.394531 11.253906 10.417969 11.179688 10.449219 C 11.039062 10.511719 10.8125 10.46875 10.78125 10.378906 C 10.769531 10.335938 10.753906 10.335938 10.570312 10.335938 L 10.375 10.335938 L 10.375 10.449219 C 10.375 10.535156 10.363281 10.574219 10.332031 10.605469 C 10.226562 10.710938 10.078125 10.613281 10.078125 10.441406 L 10.078125 10.335938 L 9.890625 10.335938 C 9.707031 10.335938 9.699219 10.335938 9.675781 10.386719 C 9.613281 10.527344 9.269531 10.511719 9.207031 10.367188 C 9.175781 10.292969 9.175781 10.292969 9.050781 10.292969 C 8.882812 10.292969 8.839844 10.253906 8.839844 10.09375 C 8.839844 10.03125 8.832031 9.980469 8.820312 9.980469 C 8.808594 9.980469 8.800781 9.992188 8.800781 10.007812 C 8.800781 10.058594 8.71875 10.109375 8.640625 10.113281 C 8.527344 10.113281 8.480469 10.046875 8.488281 9.902344 C 8.496094 9.78125 8.464844 9.753906 8.429688 9.855469 M 5.253906 11.789062 C 5.257812 11.820312 5.257812 11.859375 5.257812 11.875 C 5.261719 11.902344 5.300781 11.910156 5.433594 11.914062 L 5.605469 11.917969 L 5.621094 12.261719 L 5.683594 12.261719 C 5.765625 12.261719 5.796875 12.285156 5.78125 12.335938 C 5.765625 12.394531 5.8125 12.4375 5.894531 12.4375 L 5.964844 12.4375 L 5.96875 12.589844 C 5.96875 12.671875 5.96875 12.75 5.96875 12.765625 C 5.964844 12.777344 5.976562 12.789062 5.992188 12.789062 C 6.121094 12.78125 6.132812 12.789062 6.132812 12.875 C 6.132812 12.960938 6.191406 13.003906 6.269531 12.972656 C 6.3125 12.957031 6.320312 12.976562 6.324219 13.152344 L 6.328125 13.3125 L 6.410156 13.324219 C 6.496094 13.339844 6.503906 13.359375 6.492188 13.589844 L 6.488281 13.667969 L 6.679688 13.667969 L 6.683594 13.746094 C 6.683594 13.789062 6.683594 13.832031 6.683594 13.839844 C 6.679688 13.84375 6.695312 13.847656 6.714844 13.847656 C 6.8125 13.832031 6.859375 13.867188 6.851562 13.945312 L 6.84375 14.023438 L 7.398438 14.023438 L 7.390625 13.9375 C 7.382812 13.851562 7.382812 13.851562 7.523438 13.851562 C 7.550781 13.851562 7.558594 13.824219 7.558594 13.675781 C 7.558594 13.554688 7.550781 13.5 7.53125 13.503906 C 7.402344 13.519531 7.378906 13.503906 7.386719 13.417969 L 7.394531 13.335938 L 7.203125 13.335938 L 7.203125 13.242188 C 7.203125 13.167969 7.199219 13.152344 7.167969 13.15625 C 7.070312 13.171875 7.027344 13.136719 7.03125 13.058594 L 7.039062 12.980469 L 6.847656 12.980469 L 6.847656 12.085938 L 7.390625 12.085938 L 7.398438 12.351562 L 7.402344 12.617188 L 7.5625 12.617188 L 7.5625 12.761719 C 7.566406 12.84375 7.5625 12.917969 7.5625 12.933594 C 7.558594 12.960938 7.570312 12.964844 7.675781 12.96875 L 7.738281 12.972656 L 7.746094 13.140625 L 7.75 13.308594 L 7.835938 13.324219 C 7.917969 13.339844 7.933594 13.367188 7.917969 13.476562 C 7.917969 13.492188 7.945312 13.5 8.011719 13.5 L 8.105469 13.5 L 8.105469 13.667969 L 8.273438 13.667969 L 8.273438 14.015625 L 8.363281 14.019531 C 8.46875 14.027344 8.460938 14.015625 8.464844 14.121094 C 8.46875 14.1875 8.480469 14.210938 8.503906 14.207031 C 8.613281 14.199219 8.632812 14.207031 8.632812 14.28125 C 8.632812 14.355469 8.65625 14.375 8.757812 14.375 C 8.816406 14.375 8.835938 14.421875 8.824219 14.542969 C 8.824219 14.550781 8.855469 14.558594 8.894531 14.558594 C 8.996094 14.5625 8.988281 14.511719 8.988281 15.179688 C 8.988281 15.847656 8.996094 15.796875 8.894531 15.796875 C 8.820312 15.796875 8.820312 15.796875 8.820312 15.890625 L 8.820312 15.980469 L 8.632812 15.980469 L 8.632812 16.0625 C 8.632812 16.148438 8.605469 16.164062 8.488281 16.148438 C 8.472656 16.148438 8.464844 16.175781 8.464844 16.238281 L 8.464844 16.335938 L 8.105469 16.335938 L 8.105469 16.5 L 5.964844 16.5 L 5.964844 16.453125 C 5.960938 16.425781 5.960938 16.398438 5.964844 16.375 C 5.96875 16.34375 5.929688 16.339844 5.617188 16.335938 C 5.421875 16.335938 5.261719 16.332031 5.257812 16.328125 C 5.257812 16.324219 5.253906 16.285156 5.25 16.234375 L 5.242188 16.148438 L 4.726562 16.148438 L 4.726562 16.089844 C 4.726562 15.992188 4.699219 15.980469 4.429688 15.980469 L 4.183594 15.980469 L 4.179688 15.914062 C 4.179688 15.875 4.179688 15.832031 4.179688 15.820312 C 4.183594 15.800781 4.136719 15.792969 4.003906 15.792969 L 3.824219 15.792969 L 3.824219 15.726562 C 3.820312 15.6875 3.820312 15.652344 3.824219 15.640625 C 3.824219 15.632812 3.789062 15.625 3.742188 15.625 C 3.652344 15.625 3.644531 15.613281 3.65625 15.5 C 3.65625 15.480469 3.648438 15.457031 3.632812 15.449219 C 3.617188 15.4375 3.613281 15.441406 3.625 15.460938 C 3.640625 15.484375 3.636719 15.484375 3.613281 15.464844 C 3.597656 15.449219 3.558594 15.4375 3.527344 15.4375 C 3.472656 15.4375 3.46875 15.433594 3.46875 15.351562 L 3.46875 15.261719 L 3.640625 15.261719 C 3.765625 15.261719 3.816406 15.253906 3.816406 15.234375 C 3.820312 15.222656 3.820312 15.183594 3.824219 15.148438 C 3.824219 15.085938 3.828125 15.085938 3.917969 15.085938 L 4.015625 15.085938 L 4.015625 15.164062 C 4.019531 15.207031 4.015625 15.25 4.015625 15.257812 C 4.015625 15.269531 4.046875 15.273438 4.09375 15.273438 C 4.152344 15.269531 4.210938 15.269531 4.269531 15.269531 L 4.371094 15.273438 L 4.371094 15.4375 L 4.453125 15.4375 C 4.527344 15.4375 4.539062 15.445312 4.539062 15.484375 C 4.546875 15.621094 4.542969 15.617188 4.632812 15.617188 C 4.71875 15.617188 4.71875 15.617188 4.722656 15.707031 L 4.730469 15.796875 L 4.894531 15.792969 L 5.0625 15.789062 L 5.074219 15.699219 C 5.085938 15.617188 5.089844 15.613281 5.164062 15.613281 L 5.242188 15.617188 L 5.25 15.445312 L 5.253906 15.273438 L 5.171875 15.273438 C 5.089844 15.273438 5.039062 15.191406 5.058594 15.097656 C 5.0625 15.089844 5.039062 15.085938 5.007812 15.085938 C 4.808594 15.101562 4.726562 15.085938 4.726562 15.035156 C 4.726562 14.925781 4.714844 14.917969 4.535156 14.917969 L 4.371094 14.917969 L 4.367188 14.859375 C 4.367188 14.828125 4.367188 14.792969 4.367188 14.777344 C 4.371094 14.765625 4.359375 14.746094 4.347656 14.738281 C 4.332031 14.730469 4.328125 14.734375 4.339844 14.75 C 4.351562 14.769531 4.347656 14.773438 4.328125 14.761719 C 4.292969 14.738281 4.265625 14.734375 4.007812 14.734375 L 3.824219 14.730469 L 3.824219 14.5625 L 3.742188 14.5625 C 3.664062 14.5625 3.65625 14.558594 3.65625 14.507812 C 3.648438 14.375 3.660156 14.382812 3.527344 14.378906 L 3.46875 14.375 L 3.46875 14.023438 L 4.015625 14.023438 L 4.015625 14.117188 C 4.015625 14.167969 4.019531 14.207031 4.03125 14.207031 C 4.039062 14.207031 4.117188 14.207031 4.207031 14.207031 L 4.371094 14.210938 L 4.371094 14.269531 C 4.371094 14.359375 4.40625 14.375 4.574219 14.375 L 4.726562 14.375 L 4.726562 14.46875 C 4.726562 14.558594 4.726562 14.558594 4.800781 14.558594 C 4.890625 14.554688 4.894531 14.5625 4.898438 14.65625 L 4.902344 14.730469 L 5.253906 14.730469 L 5.253906 14.789062 C 5.257812 14.820312 5.257812 14.859375 5.257812 14.875 C 5.261719 14.902344 5.308594 14.90625 5.519531 14.910156 L 5.777344 14.910156 L 5.773438 14.648438 L 5.765625 14.386719 L 5.59375 14.382812 L 5.421875 14.375 L 5.417969 14.308594 C 5.417969 14.269531 5.417969 14.234375 5.417969 14.226562 C 5.417969 14.21875 5.382812 14.210938 5.335938 14.210938 C 5.257812 14.210938 5.253906 14.207031 5.253906 14.152344 C 5.253906 14.121094 5.242188 14.082031 5.226562 14.066406 C 5.203125 14.042969 5.207031 14.039062 5.230469 14.054688 C 5.25 14.066406 5.253906 14.0625 5.242188 14.046875 C 5.234375 14.03125 5.164062 14.023438 5.0625 14.023438 L 4.894531 14.023438 L 4.894531 13.855469 L 4.8125 13.855469 C 4.734375 13.855469 4.726562 13.851562 4.726562 13.796875 C 4.726562 13.699219 4.703125 13.683594 4.523438 13.671875 L 4.355469 13.664062 L 4.359375 13.585938 C 4.359375 13.503906 4.371094 13.507812 4.148438 13.503906 L 4 13.5 L 4.007812 13.417969 L 4.019531 13.335938 L 3.824219 13.335938 L 3.824219 13.257812 C 3.820312 13.214844 3.820312 13.171875 3.820312 13.164062 C 3.824219 13.160156 3.808594 13.152344 3.789062 13.152344 C 3.652344 13.152344 3.65625 13.164062 3.65625 12.972656 L 3.65625 12.796875 L 3.734375 12.789062 C 3.808594 12.78125 3.816406 12.777344 3.820312 12.703125 C 3.828125 12.625 3.828125 12.625 3.921875 12.625 C 4.015625 12.625 4.035156 12.660156 4.015625 12.777344 C 4.015625 12.785156 4.09375 12.792969 4.191406 12.792969 L 4.367188 12.792969 L 4.375 12.882812 C 4.382812 12.96875 4.382812 12.96875 4.460938 12.976562 C 4.539062 12.984375 4.554688 13.011719 4.539062 13.121094 C 4.539062 13.136719 4.546875 13.148438 4.5625 13.144531 C 4.578125 13.144531 4.660156 13.144531 4.742188 13.144531 L 4.894531 13.148438 L 4.894531 13.230469 C 4.894531 13.308594 4.894531 13.3125 4.988281 13.324219 C 5.082031 13.339844 5.085938 13.339844 5.085938 13.417969 C 5.085938 13.488281 5.085938 13.492188 5.164062 13.5 C 5.257812 13.503906 5.25 13.496094 5.253906 13.589844 C 5.261719 13.664062 5.265625 13.667969 5.335938 13.667969 C 5.410156 13.667969 5.414062 13.671875 5.433594 13.757812 C 5.441406 13.804688 5.464844 13.847656 5.476562 13.847656 C 5.492188 13.847656 5.566406 13.851562 5.640625 13.851562 C 5.773438 13.855469 5.777344 13.855469 5.777344 13.914062 C 5.777344 13.992188 5.8125 14.023438 5.898438 14.023438 C 5.964844 14.023438 5.964844 14.023438 5.964844 14.113281 L 5.964844 14.207031 L 6.492188 14.207031 L 6.488281 14.035156 L 6.484375 13.867188 L 6.410156 13.859375 C 6.320312 13.855469 6.320312 13.855469 6.316406 13.765625 C 6.3125 13.695312 6.308594 13.691406 6.222656 13.675781 C 6.148438 13.664062 6.132812 13.65625 6.132812 13.617188 C 6.132812 13.527344 6.113281 13.5 6.035156 13.5 C 5.964844 13.5 5.953125 13.480469 5.964844 13.371094 C 5.96875 13.351562 5.960938 13.335938 5.953125 13.335938 C 5.941406 13.339844 5.898438 13.339844 5.855469 13.335938 L 5.777344 13.335938 L 5.777344 13.148438 L 5.695312 13.148438 C 5.613281 13.148438 5.609375 13.144531 5.605469 13.070312 C 5.597656 12.992188 5.597656 12.992188 5.507812 12.984375 L 5.421875 12.976562 L 5.421875 12.625 L 5.335938 12.625 C 5.25 12.625 5.238281 12.605469 5.25 12.476562 C 5.253906 12.445312 5.238281 12.4375 5.171875 12.4375 C 5.089844 12.4375 5.085938 12.4375 5.074219 12.355469 C 5.066406 12.308594 5.054688 12.273438 5.046875 12.273438 C 5.039062 12.277344 5 12.277344 4.964844 12.273438 L 4.894531 12.273438 L 4.894531 11.730469 L 5.253906 11.730469 Z M 15.75 11.789062 C 15.753906 11.90625 15.753906 11.90625 15.835938 11.914062 L 15.914062 11.921875 L 15.914062 12.273438 L 15.828125 12.273438 C 15.746094 12.273438 15.746094 12.273438 15.746094 12.351562 C 15.746094 12.4375 15.691406 12.476562 15.609375 12.445312 C 15.589844 12.441406 15.578125 12.441406 15.578125 12.453125 C 15.601562 12.578125 15.578125 12.625 15.488281 12.625 C 15.398438 12.625 15.394531 12.625 15.394531 12.703125 C 15.390625 12.796875 15.386719 12.796875 15.300781 12.796875 L 15.226562 12.796875 L 15.222656 12.964844 C 15.21875 13.164062 15.230469 13.144531 15.121094 13.152344 L 15.03125 13.152344 L 15.03125 13.335938 L 14.863281 13.335938 L 14.863281 13.5 L 14.675781 13.5 L 14.675781 13.582031 C 14.675781 13.660156 14.671875 13.664062 14.589844 13.679688 C 14.511719 13.691406 14.507812 13.695312 14.507812 13.773438 C 14.507812 13.859375 14.492188 13.867188 14.34375 13.859375 C 14.316406 13.859375 14.3125 13.957031 14.332031 14.113281 L 14.34375 14.207031 L 14.601562 14.203125 L 14.855469 14.199219 L 14.855469 14.117188 C 14.855469 14.03125 14.855469 14.03125 14.941406 14.027344 C 15.03125 14.019531 15.03125 14.019531 15.03125 13.9375 L 15.03125 13.855469 L 15.390625 13.855469 L 15.390625 13.761719 C 15.390625 13.671875 15.390625 13.671875 15.46875 13.664062 C 15.539062 13.660156 15.546875 13.652344 15.566406 13.578125 C 15.585938 13.503906 15.628906 13.484375 15.730469 13.5 C 15.738281 13.5 15.746094 13.496094 15.742188 13.484375 C 15.726562 13.382812 15.75 13.339844 15.824219 13.324219 C 15.898438 13.304688 15.902344 13.296875 15.910156 13.226562 L 15.917969 13.148438 L 16.066406 13.144531 C 16.152344 13.144531 16.230469 13.144531 16.242188 13.144531 C 16.257812 13.148438 16.269531 13.113281 16.273438 13.058594 C 16.28125 12.976562 16.285156 12.972656 16.34375 12.96875 C 16.417969 12.96875 16.460938 12.945312 16.457031 12.910156 C 16.441406 12.789062 16.429688 12.792969 16.816406 12.792969 L 17.171875 12.792969 L 17.171875 13.144531 L 17.085938 13.152344 C 16.992188 13.15625 16.992188 13.15625 16.988281 13.285156 C 16.984375 13.332031 16.972656 13.332031 16.8125 13.339844 L 16.636719 13.34375 L 16.632812 13.421875 C 16.625 13.503906 16.597656 13.515625 16.484375 13.503906 C 16.46875 13.5 16.460938 13.527344 16.460938 13.582031 L 16.460938 13.664062 L 16.308594 13.675781 C 16.09375 13.691406 16.101562 13.6875 16.101562 13.777344 L 16.101562 13.855469 L 15.921875 13.855469 C 15.792969 13.855469 15.746094 13.863281 15.746094 13.882812 C 15.761719 13.992188 15.746094 14.019531 15.667969 14.027344 C 15.589844 14.03125 15.589844 14.035156 15.582031 14.121094 L 15.574219 14.210938 L 15.222656 14.210938 L 15.21875 14.296875 C 15.210938 14.386719 15.210938 14.386719 15.128906 14.386719 L 15.042969 14.386719 L 15.042969 14.90625 L 15.300781 14.910156 C 15.441406 14.914062 15.554688 14.90625 15.554688 14.898438 C 15.550781 14.894531 15.558594 14.851562 15.566406 14.808594 L 15.582031 14.730469 L 15.734375 14.726562 C 15.816406 14.726562 15.890625 14.726562 15.898438 14.726562 C 15.90625 14.730469 15.914062 14.691406 15.914062 14.648438 L 15.914062 14.5625 L 16.101562 14.5625 L 16.101562 14.375 L 16.449219 14.375 L 16.457031 14.300781 C 16.464844 14.203125 16.429688 14.210938 16.726562 14.207031 L 16.984375 14.207031 L 16.984375 14.023438 L 17.339844 14.023438 L 17.339844 14.386719 L 17.261719 14.386719 C 17.183594 14.386719 17.183594 14.386719 17.175781 14.472656 L 17.171875 14.5625 L 17 14.566406 L 16.828125 14.574219 L 16.8125 14.730469 L 16.703125 14.734375 C 16.648438 14.734375 16.59375 14.734375 16.539062 14.734375 C 16.484375 14.734375 16.460938 14.769531 16.460938 14.871094 C 16.460938 14.917969 16.457031 14.917969 16.199219 14.917969 L 15.9375 14.917969 L 15.925781 15 C 15.910156 15.078125 15.90625 15.082031 15.832031 15.089844 C 15.761719 15.09375 15.757812 15.097656 15.75 15.175781 C 15.742188 15.277344 15.75 15.269531 15.65625 15.277344 C 15.582031 15.28125 15.578125 15.285156 15.578125 15.359375 L 15.578125 15.4375 L 15.390625 15.4375 L 15.390625 15.789062 L 15.566406 15.789062 C 15.691406 15.789062 15.746094 15.78125 15.742188 15.765625 C 15.742188 15.753906 15.742188 15.714844 15.742188 15.683594 L 15.746094 15.628906 L 16.003906 15.621094 L 16.261719 15.617188 L 16.265625 15.527344 L 16.273438 15.4375 L 16.628906 15.4375 L 16.628906 15.273438 L 16.726562 15.269531 C 16.785156 15.269531 16.847656 15.269531 16.90625 15.273438 C 16.949219 15.273438 16.984375 15.269531 16.984375 15.257812 C 16.980469 15.25 16.980469 15.207031 16.980469 15.164062 L 16.984375 15.085938 L 17.339844 15.085938 L 17.339844 15.261719 C 17.339844 15.453125 17.34375 15.449219 17.21875 15.441406 C 17.1875 15.4375 17.171875 15.445312 17.175781 15.464844 C 17.175781 15.480469 17.175781 15.523438 17.175781 15.558594 L 17.171875 15.625 L 16.816406 15.625 L 16.816406 15.792969 L 16.664062 15.796875 C 16.582031 15.796875 16.5 15.796875 16.484375 15.792969 C 16.46875 15.792969 16.460938 15.824219 16.460938 15.886719 L 16.460938 15.980469 L 15.9375 15.980469 L 15.925781 16.0625 L 15.910156 16.148438 L 15.648438 16.148438 C 15.410156 16.148438 15.386719 16.152344 15.390625 16.183594 C 15.394531 16.203125 15.394531 16.246094 15.390625 16.277344 L 15.390625 16.335938 L 14.863281 16.335938 L 14.863281 16.5 L 12.722656 16.5 L 12.722656 16.445312 C 12.71875 16.414062 12.71875 16.375 12.722656 16.359375 C 12.726562 16.34375 12.679688 16.335938 12.546875 16.335938 L 12.367188 16.335938 L 12.363281 16.257812 C 12.363281 16.214844 12.363281 16.171875 12.363281 16.164062 C 12.367188 16.15625 12.324219 16.148438 12.273438 16.148438 L 12.179688 16.148438 L 12.179688 15.980469 L 12.011719 15.980469 L 12.007812 15.820312 C 12.007812 15.730469 12.003906 15.652344 12.007812 15.644531 C 12.007812 15.640625 11.972656 15.632812 11.929688 15.628906 C 11.835938 15.625 11.84375 15.652344 11.839844 15.371094 C 11.839844 15.230469 11.828125 15.125 11.816406 15.125 C 11.808594 15.125 11.804688 15.117188 11.8125 15.101562 C 11.824219 15.085938 11.808594 15.082031 11.769531 15.089844 C 11.675781 15.105469 11.652344 15.089844 11.652344 15 C 11.652344 14.914062 11.675781 14.894531 11.769531 14.914062 C 11.808594 14.921875 11.824219 14.917969 11.8125 14.898438 C 11.804688 14.886719 11.808594 14.875 11.820312 14.875 C 11.835938 14.875 11.84375 14.855469 11.839844 14.828125 C 11.839844 14.804688 11.839844 14.734375 11.839844 14.671875 L 11.84375 14.5625 L 11.925781 14.5625 C 11.972656 14.5625 12.007812 14.558594 12.007812 14.546875 C 11.988281 14.421875 12.011719 14.375 12.09375 14.375 L 12.179688 14.375 L 12.179688 14.292969 C 12.179688 14.207031 12.210938 14.191406 12.339844 14.207031 C 12.359375 14.210938 12.367188 14.179688 12.367188 14.117188 L 12.367188 14.023438 L 12.535156 14.023438 L 12.535156 13.667969 L 12.628906 13.667969 C 12.695312 13.667969 12.722656 13.660156 12.722656 13.640625 C 12.707031 13.527344 12.722656 13.5 12.804688 13.5 L 12.886719 13.5 L 12.890625 13.328125 C 12.894531 13.128906 12.882812 13.148438 12.992188 13.144531 C 13.042969 13.140625 13.078125 13.128906 13.078125 13.117188 C 13.078125 13.105469 13.078125 13.027344 13.078125 12.945312 L 13.082031 12.792969 L 13.25 12.792969 L 13.25 12.4375 L 13.34375 12.4375 C 13.429688 12.4375 13.441406 12.433594 13.4375 12.390625 C 13.433594 12.367188 13.433594 12.285156 13.433594 12.214844 L 13.4375 12.085938 L 13.792969 12.085938 L 13.796875 12.152344 C 13.796875 12.191406 13.796875 12.230469 13.796875 12.246094 C 13.792969 12.261719 13.820312 12.269531 13.871094 12.265625 L 13.953125 12.261719 L 13.957031 12.621094 L 13.964844 12.980469 L 13.894531 12.984375 C 13.855469 12.984375 13.820312 12.984375 13.808594 12.984375 C 13.800781 12.980469 13.792969 13.015625 13.792969 13.0625 C 13.792969 13.144531 13.792969 13.144531 13.707031 13.152344 C 13.617188 13.15625 13.617188 13.160156 13.613281 13.234375 C 13.609375 13.332031 13.609375 13.332031 13.519531 13.335938 C 13.449219 13.34375 13.445312 13.347656 13.441406 13.417969 C 13.433594 13.503906 13.441406 13.5 13.34375 13.507812 L 13.257812 13.511719 L 13.257812 13.84375 L 13.347656 13.851562 C 13.4375 13.859375 13.457031 13.894531 13.441406 14.007812 C 13.4375 14.023438 13.882812 14.027344 13.929688 14.007812 C 13.949219 14 13.960938 13.972656 13.960938 13.925781 C 13.960938 13.859375 13.964844 13.859375 14.050781 13.851562 L 14.140625 13.84375 L 14.148438 13.679688 C 14.15625 13.484375 14.144531 13.5 14.242188 13.496094 C 14.28125 13.496094 14.316406 13.488281 14.316406 13.484375 C 14.316406 13.476562 14.316406 13.398438 14.316406 13.308594 L 14.320312 13.148438 L 14.410156 13.144531 C 14.460938 13.140625 14.5 13.125 14.5 13.109375 C 14.5 13.097656 14.503906 13.0625 14.503906 13.03125 C 14.507812 12.988281 14.519531 12.980469 14.578125 12.980469 C 14.667969 12.980469 14.675781 12.960938 14.675781 12.773438 L 14.675781 12.628906 L 14.765625 12.621094 C 14.855469 12.617188 14.855469 12.617188 14.863281 12.496094 C 14.863281 12.445312 14.871094 12.4375 14.945312 12.4375 C 15 12.4375 15.027344 12.429688 15.027344 12.414062 C 15.027344 12.398438 15.027344 12.320312 15.03125 12.234375 L 15.03125 12.085938 L 15.113281 12.085938 C 15.199219 12.085938 15.222656 12.0625 15.222656 11.96875 C 15.222656 11.917969 15.304688 11.902344 15.5 11.917969 C 15.53125 11.917969 15.554688 11.914062 15.554688 11.902344 C 15.550781 11.894531 15.558594 11.851562 15.566406 11.808594 C 15.589844 11.703125 15.746094 11.683594 15.75 11.789062 L 14.699219 11.789062 Z M 15.75 11.789062 L 14.699219 11.789062 Z M 15.75 11.789062 "/>
</g>
</svg>
