<svg xmlns="http://www.w3.org/2000/svg" viewBox="-5.96046e-8 -5.96046e-8 409.6 412.8">
	<path d="M 175.294 0.812 c 0 0.785 -0.34 0.816 -10.342 0.922 c -8.841 0.093 -10.35 0.199 -10.397 0.724 c -0.03 0.338 -0.076 1.121 -0.102 1.741 l -0.047 1.126 h -10.239 v 3.277 h -4.628 c -3.135 0 -4.806 0.165 -5.18 0.512 c -0.445 0.414 -0.488 0.402 -0.223 -0.063 c 0.225 -0.394 0.173 -0.479 -0.164 -0.27 c -0.271 0.167 -0.463 0.61 -0.426 0.984 c 0.256 2.614 0.441 2.524 -5.147 2.524 h -5.12 v 3.277 l -2.969 0.048 c -1.633 0.027 -3.2 0.019 -3.481 -0.017 c -0.344 -0.045 -0.512 0.543 -0.512 1.794 V 19.25 h -3.5 c -2.562 0 -3.481 0.137 -3.432 0.512 c 0.037 0.282 0.044 1.019 0.017 1.638 L 109.354 22.526 h -3.481 c -1.915 0 -3.46 0.138 -3.433 0.307 s 0.027 0.998 0 1.843 L 102.391 26.212 h -6.963 v 3.277 H 92.152 V 32.765 h -2.201 c -4.116 0 -4.761 0.285 -4.761 2.099 c 0 1.62 -0.641 1.946 -3.174 1.618 c -0.335 -0.044 -0.512 0.498 -0.512 1.565 c 0 1.59 -0.039 1.635 -1.536 1.759 c -1.491 0.123 -1.54 0.178 -1.662 1.868 l -0.126 1.741 H 71.264 V 45.052 c 0 1.503 -0.093 1.642 -1.126 1.685 c -2.583 0.109 -2.404 -0.071 -2.513 2.513 c -0.043 1.033 -0.182 1.126 -1.685 1.126 h -1.638 v 3.493 l -1.741 -0.005 l -1.741 -0.006 l 0.006 1.741 l 0.005 1.741 H 57.339 v 1.638 c 0 1.018 -0.194 1.653 -0.512 1.676 c -0.282 0.02 -1.061 0.067 -1.732 0.102 c -1.117 0.059 -1.227 0.197 -1.283 1.621 c -0.077 1.899 -0.043 1.864 -1.915 1.99 c -1.469 0.098 -1.521 0.155 -1.521 1.657 c 0 1.58 -0.517 1.877 -2.765 1.585 c -0.523 -0.069 -0.601 0.168 -0.687 2.096 c -0.063 1.409 -0.175 1.502 -1.932 1.621 c -0.804 0.054 -1.459 0.293 -1.456 0.53 s -0.023 1.768 -0.058 3.401 l -0.065 2.969 h -1.602 c -1.55 0 -1.611 0.053 -1.879 1.638 c -0.268 1.588 -0.326 1.638 -1.897 1.638 c -1.059 0 -1.597 0.177 -1.553 0.512 c 0.332 2.558 0.008 3.174 -1.669 3.174 h -1.638 v 6.46 l -1.843 0.276 c -1.826 0.273 -1.843 0.292 -1.843 1.89 c 0 1.609 -0.004 1.613 -1.638 1.613 h -1.638 v 6.963 h -1.79 c -1.432 0 -1.789 0.143 -1.787 0.717 c 0.001 0.394 -0.023 1.961 -0.053 3.481 L 22.526 109.354 h -3.277 v 6.963 l -1.536 0.048 c -0.845 0.027 -1.683 0.025 -1.862 -0.006 s -0.296 0.178 -0.259 0.464 c 0.038 0.285 0.046 1.854 0.019 3.487 l -0.048 2.969 H 12.287 v 10.239 l -1.126 0.048 c -0.619 0.027 -1.331 0.025 -1.582 -0.005 c -0.584 -0.068 -0.978 2.827 -0.978 7.182 v 3.424 H 5.414 l -0.066 5.003 c -0.075 5.815 0.164 5.175 -1.987 5.322 L 1.639 154.611 v 10.342 c -0.001 10.068 -0.023 10.342 -0.82 10.342 c -0.812 0 -0.819 0.273 -0.819 31.127 S 0.007 237.548 0.819 237.548 c 0.771 0 1.264 9.522 0.831 16.075 c -0.076 1.146 0.026 1.208 2.114 1.301 c 1.572 0.071 1.521 -0.159 1.58 7.112 l 0.053 6.638 H 8.601 v 3.424 c 0 4.355 0.394 7.249 0.978 7.182 c 0.251 -0.03 0.962 -0.032 1.582 -0.005 l 1.126 0.048 v 10.239 h 3.277 l 0.048 2.969 c 0.027 1.633 0.018 3.203 -0.019 3.487 c -0.037 0.286 0.08 0.494 0.259 0.464 c 0.179 -0.031 1.018 -0.033 1.862 -0.006 l 1.536 0.048 v 6.963 H 22.526 l 0.056 2.765 c 0.031 1.521 0.054 3.087 0.053 3.481 c -0.002 0.573 0.354 0.717 1.787 0.717 c 1.705 0 1.79 0.057 1.79 1.195 c 0 1.993 0.378 2.491 1.887 2.491 H 29.489 v 6.503 l 1.843 0.276 l 1.843 0.276 V 327.652 H 34.813 c 1.677 0 2.001 0.616 1.669 3.174 c -0.044 0.335 0.495 0.512 1.553 0.512 c 1.572 0 1.629 0.05 1.897 1.638 c 0.268 1.585 0.329 1.638 1.879 1.638 H 43.414 l 0.065 2.969 c 0.036 1.633 0.062 3.164 0.058 3.401 s 0.652 0.476 1.456 0.53 c 1.757 0.119 1.869 0.212 1.932 1.621 c 0.086 1.928 0.164 2.165 0.687 2.096 c 2.247 -0.292 2.765 0.005 2.765 1.585 c 0 1.502 0.051 1.558 1.521 1.657 c 1.872 0.127 1.838 0.091 1.915 1.99 c 0.056 1.424 0.166 1.561 1.283 1.621 c 0.672 0.036 1.451 0.082 1.732 0.102 c 0.318 0.024 0.512 0.658 0.512 1.676 v 1.638 h 3.493 l -0.005 1.741 l -0.006 1.741 l 1.741 -0.006 l 1.741 -0.005 V 362.465 h 1.638 c 1.503 0 1.642 0.093 1.685 1.126 c 0.109 2.583 -0.071 2.404 2.513 2.513 c 1.033 0.043 1.126 0.182 1.126 1.685 v 1.638 h 6.916 l 0.126 1.741 c 0.122 1.689 0.171 1.745 1.662 1.868 c 1.497 0.124 1.536 0.169 1.536 1.759 c 0 1.067 0.177 1.609 0.512 1.565 c 2.533 -0.329 3.174 -0.002 3.174 1.618 c 0 1.814 0.645 2.099 4.761 2.099 H 92.152 v 3.277 h 3.277 v 3.277 h 6.963 l 0.048 1.536 c 0.027 0.845 0.027 1.674 0 1.843 s 1.518 0.307 3.433 0.307 h 3.481 l 0.048 1.126 c 0.027 0.619 0.019 1.357 -0.017 1.638 c -0.049 0.375 0.87 0.512 3.432 0.512 h 3.5 v 1.861 c 0 1.251 0.168 1.839 0.512 1.794 c 0.282 -0.037 1.848 -0.044 3.481 -0.017 l 2.969 0.048 v 3.277 h 5.12 c 5.589 0 5.403 -0.09 5.147 2.524 c -0.037 0.374 0.155 0.817 0.426 0.984 c 0.337 0.209 0.389 0.124 0.164 -0.27 c -0.265 -0.466 -0.222 -0.477 0.223 -0.063 c 0.328 0.304 1.667 0.512 3.293 0.512 c 2.868 0 3.718 0.733 3.003 2.594 c -0.201 0.525 0.73 0.618 6.639 0.663 c 3.779 0.029 6.92 0.1 6.979 0.159 c 0.058 0.059 0.163 0.836 0.23 1.724 l 0.124 1.618 l 8.695 0.111 c 8.356 0.106 8.695 0.142 8.695 0.922 c 0 0.801 0.377 0.811 31.127 0.811 c 30.764 0 31.127 -0.009 31.127 -0.812 c 0 -0.785 0.34 -0.816 10.342 -0.922 c 8.841 -0.093 10.35 -0.199 10.397 -0.724 c 0.03 -0.338 0.076 -1.121 0.102 -1.741 l 0.047 -1.126 h 10.239 v -3.277 h 4.628 c 3.135 0 4.806 -0.165 5.18 -0.512 c 0.445 -0.414 0.488 -0.402 0.223 0.063 c -0.225 0.394 -0.173 0.479 0.164 0.27 c 0.271 -0.167 0.463 -0.61 0.426 -0.984 c -0.256 -2.614 -0.441 -2.524 5.147 -2.524 h 5.12 V 397.278 l 2.969 -0.048 c 1.633 -0.027 3.2 -0.019 3.481 0.017 c 0.344 0.045 0.512 -0.543 0.512 -1.794 V 393.592 h 3.5 c 2.562 0 3.481 -0.137 3.432 -0.512 c -0.037 -0.282 -0.044 -1.019 -0.017 -1.638 l 0.048 -1.126 h 3.481 c 1.915 0 3.46 -0.138 3.433 -0.307 s -0.027 -0.998 0 -1.843 l 0.048 -1.536 h 6.963 v -3.277 h 3.277 v -3.277 h 2.201 c 4.116 0 4.761 -0.285 4.761 -2.099 c 0 -1.62 0.641 -1.946 3.174 -1.618 c 0.335 0.044 0.512 -0.498 0.512 -1.565 c 0 -1.59 0.039 -1.635 1.536 -1.759 c 1.491 -0.123 1.54 -0.178 1.662 -1.868 l 0.126 -1.741 h 6.916 v -1.638 c 0 -1.503 0.093 -1.642 1.126 -1.685 c 2.583 -0.109 2.404 0.071 2.513 -2.513 c 0.043 -1.033 0.182 -1.126 1.685 -1.126 h 1.638 v -3.493 l 1.741 0.005 l 1.741 0.006 l -0.006 -1.741 l -0.005 -1.741 H 352.226 v -1.638 c 0 -1.018 0.194 -1.653 0.512 -1.676 c 0.282 -0.02 1.061 -0.067 1.732 -0.102 c 1.117 -0.059 1.227 -0.197 1.283 -1.621 c 0.077 -1.899 0.043 -1.864 1.915 -1.99 c 1.469 -0.098 1.521 -0.155 1.521 -1.657 c 0 -1.58 0.517 -1.877 2.765 -1.585 c 0.523 0.069 0.601 -0.168 0.687 -2.096 c 0.063 -1.409 0.175 -1.502 1.932 -1.621 c 0.804 -0.054 1.459 -0.293 1.456 -0.53 s 0.023 -1.768 0.058 -3.401 l 0.065 -2.969 h 1.602 c 1.55 0 1.611 -0.053 1.879 -1.638 c 0.268 -1.588 0.326 -1.638 1.897 -1.638 c 1.059 0 1.597 -0.177 1.553 -0.512 c -0.332 -2.558 -0.008 -3.174 1.669 -3.174 h 1.638 v -6.46 l 1.843 -0.276 c 1.826 -0.273 1.843 -0.292 1.843 -1.89 c 0 -1.609 0.004 -1.613 1.638 -1.613 h 1.638 v -6.963 h 1.79 c 1.432 0 1.789 -0.143 1.787 -0.717 c -0.001 -0.394 0.023 -1.961 0.053 -3.481 l 0.056 -2.765 h 3.277 v -6.963 l 1.536 -0.048 c 0.845 -0.027 1.683 -0.025 1.862 0.006 s 0.296 -0.178 0.259 -0.464 c -0.038 -0.285 -0.046 -1.854 -0.019 -3.487 l 0.048 -2.969 h 3.277 v -10.239 l 1.126 -0.048 c 0.619 -0.027 1.331 -0.025 1.582 0.005 c 0.584 0.068 0.978 -2.827 0.978 -7.182 V 268.675 h 3.186 l 0.066 -5.003 c 0.075 -5.815 -0.164 -5.175 1.987 -5.322 l 1.722 -0.119 v -10.342 c 0.001 -10.068 0.023 -10.342 0.82 -10.342 c 0.812 0 0.819 -0.273 0.819 -31.127 s -0.007 -31.127 -0.819 -31.127 c -0.733 0 -1.365 -11.495 -0.85 -15.461 c 0.057 -0.436 -2.421 -0.775 -2.998 -0.41 c -1.498 0.948 -2.507 -4.574 -1.264 -6.916 c 0.419 -0.789 0.601 -2.179 0.559 -4.245 l -0.063 -3.072 l -1.708 0.137 c -2.389 0.192 -2.963 -0.556 -2.284 -2.977 c 0.279 -0.996 0.717 -1.762 0.974 -1.703 s 0.329 0.03 0.16 -0.065 s -0.333 -1.769 -0.362 -3.721 c -0.031 -1.953 -0.133 -3.155 -0.228 -2.672 c -0.144 0.739 -0.428 0.865 -1.797 0.795 c -2.477 -0.126 -3.029 -0.897 -2.246 -3.141 c 0.366 -1.052 0.632 -3.219 0.635 -5.186 l 0.006 -3.379 h -3.277 l -0.048 -2.969 c -0.027 -1.633 -0.018 -3.203 0.019 -3.487 c 0.037 -0.286 -0.08 -0.494 -0.259 -0.464 c -0.179 0.031 -1.018 0.033 -1.862 0.006 l -1.536 -0.048 V 110.583 h -1.793 c -2.555 0 -3.05 -0.729 -2.177 -3.2 c 1.218 -3.449 0.831 -4.992 -1.252 -4.992 c -1.651 0 -1.741 -0.062 -1.741 -1.195 c 0 -1.993 -0.378 -2.491 -1.887 -2.491 H 380.077 v -2.662 c 0 -2.82 0.017 -2.8 -2.27 -2.68 c -1.996 0.104 -2.82 -1.101 -2.037 -2.978 c 0.341 -0.816 0.62 -2.319 0.62 -3.34 V 85.19 H 374.752 c -1.677 0 -2.001 -0.616 -1.669 -3.174 c 0.044 -0.336 -0.502 -0.512 -1.589 -0.512 c -1.367 0 -1.657 -0.139 -1.657 -0.795 c 0 -1.03 -0.711 -1.447 -2.246 -1.317 c -2.138 0.181 -2.922 -0.75 -2.322 -2.754 c 0.279 -0.928 0.663 -1.687 0.856 -1.687 s 0.197 -0.681 0.008 -1.513 c -0.187 -0.832 -0.272 -1.625 -0.187 -1.761 c 0.084 -0.136 -0.519 -0.293 -1.341 -0.348 c -1.792 -0.121 -1.9 -0.211 -1.964 -1.623 c -0.086 -1.928 -0.164 -2.165 -0.687 -2.096 c -2.247 0.292 -2.765 -0.005 -2.765 -1.585 c 0 -1.502 -0.051 -1.558 -1.521 -1.657 c -1.872 -0.127 -1.838 -0.091 -1.915 -1.99 c -0.056 -1.424 -0.166 -1.561 -1.283 -1.621 c -0.672 -0.036 -1.451 -0.082 -1.732 -0.102 c -0.318 -0.024 -0.512 -0.658 -0.512 -1.676 V 57.339 h -3.493 l 0.005 -1.741 l 0.006 -1.741 l -1.741 0.006 l -1.741 0.005 V 50.377 h -1.638 c -1.503 0 -1.642 -0.093 -1.685 -1.126 c -0.109 -2.583 0.071 -2.404 -2.513 -2.513 c -1.033 -0.043 -1.126 -0.182 -1.126 -1.685 v -1.638 h -6.916 l -0.126 -1.741 c -0.122 -1.689 -0.171 -1.745 -1.662 -1.868 c -1.497 -0.124 -1.536 -0.169 -1.536 -1.759 c 0 -1.067 -0.177 -1.609 -0.512 -1.565 c -2.533 0.329 -3.174 0.002 -3.174 -1.618 c 0 -1.814 -0.645 -2.099 -4.761 -2.099 H 317.413 v -3.277 h -3.277 v -3.277 H 307.174 l -0.048 -1.536 c -0.027 -0.845 -0.027 -1.674 0 -1.843 s -1.518 -0.307 -3.433 -0.307 h -3.481 l -0.048 -1.126 c -0.027 -0.619 -0.019 -1.357 0.017 -1.638 c 0.049 -0.375 -0.87 -0.512 -3.432 -0.512 H 293.249 v -1.861 c 0 -1.251 -0.168 -1.839 -0.512 -1.794 c -0.282 0.037 -1.848 0.044 -3.481 0.017 l -2.969 -0.048 V 12.287 h -5.12 c -5.589 0 -5.403 0.09 -5.147 -2.524 c 0.037 -0.374 -0.155 -0.817 -0.426 -0.984 c -0.337 -0.209 -0.389 -0.124 -0.164 0.27 c 0.265 0.466 0.222 0.477 -0.223 0.063 c -0.328 -0.304 -1.667 -0.512 -3.293 -0.512 c -2.868 0 -3.718 -0.733 -3.003 -2.594 c 0.201 -0.525 -0.73 -0.618 -6.639 -0.663 c -3.779 -0.029 -6.92 -0.1 -6.979 -0.159 c -0.058 -0.059 -0.163 -0.836 -0.23 -1.724 l -0.124 -1.618 l -8.695 -0.111 c -8.356 -0.106 -8.695 -0.142 -8.695 -0.922 C 237.548 0.01 237.171 0 206.421 0 c -30.764 0 -31.127 0.009 -31.127 0.812 M 224.111 76.282 l 0.126 1.741 l 6.86 0.113 l 6.86 0.112 l 0.048 1.322 c 0.027 0.726 0.027 1.459 0 1.628 s 2.256 0.307 5.071 0.307 h 5.12 v 1.57 c 0 1.757 -0.164 1.676 3.993 1.972 c 3.131 0.223 3.304 0.387 3.012 2.855 c -0.036 0.3 1.11 0.483 3.314 0.53 c 3.926 0.083 3.543 -0.095 3.665 1.713 c 0.09 1.337 0.203 1.45 1.54 1.54 c 1.79 0.12 1.789 0.119 1.84 1.997 L 265.603 95.224 l 3.481 0.205 l 3.481 0.205 l -0.134 1.536 l -0.133 1.536 h 3.749 v 1.843 c 0 1.014 0.138 1.822 0.307 1.795 c 2.246 -0.355 2.969 0.055 2.969 1.686 v 1.638 h 3.686 v 1.802 c 0 1.792 0.008 1.803 1.421 1.762 c 1.773 -0.05 2.027 0.204 1.977 1.977 c -0.041 1.413 -0.03 1.421 1.762 1.421 h 1.802 v 1.887 c 0 1.793 0.05 1.875 0.991 1.639 c 1.664 -0.418 2.285 0.083 2.285 1.842 c 0 0.876 0.138 1.573 0.307 1.546 s 0.998 -0.027 1.843 0 l 1.536 0.048 v 3.727 l 1.638 -0.164 l 1.638 -0.164 l 0.051 3.01 c 0.029 1.656 0.076 3.241 0.104 3.522 c 0.033 0.315 0.683 0.512 1.689 0.512 h 1.636 l 0.205 3.481 l 0.205 3.481 l 1.536 0.127 l 1.536 0.127 l 0.048 2.945 c 0.027 1.62 0.032 3.068 0.011 3.218 c -0.019 0.149 0.695 0.396 1.59 0.548 l 1.627 0.274 v 2.19 c 0 3.334 0.501 4.291 2.242 4.291 h 1.444 l 0.048 4.812 c 0.027 2.647 0.026 5.013 -0.002 5.258 s 0.62 0.471 1.443 0.502 c 1.933 0.073 1.758 -0.574 1.809 6.681 c 0.047 6.829 0.213 7.57 1.615 7.203 c 2.119 -0.555 2.05 -1.21 2.05 19.207 V 213.383 h -1.63 c -1.664 0 -2.336 0.843 -1.979 2.484 c 0.092 0.424 -0.355 0.623 -1.613 0.714 c -1.752 0.127 -2.172 -0.556 -1.785 -2.903 c 0.029 -0.176 -3.82 -0.301 -8.553 -0.279 l -8.605 0.042 v 3.185 l -3.379 0.119 l -3.379 0.119 l -0.126 1.741 l -0.126 1.741 H 286.286 v 3.481 l -4.994 -0.113 c -5.665 -0.128 -5.443 -0.046 -5.314 -1.967 l 0.096 -1.437 l -10.406 0.055 c -7.584 0.04 -10.402 0.184 -10.393 0.529 c 0.068 2.531 -0.06 2.727 -1.78 2.727 c -1.003 0 -1.561 0.162 -1.409 0.41 c 0.139 0.225 0.037 0.41 -0.227 0.41 c -0.302 0 -0.413 0.462 -0.297 1.247 c 0.214 1.461 0.113 1.553 -1.866 1.686 l -1.501 0.101 v 6.795 h -1.587 c -1.812 0 -2.099 0.646 -2.099 4.737 v 2.177 l -1.536 0.127 l -1.536 0.127 l -0.119 3.379 l -0.119 3.379 H 237.957 v 6.916 l -1.741 0.126 c -1.689 0.122 -1.745 0.171 -1.868 1.662 c -0.128 1.548 -0.673 1.848 -2.842 1.567 c -0.344 -0.045 -0.512 0.543 -0.512 1.794 V 262.122 h -1.861 c -1.251 0 -1.839 0.168 -1.794 0.512 c 0.037 0.282 0.044 1.74 0.017 3.241 L 227.309 268.603 l -1.638 0.276 c -1.585 0.268 -1.638 0.329 -1.638 1.879 c 0 1.64 -0.652 1.972 -3.204 1.626 c -0.3 -0.04 -0.508 0.259 -0.465 0.669 c 0.226 2.182 0.023 2.531 -1.553 2.662 l -1.536 0.127 l -0.119 3.379 c -0.128 3.621 0.027 3.406 -2.543 3.534 l -1.024 0.05 l -0.108 13.823 l -0.109 13.823 l -1.325 0.048 c -0.729 0.027 -1.464 0.027 -1.633 0 s -0.307 0.781 -0.307 1.795 v 1.843 H 192.496 l -0.008 -2.15 c -0.004 -1.183 -0.05 -8.232 -0.102 -15.666 l -0.094 -13.516 h -3.073 l 0.001 -3.379 c 0 -2.397 -0.148 -3.397 -0.512 -3.441 a 28.67 28.67 90 0 0 -1.741 -0.11 c -1.136 -0.042 -1.238 -0.173 -1.352 -1.714 c -0.118 -1.608 -0.177 -1.671 -1.593 -1.724 c -1.779 -0.067 -1.661 0.042 -1.854 -1.714 c -0.144 -1.31 -0.307 -1.467 -1.878 -1.819 l -1.719 -0.386 V 262.122 h -1.638 c -1.711 0 -1.923 -0.38 -1.66 -2.969 c 0.06 -0.589 -0.261 -0.717 -1.796 -0.717 H 171.608 v -3.277 h -3.277 l -0.048 -3.174 c -0.027 -1.746 -0.027 -3.312 0 -3.481 s -0.09 -0.286 -0.259 -0.259 s -0.906 0.027 -1.638 0 l -1.331 -0.048 l -0.041 -2.56 c -0.057 -3.635 -0.306 -4.172 -2.007 -4.34 c -1.788 -0.175 -1.591 0.255 -1.674 -3.663 l -0.072 -3.363 H 158.092 v -3.232 c 0 -3.511 -0.146 -3.73 -2.491 -3.73 c -1.074 0 -1.196 -0.135 -1.201 -1.331 c -0.009 -1.833 -0.498 -2.442 -1.884 -2.348 c -4.342 0.294 -5.072 0.088 -5.072 -1.432 c 0 -1.899 -0.002 -1.9 -11.263 -1.762 l -9.42 0.116 l -0.037 1.638 c -0.034 1.461 -0.138 1.624 -0.967 1.503 c -1.627 -0.239 -2.884 0.269 -2.629 1.061 c 0.187 0.583 0.152 0.604 -0.192 0.118 c -0.231 -0.327 -0.335 -0.734 -0.23 -0.903 s -0.229 -0.291 -0.743 -0.269 c -2.229 0.095 -2.368 -0.005 -2.368 -1.714 v -1.638 H 112.63 v -1.195 c 0 -2.345 -0.219 -2.491 -3.73 -2.491 H 105.668 v -3.302 l -8.612 0.042 c -6.351 0.031 -8.597 0.169 -8.553 0.525 c 0.267 2.157 -0.024 2.648 -1.666 2.804 l -1.628 0.155 l -0.113 -6.767 L 84.985 203.349 l -1.741 -0.126 l -1.741 -0.126 V 181.96 l 1.116 0.123 c 0.613 0.067 1.385 -0.096 1.716 -0.363 c 0.484 -0.391 0.533 -0.374 0.255 0.089 c -0.239 0.395 -0.196 0.481 0.137 0.276 c 0.266 -0.165 0.457 -0.516 0.424 -0.78 c -0.033 -0.265 -0.037 -4.121 -0.01 -8.57 l 0.048 -8.089 h 3.277 v -13.925 h 1.594 c 1.908 0 2.092 -0.342 2.092 -3.873 c 0 -2.66 0.336 -3.033 2.767 -3.075 c 0.168 -0.003 0.397 -1.518 0.51 -3.369 l 0.205 -3.365 l 1.413 -0.019 c 1.669 -0.023 1.964 -0.685 2.027 -4.555 l 0.041 -2.487 l 1.523 0.03 c 1.484 0.03 1.526 -0.01 1.652 -1.587 c 0.156 -1.955 0.013 -1.804 1.831 -1.927 c 0.821 -0.055 1.484 -0.202 1.472 -0.326 s 0.001 -1.654 0.028 -3.399 l 0.048 -3.174 h 1.776 c 1.763 0 1.778 -0.011 1.834 -1.506 c 0.066 -1.753 0.659 -2.271 2.226 -1.942 c 1.1 0.231 1.126 0.191 1.126 -1.638 V 112.63 h 1.759 c 1.739 0 1.761 -0.018 1.861 -1.521 c 0.127 -1.881 0.174 -1.927 1.921 -1.878 c 1.413 0.041 1.421 0.03 1.421 -1.762 v -1.802 h 1.802 c 1.792 0 1.803 -0.008 1.762 -1.421 c -0.049 -1.747 -0.003 -1.794 1.878 -1.921 c 1.5 -0.1 1.521 -0.125 1.521 -1.845 v -1.743 l 3.379 -0.119 l 3.379 -0.119 l 0.126 -1.513 c 0.121 -1.461 0.185 -1.517 1.843 -1.638 c 1.792 -0.13 1.755 -0.078 1.878 -2.685 c 0.042 -0.881 0.201 -0.922 3.546 -0.922 h 3.502 l -0.164 -1.638 l -0.164 -1.638 l 2.908 -0.047 c 4.369 -0.071 4.14 0.024 4.106 -1.694 l -0.03 -1.536 l 2.487 -0.041 c 3.87 -0.063 4.532 -0.358 4.556 -2.027 l 0.02 -1.413 l 5.201 -0.115 l 5.201 -0.115 V 78.227 l 5.427 -0.051 c 2.985 -0.029 5.934 -0.042 6.553 -0.029 c 0.619 0.012 1.126 -0.16 1.126 -0.382 c 0 -0.223 0.197 -0.285 0.437 -0.135 c 0.24 0.148 0.402 0.02 0.36 -0.284 c -0.041 -0.304 -0.053 -1.06 -0.027 -1.679 l 0.048 -1.126 h 41.729 z M 156.863 135.741 c 0 4.055 -5.312 5.638 -8.54 2.545 c -1.927 -1.847 -4.156 -1.561 -4.156 0.532 c 0 1.607 -0.008 1.616 -1.741 1.741 c -2.22 0.161 -2.926 3.029 -0.967 3.922 c 1.623 0.739 2.459 4.946 1.433 7.198 c -0.569 1.248 -1.975 1.908 -4.07 1.908 c -1.345 0 -1.619 0.138 -1.619 0.819 c 0 0.673 0.274 0.82 1.536 0.824 c 3.412 0.013 4.608 1.226 4.608 4.674 c 0 1.627 0.143 1.927 1.18 2.463 c 0.648 0.336 1.564 1.261 2.033 2.058 s 1.109 1.449 1.42 1.449 c 1.05 0 1.869 1.428 1.997 3.485 l 0.128 2.044 l 2.15 0.124 l 2.15 0.124 v -1.586 c 0 -1.176 -0.261 -1.813 -1.013 -2.467 c -1.945 -1.692 -1.876 -3.683 0.174 -4.929 c 0.68 -0.414 1.66 -1.382 2.179 -2.152 l 0.942 -1.401 l 4.081 -0.12 c 5.992 -0.176 6.742 0.272 6.742 4.03 c 0 1.345 0.138 1.619 0.819 1.619 c 0.696 0 0.819 -0.273 0.819 -1.821 c 0 -2.721 1.207 -3.923 3.993 -3.978 c 2.491 -0.049 2.588 -0.253 0.922 -1.92 c -0.846 -0.846 -1.229 -1.632 -1.229 -2.521 s 0.383 -1.675 1.229 -2.521 c 1.032 -1.032 1.229 -1.55 1.229 -3.245 V 146.624 h -2.066 c -1.739 0 -2.226 -0.179 -3.069 -1.126 c -1.258 -1.414 -2.64 -2.804 -3.568 -3.591 c -0.506 -0.429 -0.717 -1.209 -0.717 -2.655 c 0 -2.289 -0.42 -2.537 -1.76 -1.039 c -2.36 2.639 -5.364 1.176 -5.135 -2.499 c 0.135 -2.156 0.117 -2.196 -0.989 -2.196 c -1.09 0.001 -1.126 0.072 -1.126 2.224 m 83.487 -0.195 c 0.262 3.781 -2.588 5.213 -5.282 2.652 c -1.43 -1.36 -1.616 -1.269 -1.616 0.794 c 0 2.712 -1.154 3.946 -3.691 3.946 c -2.511 0 -2.778 0.431 -1.227 1.982 c 3.067 3.066 1.313 8.666 -2.714 8.666 H 224.032 v 5.178 l 2.145 0.098 c 2.902 0.132 3.589 0.82 3.589 3.593 v 2.189 h 5.324 v -1.788 c 0 -2.865 1.121 -3.946 4.092 -3.946 c 3.001 0 3.572 0.222 4.327 1.681 c 0.333 0.644 1.145 1.451 1.804 1.792 s 1.44 1.122 1.735 1.736 c 0.294 0.613 0.992 1.343 1.551 1.623 c 1.547 0.771 2.055 1.735 2.055 3.895 v 1.97 h 4.505 v -3.277 h 3.277 v -1.799 c 0 -1.223 -0.198 -1.875 -0.615 -2.036 c -1.182 -0.454 -2.06 -2.979 -1.44 -4.139 c 0.641 -1.198 1.172 -1.409 3.796 -1.507 l 1.945 -0.073 v -2.021 c 0 -1.719 -0.184 -2.194 -1.229 -3.17 c -0.937 -0.875 -1.229 -1.507 -1.229 -2.662 s 0.292 -1.787 1.229 -2.662 c 1.616 -1.509 1.566 -1.638 -0.641 -1.638 c -2.344 0 -3.14 -0.424 -4.213 -2.242 c -0.469 -0.794 -1.106 -1.444 -1.417 -1.444 c -1.089 0 -1.87 -1.421 -1.968 -3.589 c -0.083 -1.801 -1.181 -3.411 -1.181 -1.729 c 0 0.956 -2.671 2.039 -5.036 2.041 c -3.293 0.002 -4.525 -1.171 -4.32 -4.114 c 0.133 -1.929 0.09 -2.028 -0.884 -2.028 s -1.017 0.099 -0.884 2.028 M 112.747 159.526 c 0.003 1.126 0.083 1.539 0.177 0.916 c 0.094 -0.624 0.092 -1.545 -0.005 -2.048 s -0.175 0.005 -0.172 1.131 m 183.923 5.324 c -0.001 2.027 0.068 2.908 0.154 1.958 s 0.087 -2.609 0.003 -3.686 c -0.085 -1.077 -0.156 -0.299 -0.157 1.728 m -132.3 28.847 c -0.556 1.473 -1.867 1.79 -6.624 1.596 l -3.343 -0.135 l 0.001 5.959 l 0.001 5.958 l 1.404 -0.164 c 2.259 -0.263 4.195 0.58 4.707 2.049 c 0.985 2.826 0.074 7.142 -1.6 7.58 c -1.594 0.417 -0.8 0.939 1.428 0.939 c 4.044 0 5.714 5.055 1.98 5.992 c -1.599 0.401 -0.623 0.971 1.667 0.971 c 2.261 0 3.156 0.552 3.676 2.265 c 0.138 0.457 0.809 1.041 1.489 1.298 c 0.813 0.306 1.447 0.97 1.849 1.933 c 0.387 0.926 0.89 1.466 1.363 1.466 c 1.314 0 2.293 1.541 2.365 3.723 c 0.037 1.108 0.178 2.013 0.313 2.012 l 0.591 -0.001 c 0.646 0 1.294 -2.085 1.294 -4.165 c 0 -3.03 4.18 -7.303 7.143 -7.303 c 1.324 0 2.06 -0.225 2.528 -0.773 c 2.618 -3.059 2.314 -2.913 6.06 -2.913 h 3.48 l 1.271 1.581 c 0.699 0.87 1.675 1.799 2.17 2.064 s 1.316 1.121 1.825 1.9 c 1.559 2.388 3.375 1.354 3.375 -1.923 c 0 -3.169 0.869 -3.623 6.942 -3.623 h 5.046 l 5.229 5.324 l 5.229 5.324 l 1.985 -0.006 c 2.348 -0.007 2.68 -0.187 3.577 -1.939 c 0.376 -0.732 0.862 -1.354 1.081 -1.382 c 0.22 -0.028 0.584 -0.097 0.809 -0.154 s 0.962 -0.125 1.638 -0.154 c 1.626 -0.068 1.64 -1.231 0.03 -2.422 c -2.111 -1.561 -1.804 -4.395 0.601 -5.541 c 1.359 -0.648 1.417 -0.768 1.417 -2.889 c 0 -3.076 0.781 -3.945 3.911 -4.349 c 1.773 -0.228 2.199 -0.392 1.567 -0.603 c -1.355 -0.449 -1.997 -2.116 -1.997 -5.182 c 0 -3.52 0.55 -4.164 3.799 -4.454 l 2.345 -0.209 V 195.567 l -5.98 -0.205 c -6.175 -0.211 -7.028 -0.447 -7.547 -2.085 c -0.411 -1.291 -0.86 -0.883 -0.684 0.622 c 0.522 4.476 -4.526 7.058 -6.163 3.154 c -0.418 -0.997 -0.472 -0.898 -0.744 1.361 c -0.515 4.284 -4.658 5.576 -6.221 1.941 l -0.473 -1.102 l -0.125 1.433 c -0.318 3.636 -0.527 4.138 -1.972 4.741 c -2.8 1.17 -7.191 0.363 -7.758 -1.426 c -0.251 -0.789 -0.575 -0.857 -4.136 -0.857 H 202.325 v 2.253 c 0 1.707 -0.199 2.451 -0.819 3.072 c -2.055 2.055 -4.915 0.159 -4.915 -3.258 V 203.144 h -3.695 c -3.542 0 -3.714 0.042 -4.16 1.023 c -1.251 2.744 -7.975 2.447 -9.167 -0.405 c -0.591 -1.415 -0.636 -1.437 -3.051 -1.437 c -3.281 0 -4.091 -0.77 -4.091 -3.891 c 0 -1.239 -0.184 -2.253 -0.41 -2.253 s -0.41 0.248 -0.41 0.551 c 0 0.975 -1.543 1.985 -3.097 2.029 c -2.204 0.062 -3.155 -1.247 -2.977 -4.101 c 0.151 -2.405 -0.435 -2.891 -1.163 -0.965 M 102.438 231.712 c 0.027 0.619 0.073 1.403 0.102 1.741 c 0.043 0.481 0.785 0.64 3.418 0.733 l 3.363 0.119 l 0.119 3.363 l 0.119 3.363 l 1.229 0.012 c 1.644 0.017 2.22 0.435 1.961 1.424 c -0.311 1.192 0.599 2.045 2.185 2.045 h 1.383 l 0.048 2.969 c 0.027 1.633 0.024 3.18 -0.007 3.437 s 0.177 0.459 0.463 0.447 c 2.528 -0.099 2.773 0.055 2.773 1.739 c 0 1.697 1.114 2.502 2.648 1.914 c 0.867 -0.333 0.982 0.041 1.074 3.52 l 0.082 3.123 l 1.58 0.267 c 1.713 0.289 1.839 0.695 1.613 5.212 l -0.077 1.536 h 3.729 l 0.048 1.536 c 0.027 0.845 0.033 1.657 0.013 1.805 s 0.281 0.222 0.668 0.165 c 1.873 -0.275 2.75 0.379 2.615 1.95 l -0.13 1.507 h 10.797 l -0.157 -1.638 c -0.165 -1.739 -0.146 -1.751 2.598 -1.751 c 0.585 0 0.682 -0.496 0.675 -3.433 c -0.006 -2.341 -0.158 -3.416 -0.479 -3.377 c -2.508 0.304 -3.013 0.005 -2.845 -1.678 l 0.164 -1.638 h -3.727 v -1.807 c 0 -1.488 -0.127 -1.788 -0.717 -1.701 q -2.829 0.416 -2.627 -1.947 l 0.13 -1.507 H 133.518 V 237.548 h 10.624 l 0.115 5.222 l 0.115 5.222 h 3.073 l 0.048 2.867 c 0.027 1.577 0.018 3.097 -0.018 3.379 c -0.07 0.532 0.172 0.606 2.222 0.685 l 1.229 0.047 l 0.119 3.338 l 0.118 3.338 l 1.623 0.274 c 1.629 0.274 1.931 0.818 1.653 2.966 c -0.045 0.344 0.543 0.512 1.794 0.512 h 1.861 v 3.277 h 3.277 v 6.803 l 1.728 0.101 c 2.09 0.124 1.892 -0.075 2.016 2.028 c 0.077 1.287 0.269 1.724 0.739 1.681 c 2.117 -0.198 2.479 0.01 2.479 1.424 c 0 1.509 0.499 1.887 2.491 1.887 c 1.154 0 1.5 0.899 1.271 3.298 c -0.012 0.125 0.624 0.246 1.413 0.268 c 1.951 0.055 1.807 -0.915 1.801 12.207 c -0.006 13.159 0.144 12.159 -1.829 12.159 c -1.454 0 -1.461 0.009 -1.461 1.802 v 1.802 h -3.686 v 1.638 c 0 1.673 -0.483 1.965 -2.765 1.669 c -0.344 -0.045 -0.512 0.543 -0.512 1.794 v 1.861 h -6.963 v 3.277 h -41.776 l -0.047 -0.922 a 13.311 13.311 90 0 1 0.019 -1.602 c 0.059 -0.608 -0.663 -0.686 -6.796 -0.733 c -3.774 -0.029 -6.906 -0.096 -6.96 -0.151 c -0.054 -0.054 -0.144 -0.875 -0.201 -1.827 L 102.232 317.413 H 92.152 v -1.147 c 0 -1.921 -0.571 -2.13 -5.816 -2.13 H 81.503 l -0.048 -1.331 c -0.027 -0.732 -0.019 -1.561 0.017 -1.843 c 0.049 -0.375 -0.87 -0.512 -3.432 -0.512 H 74.541 l -0.048 -1.331 c -0.027 -0.732 -0.027 -1.469 0 -1.638 s -0.689 -0.307 -1.59 -0.307 c -1.696 0 -1.885 -0.288 -1.666 -2.524 c 0.037 -0.374 -0.155 -0.817 -0.426 -0.984 c -0.337 -0.209 -0.389 -0.124 -0.164 0.27 c 0.265 0.466 0.222 0.477 -0.223 0.063 c -0.304 -0.282 -1.068 -0.512 -1.699 -0.512 c -1.076 0 -1.147 -0.108 -1.147 -1.741 V 300.007 h 3.379 c 2.403 0 3.393 -0.147 3.43 -0.512 c 0.028 -0.282 0.075 -1.065 0.102 -1.741 c 0.049 -1.175 0.131 -1.229 1.894 -1.229 h 1.843 l 0.048 1.536 c 0.027 0.845 0.023 1.688 -0.01 1.875 c -0.033 0.187 0.637 0.307 1.488 0.268 a 63.483 63.483 90 0 1 3.492 -0.033 l 1.945 0.04 v 3.277 h 1.638 c 1.413 0 1.644 0.127 1.682 0.922 c 0.124 2.625 0.078 2.56 1.799 2.56 c 1.637 0 1.638 0.001 1.765 1.761 l 0.127 1.761 l 3.236 -0.078 l 3.236 -0.078 l 0.256 -1.711 c 0.249 -1.658 0.304 -1.711 1.758 -1.683 l 1.5 0.028 l 0.129 -3.379 l 0.13 -3.379 h -1.62 c -1.564 0 -2.598 -1.617 -2.18 -3.407 c 0.043 -0.184 -0.433 -0.294 -1.058 -0.245 c -3.814 0.299 -5.436 -0.006 -5.436 -1.025 c 0 -2.117 -0.275 -2.286 -3.73 -2.286 H 85.19 l -0.048 -1.126 c -0.027 -0.619 -0.023 -1.342 0.01 -1.608 c 0.033 -0.264 -0.158 -0.615 -0.424 -0.78 q -0.486 -0.3 -0.153 0.238 c 0.243 0.392 0.176 0.436 -0.244 0.166 c -0.651 -0.42 -1.196 -0.466 -6.207 -0.529 l -3.584 -0.046 v -3.277 h -1.638 c -1.503 0 -1.642 -0.093 -1.685 -1.126 c -0.109 -2.583 0.071 -2.404 -2.513 -2.513 L 67.578 282.6 v -6.963 h 10.649 v 1.843 c 0 1.014 0.138 1.822 0.307 1.795 s 1.736 -0.027 3.481 0 l 3.174 0.048 v 1.147 c 0 1.766 0.677 2.13 3.973 2.13 H 92.152 v 1.802 c 0 1.792 0.008 1.803 1.421 1.762 c 1.755 -0.049 1.862 0.056 1.932 1.907 l 0.056 1.492 H 102.391 l 0.047 1.126 c 0.027 0.619 0.073 1.403 0.102 1.741 c 0.046 0.508 0.931 0.622 5.084 0.652 l 5.029 0.039 l -0.115 -5.158 l -0.114 -5.157 l -3.379 -0.119 l -3.379 -0.119 l -0.048 -1.315 c -0.027 -0.723 -0.027 -1.453 0 -1.622 s -0.689 -0.307 -1.59 -0.307 c -1.522 0 -1.638 -0.082 -1.638 -1.147 c 0 -0.631 -0.23 -1.395 -0.512 -1.699 c -0.414 -0.445 -0.402 -0.488 0.063 -0.223 q 0.576 0.33 0.283 -0.144 c -0.181 -0.294 -1.528 -0.473 -3.545 -0.473 H 95.429 V 272.361 h -1.638 c -1.512 0 -1.638 -0.086 -1.644 -1.126 c -0.011 -1.966 -0.497 -2.267 -3.977 -2.469 l -3.239 -0.187 l 0.028 -1.488 c 0.03 -1.663 0.25 -1.575 -4.118 -1.645 l -2.915 -0.047 l 0.189 -1.638 l 0.189 -1.638 H 74.541 l -0.048 -1.536 c -0.027 -0.845 -0.035 -1.65 -0.018 -1.788 c 0.016 -0.139 -0.285 -0.252 -0.669 -0.252 c -2.669 0.005 -2.541 0.185 -2.541 -3.567 v -3.457 l 1.536 -0.127 c 1.453 -0.12 1.543 -0.21 1.663 -1.663 c 0.126 -1.525 0.14 -1.536 1.945 -1.536 c 1.83 0 2.234 0.644 1.867 2.969 c -0.027 0.169 1.508 0.307 3.41 0.307 h 3.458 l 0.126 1.741 c 0.122 1.689 0.171 1.745 1.662 1.868 c 1.551 0.129 1.854 0.684 1.561 2.866 c -0.04 0.294 0.169 0.503 0.463 0.463 s 1.872 -0.049 3.505 -0.023 l 2.969 0.048 v 1.613 c 0 1.598 0.017 1.617 1.843 1.89 c 1.801 0.27 1.843 0.311 1.843 1.785 c 0 1.448 0.06 1.511 1.521 1.61 c 1.843 0.125 1.697 -0.022 1.822 1.822 c 0.097 1.454 0.167 1.521 1.578 1.521 c 1.403 0 1.495 0.086 1.861 1.741 c 0.212 0.957 0.616 1.763 0.898 1.792 c 0.282 0.028 1.71 0.075 3.174 0.102 c 2.63 0.05 2.662 0.065 2.662 1.198 c 0 1.508 0.682 2.13 2.335 2.13 c 1.326 0 1.352 0.035 1.352 1.818 v 1.817 l 5.14 -0.004 l 5.14 -0.005 l -0.075 -3.349 l -0.074 -3.349 l -1.454 -0.108 c -1.792 -0.133 -1.786 -0.126 -1.836 -1.898 c -0.039 -1.385 -0.119 -1.461 -1.803 -1.714 c -1.491 -0.223 -1.762 -0.41 -1.762 -1.208 c 0 -1.73 -0.429 -2.239 -1.887 -2.239 c -1.427 0 -1.634 -0.377 -1.409 -2.569 c 0.041 -0.399 -0.077 -0.699 -0.26 -0.669 c -0.184 0.032 -1.026 0.036 -1.871 0.009 L 112.63 262.122 v -3.686 h -1.614 c -1.569 0 -1.617 -0.043 -1.741 -1.536 c -0.123 -1.491 -0.178 -1.54 -1.868 -1.662 l -1.741 -0.126 V 248.197 h -1.638 c -1.711 0 -1.923 -0.38 -1.66 -2.969 c 0.058 -0.574 -0.25 -0.717 -1.555 -0.717 c -1.578 0 -1.636 -0.05 -1.902 -1.627 c -0.152 -0.895 -0.398 -1.61 -0.548 -1.59 s -0.872 0.015 -1.604 -0.011 l -1.331 -0.048 v -10.649 h 6.963 z m 204.783 0 c 0.097 2.314 0.123 2.352 1.694 2.482 l 1.536 0.127 v 6.913 h -1.638 c -1.631 0 -1.638 0.007 -1.638 1.594 c 0 1.682 -1.085 2.436 -2.647 1.837 c -0.365 -0.14 -0.634 -0.094 -0.598 0.102 c 0.459 2.515 -0.024 3.429 -1.808 3.429 c -1.76 0 -1.778 0.013 -1.833 1.492 c -0.069 1.833 -0.102 1.867 -1.836 1.867 h -1.404 l -0.081 3.328 c -0.094 3.906 0.112 3.538 -2.013 3.621 l -1.706 0.067 V 262.122 h -3.277 v 3.277 h -3.686 v 1.602 c 0 1.55 -0.053 1.611 -1.638 1.879 s -1.638 0.329 -1.638 1.879 c 0 1.664 -0.288 1.819 -3.174 1.712 c -0.569 -0.02 -0.67 1.906 -0.255 4.93 l 0.258 1.878 l 4.964 -0.08 L 289.767 279.119 V 277.48 c 0 -1.634 0.004 -1.638 1.741 -1.764 c 1.732 -0.125 1.741 -0.134 1.741 -1.741 V 272.361 h 6.963 v -1.818 c 0 -1.805 0.011 -1.819 1.536 -1.945 c 1.399 -0.116 1.57 -0.264 1.916 -1.663 c 0.368 -1.488 1.201 -1.9 3.204 -1.584 c 0.169 0.027 0.286 -0.09 0.259 -0.259 c -0.316 -2.003 0.096 -2.836 1.584 -3.204 c 1.399 -0.346 1.547 -0.517 1.663 -1.916 l 0.127 -1.536 l 2.945 -0.048 c 1.62 -0.027 3.164 -0.022 3.432 0.012 c 0.295 0.037 0.539 -0.633 0.614 -1.685 c 0.119 -1.638 0.204 -1.748 1.356 -1.754 c 1.417 -0.007 2.301 -0.471 2.215 -1.163 c -0.298 -2.418 -0.583 -2.324 7 -2.324 h 6.963 v 6.916 l -1.741 0.126 c -1.816 0.131 -1.778 0.076 -1.901 2.669 c -0.041 0.847 -0.261 0.912 -3.423 1.024 l -3.379 0.119 l -0.127 1.536 c -0.128 1.548 -0.673 1.848 -2.842 1.567 c -0.335 -0.044 -0.512 0.496 -0.512 1.556 v 1.622 l -2.969 0.212 c -4.157 0.296 -3.993 0.215 -3.993 1.972 V 272.361 h -3.5 c -2.562 0 -3.481 0.137 -3.432 0.512 c 0.282 2.17 -0.018 2.714 -1.567 2.842 c -1.491 0.123 -1.54 0.178 -1.662 1.868 l -0.126 1.741 h -6.868 l -0.126 1.741 c -0.126 1.737 -0.13 1.741 -1.764 1.741 h -1.638 v 10.239 l 5.003 0.059 c 2.751 0.033 4.978 -0.059 4.949 -0.205 c -0.031 -0.145 0.089 -0.955 0.264 -1.8 l 0.319 -1.536 l 2.924 -0.048 c 1.608 -0.027 3.062 -0.027 3.23 0 s 0.307 -0.689 0.307 -1.59 v -1.638 h 3.686 V 282.6 h 6.795 l 0.102 -1.521 c 0.129 -1.914 -0.488 -1.706 5.302 -1.781 l 5.003 -0.066 V 275.637 h 6.963 v 3.584 l 0.001 3.584 H 336.765 c -1.512 0 -1.538 0.027 -1.661 1.724 l -0.125 1.724 l -3.356 0.119 l -3.356 0.119 l -0.127 1.536 l -0.127 1.536 l -2.126 0.051 a 98.296 98.296 90 0 1 -3.212 0.032 c -1.125 -0.022 -1.558 0.718 -1.571 2.682 c -0.005 0.906 -0.091 0.922 -5.089 0.922 h -5.084 l -0.272 1.616 c -0.254 1.504 -0.376 1.624 -1.77 1.741 c -1.425 0.119 -1.503 0.203 -1.62 1.743 c -0.147 1.956 -0.002 1.804 -1.851 1.929 c -1.469 0.098 -1.521 0.155 -1.521 1.657 v 1.554 h -3.686 v 6.888 h 3.491 c 2.407 0 3.473 -0.147 3.433 -0.474 c -0.032 -0.261 -0.036 -0.976 -0.009 -1.589 l 0.048 -1.113 l 5.017 -0.116 l 5.017 -0.115 l 0.126 -1.741 l 0.126 -1.741 h 6.916 v -3.277 l 1.945 -0.04 a 63.483 63.483 90 0 1 3.492 0.033 c 0.851 0.039 1.521 -0.081 1.488 -0.268 c -0.033 -0.186 -0.037 -1.03 -0.01 -1.875 l 0.048 -1.536 h 6.963 v 3.481 c 0 3.745 0.036 3.693 -2.381 3.494 c -0.584 -0.048 -0.918 0.131 -0.872 0.467 c 0.04 0.3 0.051 1.144 0.025 1.876 l -0.048 1.331 h -6.963 v 3.277 l -2.969 0.048 c -1.633 0.027 -3.2 0.019 -3.481 -0.017 c -0.344 -0.045 -0.512 0.543 -0.512 1.794 v 1.861 h -10.167 l -0.276 1.638 l -0.276 1.638 h -5.109 c -4.621 0 -5.102 0.069 -5.037 0.717 c 0.04 0.394 0.051 1.224 0.026 1.843 l -0.047 1.126 h -10.239 v 3.277 h -41.776 l -0.048 -1.126 c -0.027 -0.619 -0.019 -1.357 0.017 -1.638 c 0.049 -0.375 -0.87 -0.512 -3.432 -0.512 H 241.234 l -0.048 -1.536 c -0.027 -0.845 -0.027 -1.674 0 -1.843 s -0.781 -0.307 -1.795 -0.307 H 237.548 v -3.277 h -3.277 l -0.048 -3.174 c -0.027 -1.746 -0.039 -3.275 -0.028 -3.399 s -0.651 -0.27 -1.472 -0.326 c -1.89 -0.128 -1.699 0.428 -1.757 -5.104 c -0.029 -2.764 -0.216 -4.789 -0.444 -4.789 c -0.217 0 -0.264 -0.211 -0.104 -0.469 c 0.202 -0.327 -0.061 -0.401 -0.871 -0.247 c -1.77 0.338 -2.237 -0.026 -2.237 -1.742 s 0.467 -2.08 2.237 -1.742 c 0.81 0.155 1.073 0.08 0.871 -0.247 c -0.16 -0.258 -0.082 -0.469 0.173 -0.469 s 0.429 -0.415 0.388 -0.922 s -0.054 -1.889 -0.029 -3.072 l 0.045 -2.15 h 1.638 c 0.901 0 1.617 -0.138 1.59 -0.307 c -0.392 -2.482 0.055 -3.379 1.686 -3.379 h 1.638 v -1.638 c 0 -1.677 0.616 -2.001 3.174 -1.669 c 0.344 0.045 0.512 -0.543 0.512 -1.794 V 275.637 h 3.277 v -6.963 h 1.861 c 1.251 0 1.839 -0.168 1.794 -0.512 c -0.293 -2.258 0.002 -2.765 1.612 -2.765 h 1.58 l 0.082 -3.369 c 0.095 -3.952 -0.112 -3.579 2.016 -3.662 c 0.952 -0.037 1.686 -0.264 1.658 -0.512 c -0.028 -0.245 -0.029 -1.781 -0.002 -3.414 l 0.048 -2.969 h 3.277 v -6.963 h 1.873 c 1.69 0 1.865 -0.089 1.797 -0.922 c -0.041 -0.507 -0.054 -2.073 -0.029 -3.481 L 262.122 237.548 h 6.963 l 0.048 1.331 c 0.027 0.732 0.019 1.557 -0.015 1.835 q -0.063 0.503 1.487 0.41 l 1.552 -0.094 l 0.112 7.065 l 0.113 7.065 l -1.341 0.048 c -0.737 0.027 -1.479 0.027 -1.647 0 s -0.307 0.679 -0.307 1.567 c 0 1.607 -0.008 1.616 -1.741 1.741 c -1.709 0.124 -1.742 0.154 -1.783 1.67 c -0.051 1.878 -0.05 1.877 -1.84 1.997 c -1.337 0.09 -1.45 0.203 -1.54 1.54 c -0.118 1.76 0.028 1.625 -1.923 1.774 l -1.618 0.125 v 6.536 l 1.741 0.126 c 1.733 0.126 2.141 0.819 1.789 3.048 c -0.057 0.365 8.606 0.418 9.543 0.058 c 0.412 -0.158 0.648 -0.746 0.648 -1.615 c 0 -1.314 0.066 -1.371 1.741 -1.492 l 1.741 -0.126 l 0.127 -3.266 c 0.147 -3.811 -0.014 -3.498 1.841 -3.567 c 0.808 -0.031 1.458 -0.164 1.443 -0.297 s -0.004 -1.66 0.023 -3.392 l 0.048 -3.151 l 1.741 -0.126 c 1.016 -0.074 1.762 -0.339 1.792 -0.638 c 0.029 -0.282 0.074 -0.973 0.102 -1.536 c 0.044 -0.881 0.246 -1.024 1.441 -1.024 c 1.698 0 1.887 -0.412 1.887 -4.106 v -2.81 l 1.741 -0.126 c 1.795 -0.13 1.8 -0.136 1.898 -2.481 c 0.043 -1.028 0.186 -1.126 1.64 -1.126 c 1.011 0 1.585 -0.187 1.574 -0.512 c -0.011 -0.282 0.009 -1.848 0.045 -3.481 l 0.065 -2.969 h 1.594 c 1.686 0 2.092 -0.443 2.092 -2.286 c 0 -1.019 1.622 -1.324 5.436 -1.025 c 0.625 0.049 1.101 -0.06 1.058 -0.245 s 0.066 -1.026 0.241 -1.871 c 0.431 -2.073 3.468 -2.424 3.552 -0.41 h -20.478 Z h -20.478 Z" fill="#eeeeee"/>
</svg>