<svg xmlns="http://www.w3.org/2000/svg" width="21.303" height="21.303" viewBox="0 0 21.303 21.303">
  <path id="linkedin-2" d="M10.652,0A10.652,10.652,0,1,0,21.3,10.652,10.653,10.653,0,0,0,10.652,0Zm-3.1,16.1H4.962V8.3H7.556Zm-1.3-8.87H6.243a1.352,1.352,0,1,1,.034-2.7,1.353,1.353,0,1,1-.017,2.7ZM16.91,16.1H14.317V11.927c0-1.049-.376-1.765-1.314-1.765a1.42,1.42,0,0,0-1.331.949,1.777,1.777,0,0,0-.085.633V16.1H8.992s.034-7.072,0-7.8h2.594V9.4a2.575,2.575,0,0,1,2.338-1.288c1.707,0,2.987,1.115,2.987,3.513Zm0,0" fill="#efefef"/>
</svg>
