<?xml version="1.0" encoding="UTF-8"?>
<svg xmlns="http://www.w3.org/2000/svg" xmlns:xlink="http://www.w3.org/1999/xlink" width="21px" height="21px" viewBox="0 0 21 21" version="1.1">
<g id="surface1">
<path style=" stroke:none;fill-rule:nonzero;fill:rgb(92.941177%,92.941177%,92.941177%);fill-opacity:1;" d="M 15.75 1.167969 C 18.363281 3.011719 20.382812 5.566406 21 8.75 C 21.285156 11.914062 20.902344 14.644531 18.867188 17.171875 C 18.609375 17.375 18.351562 17.582031 18.082031 17.792969 C 17.832031 18.003906 17.832031 18.003906 17.574219 18.222656 C 14.890625 20.40625 11.878906 21.253906 8.457031 21 C 5.675781 20.449219 3.039062 18.34375 1.457031 16.042969 C 0.578125 14.613281 0.113281 13.359375 0 11.667969 C -0.0234375 11.410156 -0.0429688 11.148438 -0.0664062 10.882812 C -0.199219 8.226562 0.40625 6.066406 2.015625 3.925781 C 5.566406 0.0703125 11.003906 -1.359375 15.75 1.167969 Z M 5.832031 3.792969 C 5.738281 4.175781 5.640625 4.5625 5.542969 4.957031 C 5.976562 5.246094 5.976562 5.246094 6.417969 5.542969 C 6.707031 5.253906 6.996094 4.964844 7.292969 4.667969 C 7.195312 4.378906 7.097656 4.089844 7 3.792969 C 6.613281 3.792969 6.230469 3.792969 5.832031 3.792969 Z M 5.542969 6.417969 C 5.542969 9.304688 5.542969 12.191406 5.542969 15.167969 C 6.023438 15.167969 6.503906 15.167969 7 15.167969 C 7 12.277344 7 9.390625 7 6.417969 C 6.519531 6.417969 6.039062 6.417969 5.542969 6.417969 Z M 8.75 6.417969 C 8.75 9.304688 8.75 12.191406 8.75 15.167969 C 12.472656 15.460938 12.472656 15.460938 15.75 14 C 16.667969 13.011719 16.988281 12.257812 17.042969 10.9375 C 16.964844 9.335938 16.5 8.296875 15.3125 7.199219 C 14.367188 6.5625 13.65625 6.378906 12.539062 6.386719 C 12.339844 6.390625 12.140625 6.390625 11.933594 6.390625 C 11.683594 6.394531 11.433594 6.394531 11.175781 6.398438 C 10.375 6.40625 9.574219 6.410156 8.75 6.417969 Z M 8.75 6.417969 "/>
<path style=" stroke:none;fill-rule:nonzero;fill:rgb(93.333334%,93.333334%,93.333334%);fill-opacity:1;" d="M 10.207031 7.582031 C 13.578125 7.582031 13.578125 7.582031 14.875 8.457031 C 15.660156 9.636719 15.617188 10.574219 15.457031 11.957031 C 14.929688 13.203125 14.667969 13.375 13.417969 14 C 12.359375 14 11.300781 14 10.207031 14 C 10.207031 11.882812 10.207031 9.765625 10.207031 7.582031 Z M 10.207031 7.582031 "/>
</g>
</svg>
