<?xml version="1.0" encoding="UTF-8"?>
<svg version="1.1" xmlns="http://www.w3.org/2000/svg" width="72" height="72">
<path d="M0 0 C8.95419374 6.32150772 15.8798638 15.07929845 18 26 C18.97874202 36.8500544 17.66071986 46.20559153 10.6875 54.875 C9.800625 55.57625 8.91375 56.2775 8 57 C7.13761719 57.73283203 7.13761719 57.73283203 6.2578125 58.48046875 C-2.94933854 65.96821207 -13.27520256 68.86668656 -25 68 C-34.54463406 66.10498158 -43.58424019 58.89444612 -49 51 C-52.01498973 46.10427712 -53.61343017 41.79854739 -54 36 C-54.07476562 35.11441406 -54.14953125 34.22882812 -54.2265625 33.31640625 C-54.67681694 24.20467826 -52.60870567 16.79442324 -47.0859375 9.45703125 C-34.9123878 -3.75680361 -16.26960753 -8.65512663 0 0 Z M-34 9 C-34.33 10.32 -34.66 11.64 -35 13 C-33.515 13.99 -33.515 13.99 -32 15 C-31.01 14.01 -30.02 13.02 -29 12 C-29.33 11.01 -29.66 10.02 -30 9 C-31.32 9 -32.64 9 -34 9 Z M-35 18 C-35 27.9 -35 37.8 -35 48 C-33.35 48 -31.7 48 -30 48 C-30 38.1 -30 28.2 -30 18 C-31.65 18 -33.3 18 -35 18 Z M-24 18 C-24 27.9 -24 37.8 -24 48 C-11.24122148 49.01540646 -11.24122148 49.01540646 0 44 C3.14971874 40.61405235 4.24705059 38.0326959 4.4375 33.5 C4.16083505 28.01281187 2.56920133 24.45151123 -1.5 20.6875 C-4.74769319 18.4953071 -7.17916761 17.87352758 -11.01171875 17.90234375 C-11.69451904 17.90484131 -12.37731934 17.90733887 -13.08081055 17.90991211 C-13.94101807 17.91901611 -14.80122559 17.92812012 -15.6875 17.9375 C-18.430625 17.958125 -21.17375 17.97875 -24 18 Z " fill="#EDEDED" transform="translate(54,4)"/>
<path d="M0 0 C11.55555556 0 11.55555556 0 16 3 C18.69657104 7.04485657 18.5422677 10.25307196 18 15 C16.18524607 19.26467175 15.2842238 19.8578881 11 22 C7.37 22 3.74 22 0 22 C0 14.74 0 7.48 0 0 Z " fill="#EEEEEE" transform="translate(35,26)"/>
</svg>
