<svg xmlns="http://www.w3.org/2000/svg" width="21.3" height="21.3" viewBox="0 0 21.3 21.3">
  <g id="paint" transform="translate(-5027 4132)">
    <circle id="Ellipse_1" data-name="Ellipse 1" cx="10.65" cy="10.65" r="10.65" transform="translate(5027 -4132)" fill="#efefef"/>
    <g id="paint-board-and-brush" transform="translate(5029 -4168.723)">
      <path id="Path_10" data-name="Path 10" d="M16.079,41.145a.228.228,0,0,0-.4-.049,2.011,2.011,0,0,1-1.1.694,4.126,4.126,0,0,0-1.113.539,1.418,1.418,0,0,0-.686,1.464l-.014.017a7.487,7.487,0,0,0-.754-.93,7.046,7.046,0,0,0-4.8-2.154c-.079,0-.16,0-.239,0A6.96,6.96,0,0,0,1.7,43.185,6.928,6.928,0,0,0,.078,48.745c.025.165.057.332.094.5a6.19,6.19,0,0,0,3.46,4.535,3.275,3.275,0,0,0,1.26.263,2.8,2.8,0,0,0,2.475-1.515A3.278,3.278,0,0,0,7.76,51.4a2.719,2.719,0,0,0-.011-.667,2.51,2.51,0,0,1-.01-.649.87.87,0,0,1,.914-.781,1.409,1.409,0,0,1,.428.069c-.168.308-.321.6-.454.875a8.885,8.885,0,0,0-.579,1.422c-.063.226-.23.825.177,1.108a.609.609,0,0,0,.464.09c.154-.029.622-.116,1.952-1.63.357-.406.742-.876,1.144-1.4a3.1,3.1,0,0,0,2.048-2.207,3.252,3.252,0,0,0,.066-.791c.386-.6.725-1.154,1.066-1.753l.019-.036a1.88,1.88,0,0,0,1.172-1.06A3.623,3.623,0,0,0,16.079,41.145ZM10.5,44.868a.972.972,0,1,1,.125-.733A.968.968,0,0,1,10.5,44.868Zm1.261,1.761c.491-.724,1.011-1.444,1.5-2.084a2.664,2.664,0,0,0,.266.21,2.048,2.048,0,0,0,.5.257c-.417.713-.865,1.419-1.407,2.218a36.477,36.477,0,0,1-2.61,3.435A10.063,10.063,0,0,1,8.888,51.8a10.169,10.169,0,0,1,.641-1.472A36.59,36.59,0,0,1,11.761,46.629Zm-8.627-.006a.972.972,0,1,1,.823-.454A.969.969,0,0,1,3.134,46.623Zm-1.019,2.14a.972.972,0,1,1-.125.733A.968.968,0,0,1,2.116,48.763Zm3.112-5.772a.972.972,0,1,1-.125.733A.968.968,0,0,1,5.228,42.991Z" transform="translate(0)" fill="#228896"/>
    </g>
  </g>
</svg>
