<svg xmlns="http://www.w3.org/2000/svg" width="21.9" height="21.9" viewBox="0 0 21.9 21.9">
  <g id="slide" transform="translate(-5221 4134)">
    <path id="Path_15" data-name="Path 15" d="M10.95,0A10.95,10.95,0,1,1,0,10.95,10.95,10.95,0,0,1,10.95,0Z" transform="translate(5221 -4134)" fill="#efefef"/>
    <g id="slideshare-logo" transform="translate(5224.089 -4130)">
      <g id="Group_6" data-name="Group 6" transform="translate(0.911)">
        <path id="Path_13" data-name="Path 13" d="M14.462,6.842c-.055.04-.111.077-.166.115V1.4A1.348,1.348,0,0,0,13,0H2.928A1.348,1.348,0,0,0,1.633,1.4V6.961c-.057-.039-.115-.078-.173-.12-.429-.3-.711.108-.447.5a7.574,7.574,0,0,0,2.979,2.02c-1.58,5.381,3.856,6.236,3.772,3.477,0,.051,0-1.566.005-2.713.143.034.266.066.383.1,0,1.139.005,2.668.005,2.618-.083,2.759,5.356,1.9,3.773-3.477a7.569,7.569,0,0,0,2.979-2.02C15.173,6.95,14.892,6.542,14.462,6.842ZM9.1,8.212c-.665-.034-.911.252-.944.693a4.9,4.9,0,0,1-.491-.4c-.028-.026-.054-.049-.08-.071a.934.934,0,0,0-.76-.218A7.965,7.965,0,0,1,2.4,7.422V2.027c0-.977.249-1.284,1.144-1.284h8.915c.848,0,1.147.364,1.147,1.284v5.35A7.924,7.924,0,0,1,9.1,8.212Z" transform="translate(-0.911)" fill="#228896"/>
        <path id="Path_14" data-name="Path 14" d="M53.112,29.3a1.623,1.623,0,1,0,1.731,1.619A1.678,1.678,0,0,0,53.112,29.3Z" transform="translate(-43.949 -24.984)" fill="#228896"/>
        <ellipse id="Ellipse_2" data-name="Ellipse 2" cx="1.731" cy="1.619" rx="1.731" ry="1.619" transform="translate(3.402 4.314)" fill="#228896"/>
      </g>
    </g>
  </g>
</svg>
