<svg xmlns="http://www.w3.org/2000/svg" width="21.373" height="21.373" viewBox="0 0 21.373 21.373">
  <g id="twitter" transform="translate(-0.001)">
    <path id="Path_12" data-name="Path 12" d="M10.686,0A10.686,10.686,0,1,1,0,10.686,10.686,10.686,0,0,1,10.686,0Z" transform="translate(0.001 0)" fill="#efefef"/>
    <g id="Group_5" data-name="Group 5" transform="translate(4.783 6.482)">
      <path id="Path_11" data-name="Path 11" d="M37.553,35.226a5.1,5.1,0,0,1-1.467.4,2.561,2.561,0,0,0,1.123-1.413,5.113,5.113,0,0,1-1.622.62,2.556,2.556,0,0,0-4.353,2.33A7.251,7.251,0,0,1,25.97,34.5a2.557,2.557,0,0,0,.79,3.41,2.536,2.536,0,0,1-1.157-.32c0,.011,0,.022,0,.032a2.556,2.556,0,0,0,2.049,2.5,2.564,2.564,0,0,1-1.153.044,2.557,2.557,0,0,0,2.386,1.774A5.156,5.156,0,0,1,25.1,43a7.264,7.264,0,0,0,11.183-6.12q0-.166-.007-.33a5.18,5.18,0,0,0,1.275-1.322Z" transform="translate(-25.103 -34.028)" fill="#228896"/>
    </g>
  </g>
</svg>
