<svg xmlns="http://www.w3.org/2000/svg" width="21.372" height="21.371" viewBox="0 0 21.372 21.371">
  <g id="twitter" transform="translate(-0.001 0)">
    <path id="Subtraction_4" data-name="Subtraction 4" d="M-2417.313-243.628A10.7,10.7,0,0,1-2428-254.314a10.616,10.616,0,0,1,3.13-7.556,10.618,10.618,0,0,1,7.557-3.13,10.616,10.616,0,0,1,7.556,3.13,10.616,10.616,0,0,1,3.13,7.556A10.7,10.7,0,0,1-2417.313-243.628Zm-5.907-5.917h0a7.257,7.257,0,0,0,3.919,1.146,7.285,7.285,0,0,0,3.487-.892,7.263,7.263,0,0,0,3.777-6.376c0-.106,0-.217-.007-.33a5.158,5.158,0,0,0,1.275-1.322,5.113,5.113,0,0,1-1.465.4,2.558,2.558,0,0,0,1.123-1.413,5.087,5.087,0,0,1-1.623.62,2.564,2.564,0,0,0-1.864-.807,2.562,2.562,0,0,0-1.206.3,2.558,2.558,0,0,0-1.282,2.834,7.261,7.261,0,0,1-5.264-2.663,2.561,2.561,0,0,0,.79,3.41,2.557,2.557,0,0,1-1.157-.32v.032a2.566,2.566,0,0,0,2.049,2.5,2.581,2.581,0,0,1-.673.089,2.57,2.57,0,0,1-.48-.045,2.556,2.556,0,0,0,2.386,1.774,5.185,5.185,0,0,1-3.179,1.1A5.183,5.183,0,0,1-2423.22-249.546Z" transform="translate(2428 265)" fill="#efefef"/>
  </g>
</svg>
