<?xml version="1.0" encoding="UTF-8"?>
<svg version="1.1" xmlns="http://www.w3.org/2000/svg" width="130" height="130">
<path d="M0 0 C8.91017868 7.29633141 15.11737768 15.6126905 20 26 C20.45375 26.94488281 20.9075 27.88976563 21.375 28.86328125 C26.62719835 42.34027632 26.47383046 61.86908696 21.25390625 75.328125 C20.84011719 76.20984375 20.42632812 77.0915625 20 78 C19.57589844 78.94359375 19.15179688 79.8871875 18.71484375 80.859375 C15.21644807 87.91463536 10.52888491 93.44328513 5 99 C4.00226563 100.04994141 4.00226563 100.04994141 2.984375 101.12109375 C-10.37980883 114.20473173 -26.67706886 117.4606246 -44.70751953 117.43164062 C-62.96753482 117.12595116 -77.99069455 109.84970325 -90.81298828 96.85424805 C-99.5212873 87.4712388 -106.46492495 74.99993348 -106.46875 62.01953125 C-106.47636353 61.28482101 -106.48397705 60.55011078 -106.49182129 59.7931366 C-106.50255211 58.24778612 -106.5055042 56.70236353 -106.50097656 55.15698242 C-106.50000916 52.83449246 -106.54160082 50.51536986 -106.5859375 48.19335938 C-106.72331002 31.06068382 -100.33176251 17.1383311 -88.4375 4.8125 C-82.34441189 -1.21023135 -75.72350956 -5.36540727 -68 -9 C-67.06671875 -9.45375 -66.1334375 -9.9075 -65.171875 -10.375 C-43.8119984 -18.77888587 -17.84339222 -13.37141986 0 0 Z M-61 20 C-61 41.12 -61 62.24 -61 84 C-55.82334157 81.41167078 -50.79947109 78.57692397 -45.75 75.75 C-44.65421631 75.13680908 -43.55843262 74.52361816 -42.42944336 73.8918457 C-31.55377173 67.78471986 -20.7816758 61.50527783 -10.03344727 55.17651367 C-8.71109072 54.41142348 -7.3664523 53.68322615 -6 53 C-6 52.34 -6 51.68 -6 51 C-6.66829834 50.6282666 -7.33659668 50.2565332 -8.02514648 49.87353516 C-43.49169748 30.12763862 -43.49169748 30.12763862 -56.99609375 21.1796875 C-58.89969368 19.83089542 -58.89969368 19.83089542 -61 20 Z " fill="#E6E5E5" transform="translate(106,13)"/>
</svg>
