<?xml version="1.0" encoding="UTF-8"?>
<svg xmlns="http://www.w3.org/2000/svg" xmlns:xlink="http://www.w3.org/1999/xlink" width="21px" height="21px" viewBox="0 0 21 21" version="1.1">
<g id="surface1">
<path style=" stroke:none;fill-rule:nonzero;fill:rgb(90.196079%,89.803922%,89.803922%);fill-opacity:1;" d="M 17.125 2.101562 C 18.5625 3.277344 19.566406 4.621094 20.355469 6.300781 C 20.425781 6.453125 20.5 6.605469 20.574219 6.761719 C 21.425781 8.941406 21.398438 12.09375 20.554688 14.269531 C 20.488281 14.410156 20.421875 14.554688 20.355469 14.699219 C 20.285156 14.851562 20.21875 15.003906 20.144531 15.160156 C 19.582031 16.300781 18.824219 17.195312 17.929688 18.09375 C 17.769531 18.261719 17.769531 18.261719 17.605469 18.433594 C 15.445312 20.546875 12.8125 21.074219 9.902344 21.070312 C 6.953125 21.019531 4.523438 19.84375 2.453125 17.746094 C 1.046875 16.230469 -0.0742188 14.214844 -0.0742188 12.117188 C -0.078125 12 -0.078125 11.882812 -0.078125 11.757812 C -0.0820312 11.507812 -0.0820312 11.257812 -0.0820312 11.011719 C -0.0820312 10.636719 -0.0859375 10.261719 -0.09375 9.886719 C -0.117188 7.117188 0.914062 4.867188 2.835938 2.878906 C 3.820312 1.90625 4.890625 1.234375 6.136719 0.644531 C 6.289062 0.574219 6.441406 0.5 6.59375 0.425781 C 10.046875 -0.933594 14.242188 -0.0585938 17.125 2.101562 Z M 7.269531 5.332031 C 7.269531 8.742188 7.269531 12.152344 7.269531 15.667969 C 8.105469 15.25 8.917969 14.792969 9.734375 14.335938 C 9.910156 14.238281 10.085938 14.136719 10.269531 14.035156 C 12.027344 13.050781 13.765625 12.035156 15.503906 11.011719 C 15.714844 10.890625 15.933594 10.773438 16.152344 10.660156 C 16.152344 10.554688 16.152344 10.449219 16.152344 10.339844 C 16.046875 10.277344 15.9375 10.21875 15.828125 10.15625 C 10.097656 6.964844 10.097656 6.964844 7.914062 5.519531 C 7.609375 5.304688 7.609375 5.304688 7.269531 5.332031 Z M 7.269531 5.332031 "/>
</g>
</svg>
